<svg width="50" height="50" viewBox="0 0 50 50" fill="none" xmlns="http://www.w3.org/2000/svg">
<path fill-rule="evenodd" clip-rule="evenodd" d="M23.4375 31.25C23.4375 30.0062 22.9438 28.8141 22.0641 27.9359C21.1859 27.0562 19.9937 26.5625 18.75 26.5625C15.6469 26.5625 10.9156 26.5625 7.8125 26.5625C6.56875 26.5625 5.37656 27.0562 4.49843 27.9359C3.61875 28.8141 3.125 30.0062 3.125 31.25V42.1875C3.125 43.4312 3.61875 44.6234 4.49843 45.5016C5.37656 46.3812 6.56875 46.875 7.8125 46.875H18.75C19.9937 46.875 21.1859 46.3812 22.0641 45.5016C22.9438 44.6234 23.4375 43.4312 23.4375 42.1875V31.25ZM46.875 31.25C46.875 30.0062 46.3812 28.8141 45.5016 27.9359C44.6234 27.0562 43.4312 26.5625 42.1875 26.5625C39.0844 26.5625 34.3531 26.5625 31.25 26.5625C30.0062 26.5625 28.8141 27.0562 27.9359 27.9359C27.0562 28.8141 26.5625 30.0062 26.5625 31.25V42.1875C26.5625 43.4312 27.0562 44.6234 27.9359 45.5016C28.8141 46.3812 30.0062 46.875 31.25 46.875H42.1875C43.4312 46.875 44.6234 46.3812 45.5016 45.5016C46.3812 44.6234 46.875 43.4312 46.875 42.1875V31.25ZM40.0328 23.1141L46.5516 16.5953C48.3812 14.7656 48.3812 11.7969 46.5516 9.96718L40.0328 3.44844C38.2031 1.61875 35.2344 1.61875 33.4047 3.44844L26.8859 9.96718C25.0562 11.7969 25.0562 14.7656 26.8859 16.5953L33.4047 23.1141C35.2344 24.9437 38.2031 24.9437 40.0328 23.1141ZM23.4375 7.8125C23.4375 6.56875 22.9438 5.37656 22.0641 4.49843C21.1859 3.61875 19.9937 3.125 18.75 3.125C15.6469 3.125 10.9156 3.125 7.8125 3.125C6.56875 3.125 5.37656 3.61875 4.49843 4.49843C3.61875 5.37656 3.125 6.56875 3.125 7.8125V18.75C3.125 19.9937 3.61875 21.1859 4.49843 22.0641C5.37656 22.9438 6.56875 23.4375 7.8125 23.4375H18.75C19.9937 23.4375 21.1859 22.9438 22.0641 22.0641C22.9438 21.1859 23.4375 19.9937 23.4375 18.75V7.8125Z" fill="#D9B27A"/>
</svg>
