<svg width="31" height="31" viewBox="0 0 31 31" fill="none" xmlns="http://www.w3.org/2000/svg">
<path d="M15.1351 0C6.81081 0 0 6.81081 0 15.1351C0 23.4595 6.81081 30.2703 15.1351 30.2703C23.4595 30.2703 30.2703 23.4595 30.2703 15.1351C30.2703 6.81081 23.4595 0 15.1351 0ZM24.4527 15.7973L17.9257 22.3716C17.5473 22.75 16.9797 22.75 16.6014 22.3716C16.223 21.9932 16.223 21.4257 16.6014 21.0473L21.5203 16.0811H6.47973C5.95946 16.0811 5.53378 15.6554 5.53378 15.1351C5.53378 14.6149 5.95946 14.1892 6.47973 14.1892H21.5203L16.5541 9.27027C16.1757 8.89189 16.1757 8.32432 16.5541 7.94595C16.9324 7.56757 17.5 7.56757 17.8784 7.94595L24.4054 14.473C24.8311 14.8513 24.8311 15.4189 24.4527 15.7973Z" fill="#D9B27A" fill-opacity="0.44"/>
</svg>
