<svg width="30" height="30" viewBox="0 0 30 30" fill="none" xmlns="http://www.w3.org/2000/svg">
<g clip-path="url(#clip0_100_7280)">
<mask id="mask0_100_7280" style="mask-type:luminance" maskUnits="userSpaceOnUse" x="-4" y="-3" width="37" height="37">
<path d="M-3.91309 -2.6084H32.6087V33.9133H-3.91309V-2.6084Z" fill="white"/>
</mask>
<g mask="url(#mask0_100_7280)">
<path d="M21.3328 11.087H18.9132V3.47828C18.9132 2.64133 18.2284 1.95654 17.3915 1.95654H11.3045C10.4675 1.95654 9.78276 2.64133 9.78276 3.47828V11.087H7.36319C6.00884 11.087 5.32406 12.7305 6.28276 13.6892L13.2675 20.6739C13.861 21.2674 14.8197 21.2674 15.4132 20.6739L22.398 13.6892C23.3567 12.7305 22.6871 11.087 21.3328 11.087ZM3.6958 26.3044C3.6958 27.1413 4.38058 27.8261 5.21754 27.8261H23.4784C24.3154 27.8261 25.0001 27.1413 25.0001 26.3044C25.0001 25.4674 24.3154 24.7826 23.4784 24.7826H5.21754C4.38058 24.7826 3.6958 25.4674 3.6958 26.3044Z" fill="#6F4C33"/>
</g>
</g>
<defs>
<clipPath id="clip0_100_7280">
<rect width="30" height="30" fill="white"/>
</clipPath>
</defs>
</svg>
