<svg width="30" height="30" viewBox="0 0 30 30" fill="none" xmlns="http://www.w3.org/2000/svg">
<g clip-path="url(#clip0_96_3320)">
<path d="M27.5202 19.1771C27.5202 20.9072 26.1174 22.3099 24.3873 22.3099H3.93418L8.05902 18.1851L6.58235 16.7084L0.67489 22.6159C0.267224 23.0238 0.267224 23.6846 0.67489 24.0926L6.58235 30L8.05902 28.5233L3.93418 24.3985H24.3873C27.2695 24.3949 29.6051 22.0593 29.6087 19.1771V15H27.5202V19.1771Z" fill="url(#paint0_linear_96_3320)"/>
<path d="M2.45672 10.8229C2.45672 9.09256 3.8592 7.69007 5.58955 7.69007H26.0427L21.9179 11.8149L23.3945 13.2916L29.302 7.38413C29.7097 6.97621 29.7097 6.31538 29.302 5.90746L23.3945 0L21.9179 1.47667L26.0427 5.60152H5.58955C2.70734 5.60483 0.371478 7.94069 0.368164 10.8229V15H2.45672V10.8229Z" fill="url(#paint1_linear_96_3320)"/>
</g>
<defs>
<linearGradient id="paint0_linear_96_3320" x1="14.9889" y1="15" x2="14.9889" y2="30" gradientUnits="userSpaceOnUse">
<stop stop-color="#F1C687"/>
<stop offset="1" stop-color="#8B724E"/>
</linearGradient>
<linearGradient id="paint1_linear_96_3320" x1="14.988" y1="0" x2="14.988" y2="15" gradientUnits="userSpaceOnUse">
<stop stop-color="#F1C687"/>
<stop offset="1" stop-color="#8B724E"/>
</linearGradient>
<clipPath id="clip0_96_3320">
<rect width="30" height="30" fill="white"/>
</clipPath>
</defs>
</svg>
