<svg width="66" height="66" viewBox="0 0 66 66" fill="none" xmlns="http://www.w3.org/2000/svg">
<path d="M45.7286 33.6162L44.7231 33.593H38.7548L34.1348 40.3799V49.8378H54.0856V42.1421C54.0967 39.9066 53.2252 37.7571 51.6603 36.1607C50.0955 34.5642 47.9638 33.6498 45.7286 33.6162Z" fill="#BE9E77"/>
<path d="M11.3679 49.8378H31.3162V39.5124L35.3419 33.6021L19.7223 33.6162C17.4871 33.6498 15.3554 34.5642 13.7906 36.1607C12.2258 37.7571 11.3542 39.9066 11.3653 42.1421L11.3679 49.8378Z" fill="#BE9E77"/>
<path d="M56.3527 33.4448H52.8516C53.9907 34.4037 54.9277 35.5797 55.608 36.9042C56.2883 38.2287 56.6983 39.6753 56.8141 41.1598C57.8097 41.0623 58.7287 40.5829 59.3782 39.8222C60.0278 39.0614 60.3572 38.0786 60.2975 37.0801C60.2378 36.0816 59.7935 35.1451 59.0579 34.4672C58.3223 33.7894 57.3527 33.4229 56.3527 33.4448Z" fill="#BE9E77"/>
<path d="M12.6003 33.4447H9.64701C8.69984 33.4321 7.78101 33.7676 7.0648 34.3875C6.34859 35.0075 5.88482 35.8687 5.76146 36.8079C5.6381 37.7471 5.86373 38.6989 6.39556 39.4827C6.92739 40.2666 7.72842 40.828 8.6467 41.0605C8.90452 38.0986 10.3263 35.3599 12.6003 33.4447Z" fill="#BE9E77"/>
<path d="M23.6218 30.775C25.0669 30.775 26.4795 30.3465 27.6811 29.5437C28.8826 28.7409 29.8191 27.5998 30.3721 26.2647C30.9251 24.9296 31.0698 23.4605 30.7879 22.0432C30.5059 20.6259 29.8101 19.3241 28.7882 18.3022C27.7664 17.2804 26.4646 16.5845 25.0472 16.3026C23.6299 16.0207 22.1609 16.1654 20.8258 16.7184C19.4907 17.2714 18.3496 18.2079 17.5468 19.4094C16.7439 20.611 16.3154 22.0236 16.3154 23.4686C16.3182 25.4056 17.0888 27.2624 18.4584 28.632C19.8281 30.0017 21.6849 30.7723 23.6218 30.775Z" fill="#BE9E77"/>
<path d="M41.8286 30.775C43.2737 30.7753 44.6864 30.347 45.8881 29.5443C47.0898 28.7416 48.0265 27.6006 48.5797 26.2656C49.1329 24.9305 49.2778 23.4614 48.996 22.044C48.7142 20.6266 48.0185 19.3246 46.9967 18.3027C45.9749 17.2807 44.6731 16.5847 43.2557 16.3027C41.8384 16.0207 40.3692 16.1653 39.0341 16.7183C37.699 17.2712 36.5578 18.2077 35.7549 19.4093C34.952 20.6108 34.5234 22.0235 34.5234 23.4686C34.5255 25.4056 35.2957 27.2626 36.6652 28.6323C38.0347 30.0021 39.8916 30.7727 41.8286 30.775Z" fill="#BE9E77"/>
</svg>
