<svg width="50" height="50" viewBox="0 0 50 50" fill="none" xmlns="http://www.w3.org/2000/svg">
<path d="M43.75 15.9062V28.125C43.75 29.151 43.5479 30.1669 43.1553 31.1147C42.7627 32.0626 42.1872 32.9238 41.4618 33.6493C40.7363 34.3747 39.8751 34.9502 38.9272 35.3428C37.9794 35.7354 36.9635 35.9375 35.9375 35.9375H15.625V37.5C15.6287 38.7421 16.1238 39.9322 17.002 40.8105C17.8803 41.6887 19.0704 42.1838 20.3125 42.1875H38.3281C38.5725 42.1907 38.813 42.2494 39.0312 42.3594L44.6094 45.1406C44.8277 45.2506 45.0681 45.3093 45.3125 45.3125C45.6049 45.3123 45.8915 45.2312 46.1406 45.0781C46.3658 44.9374 46.5514 44.7416 46.6799 44.5092C46.8084 44.2768 46.8755 44.0155 46.875 43.75V20.3125C46.8723 19.3454 46.5705 18.4028 46.011 17.614C45.4516 16.8251 44.6618 16.2286 43.75 15.9062Z" fill="#D9B27A"/>
<path d="M40.625 28.125V9.375C40.625 8.1318 40.1311 6.93951 39.2521 6.06044C38.373 5.18136 37.1807 4.6875 35.9375 4.6875H7.8125C6.5693 4.6875 5.37701 5.18136 4.49794 6.06044C3.61886 6.93951 3.125 8.1318 3.125 9.375V37.5C3.12489 37.7944 3.20797 38.0829 3.36466 38.3322C3.52135 38.5814 3.74529 38.7813 4.01065 38.9089C4.27602 39.0364 4.57202 39.0864 4.86455 39.053C5.15708 39.0197 5.43423 38.9043 5.66406 38.7203L12.6203 33.1547C12.8967 32.9337 13.2399 32.813 13.5938 32.8125H35.9375C37.1807 32.8125 38.373 32.3186 39.2521 31.4396C40.1311 30.5605 40.625 29.3682 40.625 28.125ZM23.3125 25.5937C23.2423 25.7876 23.1304 25.9637 22.9846 26.1096C22.8387 26.2554 22.6626 26.3673 22.4688 26.4375C22.2816 26.5199 22.0794 26.5624 21.875 26.5624C21.6706 26.5624 21.4684 26.5199 21.2812 26.4375C21.0874 26.3673 20.9113 26.2554 20.7654 26.1096C20.6196 25.9637 20.5077 25.7876 20.4375 25.5937C20.3574 25.4059 20.315 25.2042 20.3125 25C20.3186 24.5864 20.4804 24.1902 20.7656 23.8906C20.9176 23.7527 21.092 23.6418 21.2812 23.5625C21.4677 23.4775 21.6701 23.4335 21.875 23.4335C22.0799 23.4335 22.2823 23.4775 22.4688 23.5625C22.658 23.6418 22.8324 23.7527 22.9844 23.8906C23.2722 24.1886 23.4344 24.5858 23.4375 25C23.435 25.2042 23.3926 25.4059 23.3125 25.5937ZM23.6109 20.125C23.5259 20.176 23.4564 20.2492 23.4099 20.3367C23.3633 20.4243 23.3416 20.5229 23.3469 20.6219C23.3469 21.0363 23.1823 21.4337 22.8892 21.7267C22.5962 22.0198 22.1988 22.1844 21.7844 22.1844C21.37 22.1844 20.9725 22.0198 20.6795 21.7267C20.3865 21.4337 20.2219 21.0363 20.2219 20.6219C20.2112 19.9049 20.4134 19.2009 20.8027 18.5988C21.1921 17.9967 21.7512 17.5235 22.4094 17.2391C22.738 17.1028 23.0139 16.8642 23.1962 16.5588C23.3785 16.2534 23.4576 15.8973 23.4216 15.5434C23.3857 15.1895 23.2367 14.8566 22.9966 14.5941C22.7566 14.3315 22.4383 14.1534 22.0891 14.0859C21.6997 14.015 21.2978 14.0841 20.9546 14.2812C20.6114 14.4782 20.349 14.7905 20.2141 15.1625C20.0724 15.5494 19.7837 15.8648 19.4107 16.0399C19.0377 16.215 18.6107 16.2356 18.2225 16.0974C17.8344 15.9592 17.5165 15.6732 17.3382 15.3017C17.1598 14.9303 17.1355 14.5034 17.2703 14.1141C17.5361 13.3629 17.9854 12.6901 18.5774 12.1568C19.1694 11.6236 19.8853 11.2468 20.6601 11.0607C21.4348 10.8746 22.2438 10.8851 23.0134 11.0914C23.7831 11.2976 24.4889 11.693 25.0668 12.2415C25.6447 12.79 26.0763 13.4743 26.3224 14.2322C26.5685 14.99 26.6212 15.7973 26.4757 16.5807C26.3303 17.3641 25.9913 18.0987 25.4896 18.7177C24.9879 19.3367 24.3394 19.8205 23.6031 20.125H23.6109Z" fill="#D9B27A"/>
</svg>
