<svg width="22" height="22" viewBox="0 0 22 22" fill="none" xmlns="http://www.w3.org/2000/svg">
<g clip-path="url(#clip0_96_10259)">
<path d="M3.16766 14.7943C2.46194 13.4558 2.0625 11.9309 2.0625 10.3125C2.0625 4.99675 6.37175 0.6875 11.6875 0.6875C12.2203 0.6875 12.7428 0.730813 13.2523 0.814C11.0932 1.97347 9.625 4.25288 9.625 6.875C9.625 10.6721 12.7029 13.75 16.5 13.75C18.3081 13.75 19.953 13.0522 21.1805 11.9109C20.6549 15.0552 18.6051 17.6835 15.8163 19.0097L3.16766 14.7943Z" fill="#F1A141"/>
<path d="M9.68024 7.75878C9.30796 4.77194 10.8538 2.10203 13.2521 0.814C12.7431 0.730813 12.2202 0.6875 11.6874 0.6875C11.5413 0.6875 11.3962 0.690594 11.2519 0.697125C4.60959 0.993094 1.30924 8.80722 5.39987 14.0484C6.05059 14.882 6.80202 15.6331 7.63631 16.2834L15.7289 18.9802L15.8939 18.9695C18.6425 17.6316 20.6596 15.025 21.1801 11.9103C19.7717 13.2199 17.813 13.9459 15.6893 13.7029C12.5822 13.3478 10.0666 10.8615 9.6799 7.75809L9.68024 7.75878Z" fill="#FFBE51"/>
<path d="M9.76697 14.7768C10.1276 14.5612 10.5493 14.4375 11 14.4375C12.0292 14.4375 12.9071 15.0834 13.2512 15.9919C13.5083 15.8768 13.7937 15.8125 14.0938 15.8125C15.2329 15.8125 16.1562 16.7358 16.1562 17.875C16.1562 19.0142 15.2329 19.9375 14.0938 19.9375C13.8652 19.9375 13.6455 19.9004 13.4399 19.8316C12.9814 20.7116 12.0608 21.3125 11 21.3125C10.0155 21.3125 9.152 20.7952 8.66594 20.0176C8.26444 20.7873 7.45937 21.3125 6.53125 21.3125C5.63406 21.3125 4.85169 20.8216 4.43781 20.0936C4.12775 20.2146 3.79053 20.2812 3.4375 20.2812C1.91881 20.2812 0.6875 19.0499 0.6875 17.5312C0.6875 16.0126 1.91881 14.7812 3.4375 14.7812C3.84588 14.7812 4.23328 14.8703 4.58184 15.0298C4.91906 13.8923 5.97197 13.0625 7.21875 13.0625C8.37134 13.0625 9.35825 13.7713 9.76697 14.7768Z" fill="#83D9F2"/>
<path d="M21.3125 3.09375C19.9836 3.09375 18.9062 4.17106 18.9062 5.5C18.9062 4.17106 17.8289 3.09375 16.5 3.09375C17.8289 3.09375 18.9062 2.01644 18.9062 0.6875C18.9062 2.01644 19.9836 3.09375 21.3125 3.09375Z" fill="#F1A141"/>
<path d="M15.8125 6.1875C15.8125 7.13659 15.0428 7.90625 14.0938 7.90625C15.0428 7.90625 15.8125 8.67591 15.8125 9.625C15.8125 8.67591 16.5822 7.90625 17.5312 7.90625C16.5822 7.90625 15.8125 7.13659 15.8125 6.1875Z" fill="#F1A141"/>
<path d="M14.0937 15.8125C13.7936 15.8125 13.5083 15.8768 13.2512 15.9919C12.9071 15.0834 12.0291 14.4375 11 14.4375C10.5493 14.4375 10.1275 14.5612 9.76693 14.7768C9.35787 13.7713 8.37096 13.0625 7.21871 13.0625C5.97193 13.0625 4.91868 13.8923 4.5818 15.0298C4.23359 14.8703 3.84584 14.7812 3.43746 14.7812C2.09512 14.7812 0.978961 15.7434 0.737305 17.0156C0.978961 18.2878 2.09512 19.25 3.43746 19.25C3.79049 19.25 4.12771 19.1837 4.43777 19.0623C4.85165 19.79 5.63402 20.2812 6.53121 20.2812C7.45934 20.2812 8.26474 19.756 8.6659 18.9863C9.15162 19.7639 10.0155 20.2812 11 20.2812C12.0608 20.2812 12.9813 19.6804 13.4399 18.8004C13.6455 18.8691 13.8651 18.9062 14.0937 18.9062C15.0545 18.9062 15.8592 18.2483 16.0885 17.3594C15.8592 16.4704 15.0541 15.8125 14.0937 15.8125Z" fill="#A4E9FE"/>
<path d="M15.812 6.1875C15.812 6.75228 15.5356 7.24934 15.1152 7.5625C15.536 7.87566 15.812 8.37272 15.812 8.9375C15.812 8.37272 16.0884 7.87566 16.5088 7.5625C16.088 7.24934 15.812 6.75228 15.812 6.1875Z" fill="#FFBE51"/>
<path d="M18.9059 0.6875C18.9059 1.56441 18.4353 2.32959 17.7344 2.75C18.4353 3.17041 18.9059 3.93559 18.9059 4.8125C18.9059 3.93559 19.3765 3.17041 20.0774 2.75C19.3765 2.32959 18.9059 1.56441 18.9059 0.6875Z" fill="#FFBE51"/>
</g>
<defs>
<clipPath id="clip0_96_10259">
<rect width="22" height="22" fill="white"/>
</clipPath>
</defs>
</svg>
