<svg width="25" height="25" viewBox="0 0 25 25" fill="none" xmlns="http://www.w3.org/2000/svg">
<g clip-path="url(#clip0_801_7)">
<path d="M25 7.32422V23.5352H17.5503C15.5032 23.5352 14.4266 24.9232 14.3169 25H10.6831C10.5719 24.9222 9.51064 23.5352 7.44971 23.5352H0V5.85938H1.46484V22.0703H7.45605C9.74521 22.0703 11.0194 23.3619 11.3369 23.5352H13.6631C13.9804 23.3619 15.255 22.0703 17.5439 22.0703H23.5352V7.32422H25Z" fill="#BE9E77"/>
<path d="M10.2993 21.1899C9.40967 20.8052 8.44727 20.6055 7.45605 20.6055H2.92969V2.92969H4.39453V17.6758H6.5918C8.58789 17.6758 10.2207 19.2388 10.2993 21.1899Z" fill="#BE9E77"/>
<path d="M17.5441 4.39453C15.9927 4.39453 14.4984 4.80098 13.1812 5.57817C13.2152 5.91089 13.2326 6.24922 13.2326 6.5918V22.0396C13.3307 21.9685 13.4429 21.8896 13.5707 21.8057C15.8322 20.2974 17.3904 20.6055 22.0705 20.6055V4.39453H17.5441Z" fill="#BE9E77"/>
<path d="M11.7676 21.3379C11.7676 18.5109 9.44575 16.2109 6.5918 16.2109H5.85938V0C9.52104 0 11.7676 2.95708 11.7676 6.5918V21.3379Z" fill="#BE9E77"/>
</g>
<defs>
<clipPath id="clip0_801_7">
<rect width="25" height="25" fill="white"/>
</clipPath>
</defs>
</svg>
