<svg width="35" height="35" viewBox="0 0 35 35" fill="none" xmlns="http://www.w3.org/2000/svg">
<path d="M20.9609 12.9556C22.9292 10.9872 22.9292 7.79597 20.9609 5.82765C18.9926 3.85933 15.8013 3.85933 13.833 5.82765C11.8647 7.79596 11.8647 10.9872 13.833 12.9556C15.8013 14.9239 18.9926 14.9239 20.9609 12.9556Z" fill="#6F4C33"/>
<path d="M17.108 25.2647V30.4496C16.6229 30.0398 15.7996 29.4005 14.7103 28.7614C13.6646 28.1476 12.5907 27.6626 11.5186 27.3198C10.242 26.9118 8.9645 26.7055 7.71761 26.7055H7.71622L5.35156 21.0153C6.01972 21.0066 7.44287 21.0398 9.17921 21.3798C11.3765 21.8101 14.5243 22.8334 17.108 25.2647Z" fill="#6F4C33"/>
<path d="M29.4482 21.0158L27.0837 26.7056H27.0823C25.8354 26.7056 24.5579 26.912 23.2813 27.32C22.2093 27.6626 21.1354 28.1477 20.0896 28.7616C19.0004 29.4009 18.177 30.04 17.6919 30.4498V25.2649C20.2706 22.8385 23.4113 21.8148 25.6035 21.3835C27.344 21.0409 28.7766 21.0069 29.4482 21.0158Z" fill="#6F4C33"/>
<path d="M25.6356 20.7825C25.5935 20.7903 25.551 20.7985 25.5084 20.807C24.047 21.0934 22.663 21.5317 21.3942 22.1106C19.8931 22.795 18.5505 23.6789 17.3998 24.7393C16.2494 23.6789 14.9066 22.795 13.4055 22.1106C12.1367 21.5319 10.7527 21.0934 9.29127 20.807C9.24516 20.798 9.1994 20.7893 9.15381 20.7808C9.19122 17.9446 11.4816 15.8145 14.5109 15.8145H20.2787C23.3085 15.8145 25.5992 17.9454 25.6356 20.7825Z" fill="#6F4C33"/>
</svg>
