<svg width="19" height="18" viewBox="0 0 19 18" fill="none" xmlns="http://www.w3.org/2000/svg">
<path d="M18.6276 13.3018C16.0874 12.8838 14.9426 10.2819 14.8963 10.1714C14.8927 10.1643 14.8903 10.1572 14.8856 10.15C14.7561 9.8864 14.7252 9.66908 14.7965 9.50401C14.9354 9.17862 15.4675 9.00998 15.819 8.89835C15.9211 8.86629 16.0173 8.83541 16.0969 8.80454C16.4436 8.66797 16.6907 8.51952 16.8545 8.35208C17.0493 8.15138 17.0873 7.959 17.0849 7.8343C17.079 7.53029 16.8462 7.25953 16.4745 7.12771C16.3498 7.07664 16.2061 7.04933 16.0612 7.04933C15.9627 7.04933 15.8154 7.06239 15.6765 7.12771C15.3796 7.26665 15.1136 7.34266 14.8844 7.35334C14.7632 7.34741 14.6777 7.32128 14.6219 7.29634C14.6291 7.17759 14.6362 7.05527 14.6445 6.92939L14.6481 6.87476C14.73 5.58864 14.8309 3.989 14.4058 3.03895C14.1148 2.38817 13.7241 1.82884 13.2432 1.37519C12.8406 0.995172 12.3727 0.686407 11.8526 0.458396C10.9488 0.0593778 10.1057 0 9.68289 0H9.6817C9.66507 0 9.64963 0 9.63538 0C9.51782 0.00118756 9.32662 0.00356266 9.30881 0.00356266C8.88722 0.00356266 8.04287 0.0629405 7.13677 0.461959C6.6178 0.68997 6.15228 0.997547 5.75089 1.37756C5.2723 1.83121 4.88279 2.38936 4.59302 3.03777C4.16788 3.98662 4.26882 5.58626 4.34957 6.8712V6.87357C4.35789 7.01133 4.36739 7.15502 4.3757 7.29515C4.31395 7.32247 4.213 7.35334 4.06456 7.35334C3.82467 7.35334 3.53966 7.27734 3.21783 7.12652C3.12283 7.08258 3.01476 7.06002 2.89601 7.06002C2.70481 7.06002 2.50174 7.11583 2.32717 7.21915C2.10628 7.34859 1.96377 7.53029 1.92458 7.73336C1.89965 7.86637 1.90083 8.13119 2.19535 8.39958C2.35804 8.54684 2.59555 8.68341 2.90313 8.80454C2.98388 8.8366 3.08008 8.86629 3.18102 8.89835C3.53253 9.00998 4.06575 9.17862 4.20469 9.50401C4.27476 9.66908 4.24388 9.8864 4.11444 10.15C4.11087 10.1572 4.10731 10.1643 4.10494 10.1714C4.07168 10.2474 3.76886 10.9303 3.14777 11.6511C2.79506 12.0608 2.40673 12.404 1.99346 12.67C1.48875 12.9954 0.943663 13.2068 0.372449 13.3006C0.148001 13.3374 -0.012319 13.5369 0.000744103 13.7638C0.00430677 13.8291 0.019745 13.8944 0.0470588 13.9573V13.9585C0.138501 14.1711 0.348698 14.3504 0.690714 14.5084C1.10873 14.7019 1.73339 14.8646 2.54924 14.9917C2.5908 15.0701 2.63356 15.266 2.66324 15.4002C2.69412 15.5427 2.72618 15.69 2.7725 15.8456C2.82238 16.0142 2.95063 16.2161 3.28196 16.2161C3.40784 16.2161 3.55154 16.1876 3.71898 16.1555C3.96362 16.108 4.29851 16.0427 4.71534 16.0427C4.94691 16.0427 5.1868 16.0629 5.42787 16.1033C5.89339 16.1804 6.29479 16.4631 6.75912 16.7908C7.43841 17.2706 8.20794 17.8133 9.38362 17.8133C9.41569 17.8133 9.44775 17.8121 9.47981 17.8098C9.51781 17.8121 9.56651 17.8133 9.61638 17.8133C10.7921 17.8133 11.5616 17.2706 12.2409 16.792L12.2421 16.7908C12.7064 16.4643 13.1078 16.1816 13.5733 16.1044C13.8144 16.0641 14.0543 16.0439 14.2859 16.0439C14.6849 16.0439 15.0008 16.0949 15.2822 16.1496C15.4663 16.1852 15.6088 16.203 15.7192 16.203H15.7299H15.7406C15.9829 16.203 16.161 16.07 16.2287 15.8384C16.2738 15.6852 16.3059 15.5427 16.3379 15.3967C16.3653 15.2708 16.4104 15.0689 16.4508 14.9905C17.2666 14.8623 17.8913 14.7008 18.3093 14.5072C18.6501 14.3492 18.8603 14.1699 18.9518 13.9585C18.9791 13.8956 18.9957 13.8303 18.9993 13.7626C19.0123 13.5381 18.852 13.3374 18.6276 13.3018Z" fill="#6F4C33"/>
</svg>
