<svg width="22" height="22" viewBox="0 0 22 22" fill="none" xmlns="http://www.w3.org/2000/svg">
<g clip-path="url(#clip0_100_5444)">
<path d="M12.6018 1.05263L13.4889 0.141177C13.7428 -0.119729 14.1845 -0.00139301 14.2739 0.351552L14.5865 1.58445C14.8956 2.80404 16.15 3.52828 17.3608 3.18624L18.5848 2.84043C18.9352 2.74143 19.2585 3.06477 19.1595 3.41514L18.8137 4.63915C18.4716 5.84992 19.1959 7.10435 20.4155 7.41351L21.6484 7.72602C22.0014 7.81548 22.1197 8.25716 21.8588 8.5111L20.9473 9.39819C20.0457 10.2757 20.0457 11.7242 20.9473 12.6017L21.8588 13.4888C22.1197 13.7428 22.0014 14.1844 21.6484 14.2739L20.4155 14.5864C19.1959 14.8956 18.4717 16.15 18.8137 17.3608L19.1595 18.5848C19.2585 18.9352 18.9352 19.2585 18.5848 19.1595L17.3608 18.8137C16.15 18.4716 14.8956 19.1958 14.5865 20.4155L14.2739 21.6484C14.1845 22.0013 13.7428 22.1196 13.4889 21.8587L12.6018 20.9473C11.7242 20.0457 10.2757 20.0457 9.39824 20.9473L8.51115 21.8587C8.2572 22.1196 7.81553 22.0013 7.72606 21.6484L7.41355 20.4155C7.10439 19.1959 5.84996 18.4716 4.63919 18.8137L3.41518 19.1595C3.06481 19.2585 2.74147 18.9352 2.84047 18.5848L3.18629 17.3608C3.52836 16.15 2.80412 14.8956 1.5845 14.5864L0.351595 14.2739C-0.00135007 14.1844 -0.119686 13.7428 0.14122 13.4888L1.05267 12.6017C1.95429 11.7242 1.95429 10.2757 1.05267 9.39819L0.141177 8.5111C-0.119729 8.25716 -0.00139301 7.81548 0.351552 7.72602L1.58445 7.41351C2.80404 7.10435 3.52828 5.84992 3.18624 4.63915L2.84043 3.41514C2.74143 3.06477 3.06477 2.74143 3.41514 2.84043L4.63915 3.18624C5.84992 3.52832 7.10435 2.80408 7.41351 1.58445L7.72602 0.351552C7.81548 -0.00139301 8.25716 -0.119729 8.5111 0.141177L9.39819 1.05263C10.2757 1.95424 11.7242 1.95424 12.6018 1.05263Z" fill="#FFE177"/>
<path d="M20.9473 9.39813L21.8588 8.51104C22.1197 8.25709 22.0013 7.81542 21.6484 7.72596L20.4155 7.41344C19.1959 7.10428 18.4717 5.84985 18.8137 4.63908L19.1596 3.41507C19.2586 3.06471 18.9352 2.74137 18.5848 2.84037L17.3608 3.18618C17.2077 3.22945 17.0538 3.25553 16.9012 3.26584C17.5942 4.63882 17.985 6.19038 17.985 7.83338C17.985 13.426 13.426 17.985 7.83338 17.985C6.19038 17.985 4.63882 17.5942 3.26584 16.9012C3.25553 17.0537 3.22945 17.2076 3.18618 17.3608L2.84037 18.5848C2.74137 18.9352 3.06471 19.2585 3.41507 19.1595L4.63908 18.8137C5.84985 18.4716 7.10428 19.1959 7.41344 20.4155L7.72596 21.6484C7.81542 22.0013 8.25709 22.1197 8.51104 21.8588L9.39813 20.9473C10.2757 20.0457 11.7242 20.0457 12.6017 20.9473L13.4888 21.8588C13.7427 22.1197 14.1844 22.0013 14.2738 21.6484L14.5863 20.4155C14.8955 19.1959 16.1499 18.4716 17.3607 18.8137L18.5847 19.1595C18.9351 19.2585 19.2584 18.9352 19.1594 18.5848L18.8136 17.3608C18.4715 16.15 19.1958 14.8956 20.4154 14.5864L21.6483 14.2739C22.0012 14.1845 22.1195 13.7428 21.8586 13.4888L20.9472 12.6017C20.0457 11.7242 20.0457 10.2757 20.9473 9.39813Z" fill="#FFD15B"/>
<path d="M20.9473 9.39813L21.8588 8.51104C22.1197 8.25709 22.0013 7.81542 21.6484 7.72596L20.4155 7.41344C19.1959 7.10428 18.4717 5.84985 18.8137 4.63908L19.1596 3.41507C19.2586 3.06471 18.9352 2.74137 18.5848 2.84037L17.3608 3.18618C17.2077 3.22945 17.0538 3.25553 16.9012 3.26584C17.5942 4.63882 17.985 6.19038 17.985 7.83338C17.985 13.426 13.426 17.985 7.83338 17.985C6.19038 17.985 4.63882 17.5942 3.26584 16.9012C3.25553 17.0537 3.22945 17.2076 3.18618 17.3608L2.84037 18.5848C2.74137 18.9352 3.06471 19.2585 3.41507 19.1595L4.63908 18.8137C5.84985 18.4716 7.10428 19.1959 7.41344 20.4155L7.72596 21.6484C7.81542 22.0013 8.25709 22.1197 8.51104 21.8588L9.39813 20.9473C10.2757 20.0457 11.7242 20.0457 12.6017 20.9473L13.4888 21.8588C13.7427 22.1197 14.1844 22.0013 14.2738 21.6484L14.5863 20.4155C14.8955 19.1959 16.1499 18.4716 17.3607 18.8137L18.5847 19.1595C18.9351 19.2585 19.2584 18.9352 19.1594 18.5848L18.8136 17.3608C18.4715 16.15 19.1958 14.8956 20.4154 14.5864L21.6483 14.2739C22.0012 14.1845 22.1195 13.7428 21.8586 13.4888L20.9472 12.6017C20.0457 11.7242 20.0457 10.2757 20.9473 9.39813Z" fill="#FFD15B"/>
<path d="M10.9999 18.4505C15.1148 18.4505 18.4505 15.1148 18.4505 10.9999C18.4505 6.88507 15.1148 3.54932 10.9999 3.54932C6.88507 3.54932 3.54932 6.88507 3.54932 10.9999C3.54932 15.1148 6.88507 18.4505 10.9999 18.4505Z" fill="#FFC344"/>
<path d="M15.4651 5.03491C16.398 6.27924 16.9507 7.82496 16.9507 9.49984C16.9507 13.6147 13.6149 16.9504 9.50008 16.9504C7.8252 16.9504 6.27949 16.3977 5.03516 15.4648C6.39421 17.2776 8.56018 18.4505 11.0002 18.4505C15.115 18.4505 18.4508 15.1148 18.4508 10.9999C18.4508 8.55994 17.2778 6.39397 15.4651 5.03491Z" fill="#FEB237"/>
</g>
<defs>
<clipPath id="clip0_100_5444">
<rect width="22" height="22" fill="white"/>
</clipPath>
</defs>
</svg>
