<svg width="50" height="50" viewBox="0 0 50 50" fill="none" xmlns="http://www.w3.org/2000/svg">
<path d="M49.1957 26.8203C49.273 28.6663 48.6149 30.4675 47.3657 31.8289C46.1166 33.1902 44.3785 34.0005 42.5326 34.082C42.4247 34.087 42.317 34.0895 42.2094 34.0895C41.719 34.0892 41.23 34.0361 40.7509 33.9312C39.3294 36.126 37.4654 37.9999 35.2783 39.4331C33.0911 40.8663 30.6288 41.8273 28.049 42.2544C27.7439 43.1509 27.1352 43.9125 26.328 44.4077C25.5209 44.9029 24.5661 45.1006 23.6287 44.9665C22.6913 44.8324 21.8303 44.375 21.1943 43.6734C20.5584 42.9717 20.1876 42.07 20.146 41.124C20.1044 40.1779 20.3947 39.2471 20.9666 38.4924C21.5385 37.7377 22.3561 37.2065 23.2781 36.9907C24.2001 36.7748 25.1686 36.8879 26.016 37.3104C26.8635 37.7329 27.5367 38.4382 27.9194 39.3043C31.5514 38.6326 34.8325 36.7077 37.1909 33.8651C39.5493 31.0224 40.8354 27.4424 40.8251 23.7488C40.8251 15.0227 33.726 7.92358 24.9999 7.92358C16.2739 7.92358 9.17473 15.0227 9.17473 23.7488C9.17426 26.447 9.86384 29.1006 11.178 31.4572C11.2225 31.535 11.2559 31.6186 11.2773 31.7056C11.4042 32.0584 11.3906 32.4465 11.2394 32.7896C11.0881 33.1326 10.8107 33.4044 10.4647 33.5487C9.61726 33.9053 8.70711 34.089 7.78772 34.0888C7.67951 34.0888 7.57108 34.0863 7.46242 34.0813C5.61739 33.9988 3.88035 33.1881 2.6322 31.8268C1.38404 30.4655 0.726632 28.6648 0.804124 26.8196C0.835277 26.0837 0.817894 25.4272 0.800902 24.7923C0.785081 24.1946 0.768577 23.5764 0.795726 22.9314C0.876749 21.1297 1.65177 19.4292 2.95847 18.1861C4.26517 16.9431 6.00218 16.2538 7.80569 16.2627C10.7018 9.63657 17.3183 4.9939 24.9999 4.9939C32.6816 4.9939 39.2982 9.63657 42.1943 16.2628C43.9979 16.2526 45.7355 16.9412 47.0424 18.1843C48.3494 19.4274 49.1241 21.1284 49.204 22.9303C49.2313 23.5763 49.2149 24.1944 49.1989 24.7921C49.1821 25.4271 49.1646 26.0839 49.1957 26.8203ZM37.2856 23.7488C37.2849 25.631 36.8519 27.4878 36.02 29.1762C35.1881 30.8645 33.9796 32.3393 32.4876 33.4867C30.9956 34.6341 29.26 35.4235 27.4147 35.794C25.5693 36.1646 23.6635 36.1063 21.8443 35.6238L16.8715 38.4956C16.6206 38.6405 16.3324 38.7077 16.0432 38.6888C15.7541 38.6698 15.4771 38.5656 15.2472 38.3892C15.0174 38.2128 14.845 37.9722 14.7518 37.6979C14.6587 37.4235 14.649 37.1277 14.724 36.8478L15.9949 32.1068C13.8903 29.8319 12.7192 26.848 12.7148 23.7488C12.7148 16.9726 18.2256 11.4603 24.9999 11.4603C31.7742 11.4603 37.2856 16.9726 37.2856 23.7488ZM21.5844 23.7488C21.5844 23.3603 21.4301 22.9877 21.1554 22.713C20.8806 22.4383 20.5081 22.2839 20.1196 22.2839H20.1171C19.8275 22.2845 19.5446 22.3708 19.304 22.5321C19.0635 22.6934 18.8762 22.9224 18.7657 23.1901C18.6553 23.4578 18.6267 23.7523 18.6835 24.0362C18.7403 24.3202 18.88 24.581 19.085 24.7855C19.29 24.9901 19.551 25.1294 19.8351 25.1857C20.1192 25.242 20.4135 25.2128 20.681 25.1019C20.9486 24.9909 21.1772 24.8032 21.338 24.5623C21.4988 24.3215 21.5847 24.0384 21.5847 23.7488H21.5844ZM26.4651 23.7488C26.4649 23.7008 26.4623 23.6529 26.4573 23.6052C26.4526 23.5574 26.4455 23.5098 26.4359 23.4626C26.4271 23.4157 26.4153 23.3694 26.4006 23.324C26.387 23.2781 26.3704 23.2332 26.3529 23.1882C26.3353 23.1433 26.3138 23.1013 26.2913 23.0593C26.269 23.0171 26.2446 22.976 26.2181 22.9363C26.1914 22.8961 26.1627 22.8573 26.1321 22.8201C26.102 22.7827 26.0697 22.7472 26.0355 22.7136C26.0023 22.6794 25.9661 22.6472 25.929 22.616C25.8918 22.5867 25.8528 22.5574 25.8127 22.531C25.773 22.5045 25.732 22.4801 25.6898 22.4578C25.6477 22.4353 25.6038 22.4148 25.5598 22.3962C25.5158 22.3778 25.4709 22.3619 25.4251 22.3484C25.3338 22.3191 25.2394 22.3001 25.1439 22.2917C25.0004 22.2779 24.8557 22.2848 24.7142 22.3123C24.6671 22.3219 24.6205 22.3339 24.5746 22.3484C24.5289 22.3618 24.4839 22.3778 24.4399 22.3962C24.3959 22.4148 24.352 22.4353 24.31 22.4578C24.268 22.4802 24.227 22.5046 24.1868 22.531C24.1467 22.5574 24.1077 22.5867 24.0717 22.616C24.0336 22.6472 23.9985 22.6794 23.9643 22.7136C23.93 22.7472 23.8977 22.7828 23.8675 22.8201C23.8373 22.8573 23.8089 22.8961 23.7826 22.9363C23.7558 22.976 23.731 23.0171 23.7084 23.0593C23.6859 23.1012 23.6656 23.1442 23.6478 23.1882C23.6292 23.2326 23.6129 23.2779 23.5989 23.324C23.5854 23.3689 23.5737 23.4158 23.5639 23.4626C23.5542 23.5098 23.547 23.5574 23.5423 23.6052C23.5375 23.6531 23.5355 23.7009 23.5355 23.7488C23.5355 23.7966 23.5375 23.8455 23.5423 23.8933C23.5471 23.9408 23.5543 23.9881 23.5639 24.0349C23.5737 24.0818 23.5854 24.1287 23.5989 24.1746C23.6129 24.2203 23.6292 24.2653 23.6478 24.3093C23.6656 24.3537 23.6859 24.397 23.7084 24.4392C23.7308 24.4812 23.7563 24.5222 23.7826 24.5623C23.8089 24.6021 23.8373 24.6406 23.8675 24.6775C23.8979 24.7149 23.9302 24.7508 23.9643 24.7849C23.9985 24.8181 24.0336 24.8513 24.0717 24.8816C24.1084 24.9121 24.1469 24.9405 24.1868 24.9666C24.227 24.9929 24.2679 25.0183 24.31 25.0408C24.3948 25.085 24.4834 25.1216 24.5746 25.1501C24.6204 25.1638 24.6673 25.1755 24.7142 25.1853C24.8083 25.2046 24.9042 25.2141 25.0003 25.2136C25.3884 25.2126 25.7603 25.0585 26.0355 24.7849C26.103 24.7164 26.1641 24.6419 26.2181 24.5623C26.2445 24.5222 26.2689 24.4812 26.2913 24.4392C26.3138 24.3972 26.3343 24.3533 26.3529 24.3093C26.3714 24.2654 26.387 24.2195 26.4006 24.1746C26.4152 24.1288 26.427 24.0821 26.4359 24.0349C26.4454 23.9881 26.4526 23.9408 26.4573 23.8933C26.4622 23.8452 26.4648 23.7969 26.4648 23.7486L26.4651 23.7488ZM31.3479 23.7488C31.3479 23.3603 31.1935 22.9877 30.9188 22.713C30.6441 22.4383 30.2715 22.2839 29.883 22.2839H29.8802C29.5906 22.2845 29.3077 22.3709 29.0672 22.5322C28.8266 22.6935 28.6393 22.9225 28.5289 23.1902C28.4184 23.4579 28.3898 23.7523 28.4467 24.0363C28.5035 24.3203 28.6433 24.581 28.8482 24.7856C29.0532 24.9902 29.3142 25.1294 29.5983 25.1857C29.8824 25.242 30.1768 25.2128 30.4443 25.1018C30.7118 24.9909 30.9404 24.8031 31.1012 24.5623C31.262 24.3215 31.3479 24.0384 31.3479 23.7488Z" fill="#D9B27A"/>
</svg>
