<svg width="50" height="50" viewBox="0 0 50 50" fill="none" xmlns="http://www.w3.org/2000/svg">
<path d="M35.4165 2.07971H6.24984C5.28432 2.08431 4.35966 2.4699 3.67693 3.15264C2.9942 3.83537 2.60861 4.76003 2.604 5.72555V43.2255C2.60861 44.1911 2.9942 45.1157 3.67693 45.7985C4.35966 46.4812 5.28432 46.8668 6.24984 46.8714H37.4998C37.7287 46.8714 37.9582 46.8714 38.1875 46.8505C38.2121 46.8258 38.2402 46.8047 38.2708 46.788C38.6514 45.7462 38.9032 44.6618 39.0207 43.5589C38.5234 43.684 38.0126 43.747 37.4998 43.7464C35.7041 43.7464 33.9819 43.033 32.7121 41.7633C31.4424 40.4935 30.729 38.7713 30.729 36.9755C30.729 35.1798 31.4424 33.4576 32.7121 32.1878C33.9819 30.9181 35.7041 30.2047 37.4998 30.2047C38.0264 30.2029 38.5512 30.2659 39.0623 30.3922V5.72555C39.0577 4.76003 38.6721 3.83537 37.9894 3.15264C37.3067 2.4699 36.382 2.08431 35.4165 2.07971ZM11.4582 10.413H30.2082C30.6226 10.413 31.02 10.5777 31.313 10.8707C31.6061 11.1637 31.7707 11.5611 31.7707 11.9755C31.7707 12.3899 31.6061 12.7874 31.313 13.0804C31.02 13.3734 30.6226 13.538 30.2082 13.538H11.4582C11.0438 13.538 10.6463 13.3734 10.3533 13.0804C10.0603 12.7874 9.89567 12.3899 9.89567 11.9755C9.89567 11.5611 10.0603 11.1637 10.3533 10.8707C10.6463 10.5777 11.0438 10.413 11.4582 10.413ZM11.4582 18.7464H30.2082C30.6226 18.7464 31.02 18.911 31.313 19.204C31.6061 19.4971 31.7707 19.8945 31.7707 20.3089C31.7707 20.7233 31.6061 21.1207 31.313 21.4137C31.02 21.7068 30.6226 21.8714 30.2082 21.8714H11.4582C11.0438 21.8714 10.6463 21.7068 10.3533 21.4137C10.0603 21.1207 9.89567 20.7233 9.89567 20.3089C9.89567 19.8945 10.0603 19.4971 10.3533 19.204C10.6463 18.911 11.0438 18.7464 11.4582 18.7464ZM22.9165 38.538H11.4582C11.0438 38.538 10.6463 38.3734 10.3533 38.0804C10.0603 37.7874 9.89567 37.3899 9.89567 36.9755C9.89567 36.5611 10.0603 36.1637 10.3533 35.8707C10.6463 35.5777 11.0438 35.413 11.4582 35.413H22.9165C23.3309 35.413 23.7283 35.5777 24.0214 35.8707C24.3144 36.1637 24.479 36.5611 24.479 36.9755C24.479 37.3899 24.3144 37.7874 24.0214 38.0804C23.7283 38.3734 23.3309 38.538 22.9165 38.538ZM24.9998 30.2047H11.4582C11.0438 30.2047 10.6463 30.0401 10.3533 29.7471C10.0603 29.454 9.89567 29.0566 9.89567 28.6422C9.89567 28.2278 10.0603 27.8304 10.3533 27.5374C10.6463 27.2443 11.0438 27.0797 11.4582 27.0797H24.9998C25.4142 27.0797 25.8117 27.2443 26.1047 27.5374C26.3977 27.8304 26.5623 28.2278 26.5623 28.6422C26.5623 29.0566 26.3977 29.454 26.1047 29.7471C25.8117 30.0401 25.4142 30.2047 24.9998 30.2047Z" fill="#D9B27A"/>
<path d="M39.0623 27.2047C37.7683 26.9978 36.4461 27.0499 35.1724 27.358C33.8988 27.6661 32.6989 28.2241 31.6426 28.9995C30.5862 29.775 29.6944 30.7525 29.0188 31.8753C28.3432 32.9981 27.8973 34.244 27.707 35.5405C27.5167 36.837 27.5857 38.1584 27.9101 39.4281C28.2345 40.6977 28.8078 41.8903 29.5967 42.9366C30.3856 43.9829 31.3744 44.8622 32.5058 45.5233C33.6372 46.1845 34.8887 46.6144 36.1875 46.7881C36.6224 46.8469 37.0609 46.8748 37.4998 46.8714C37.7287 46.8714 37.9581 46.8714 38.1874 46.8506C40.6112 46.6815 42.8881 45.6267 44.5844 43.8872C46.2807 42.1477 47.2779 39.845 47.3859 37.4178C47.494 34.9905 46.7055 32.6083 45.1705 30.7249C43.6356 28.8415 41.4614 27.5886 39.0623 27.2047ZM39.0206 43.5589C38.5234 43.684 38.0125 43.747 37.4998 43.7464C35.704 43.7464 33.9819 43.033 32.7121 41.7633C31.4423 40.4935 30.7289 38.7713 30.7289 36.9756C30.7289 35.1798 31.4423 33.4576 32.7121 32.1879C33.9819 30.9181 35.704 30.2047 37.4998 30.2047C38.0263 30.2029 38.5511 30.2659 39.0623 30.3922C40.5483 30.7423 41.8719 31.5853 42.8177 32.7837C43.7635 33.9821 44.2757 35.4654 44.2709 36.9921C44.2661 38.5188 43.7445 39.9988 42.7911 41.1913C41.8378 42.3837 40.5088 43.2182 39.0206 43.5589Z" fill="#D9B27A"/>
<path d="M36.4583 40.6213C36.2531 40.6216 36.0498 40.5813 35.8602 40.5027C35.6706 40.4242 35.4985 40.3089 35.3536 40.1636L33.2702 38.0802C33.1243 37.9354 33.0084 37.7631 32.9292 37.5733C32.8499 37.3835 32.809 37.18 32.8086 36.9743C32.8082 36.7687 32.8485 36.565 32.927 36.3749C33.0055 36.1849 33.1208 36.0122 33.2662 35.8667C33.4116 35.7213 33.5843 35.6061 33.7744 35.5275C33.9644 35.449 34.1681 35.4088 34.3738 35.4092C34.5794 35.4095 34.783 35.4505 34.9727 35.5297C35.1625 35.6089 35.3348 35.7248 35.4797 35.8708L36.4583 36.8494L39.5202 33.7874C39.8136 33.4962 40.2104 33.3331 40.6238 33.3339C41.0371 33.3346 41.4334 33.4992 41.7257 33.7915C42.018 34.0838 42.1825 34.48 42.1833 34.8934C42.184 35.3067 42.0209 35.7035 41.7297 35.9969L37.563 40.1636C37.4181 40.3089 37.2459 40.4242 37.0563 40.5027C36.8667 40.5813 36.6635 40.6216 36.4583 40.6213Z" fill="#D9B27A"/>
</svg>
