<?xml version="1.0" encoding="utf-8"?>
<!-- Generator: Adobe Illustrator 25.4.1, SVG Export Plug-In . SVG Version: 6.00 Build 0)  -->
<!DOCTYPE svg PUBLIC "-//W3C//DTD SVG 1.1//EN" "http://www.w3.org/Graphics/SVG/1.1/DTD/svg11.dtd" [
	<!ENTITY ns_extend "http://ns.adobe.com/Extensibility/1.0/">
	<!ENTITY ns_ai "http://ns.adobe.com/AdobeIllustrator/10.0/">
	<!ENTITY ns_graphs "http://ns.adobe.com/Graphs/1.0/">
	<!ENTITY ns_vars "http://ns.adobe.com/Variables/1.0/">
	<!ENTITY ns_imrep "http://ns.adobe.com/ImageReplacement/1.0/">
	<!ENTITY ns_sfw "http://ns.adobe.com/SaveForWeb/1.0/">
	<!ENTITY ns_custom "http://ns.adobe.com/GenericCustomNamespace/1.0/">
	<!ENTITY ns_adobe_xpath "http://ns.adobe.com/XPath/1.0/">
]>
<svg version="1.1" id="Layer_1" xmlns:x="&ns_extend;" xmlns:i="&ns_ai;" xmlns:graph="&ns_graphs;"
	 xmlns="http://www.w3.org/2000/svg" xmlns:xlink="http://www.w3.org/1999/xlink" x="0px" y="0px" viewBox="0 0 183 183"
	 style="enable-background:new 0 0 183 183;" xml:space="preserve">
<style type="text/css">
	.st0{fill:#FFFFFF;}
	.st1{fill:none;stroke:url(#SVGID_1_);stroke-width:2;}
	.st2{fill:url(#SVGID_00000182500888469986148560000004288543584156317601_);}
	.st3{fill:url(#SVGID_00000149374639530958419260000000560279135739191169_);}
	.st4{fill:url(#SVGID_00000081634340705671174930000014375159401756963238_);}
	.st5{fill:url(#SVGID_00000129891753285859784580000007221573994812437166_);}
	.st6{fill:url(#SVGID_00000129917885732866032700000010656084029887019685_);}
	.st7{fill:url(#SVGID_00000086664109524444534090000009718585778812609428_);}
	.st8{fill:url(#SVGID_00000115502525249975394900000001853770831869235588_);}
	.st9{fill:url(#SVGID_00000137124993345258633810000003544971982811449777_);}
	.st10{fill:url(#SVGID_00000052789334234978301420000017781026520447240854_);}
	.st11{fill:url(#SVGID_00000068639300690988123650000009370631821271411636_);}
	.st12{fill:url(#SVGID_00000061430117313253000530000017630699720019797394_);}
	.st13{fill:url(#SVGID_00000122693331966527708440000014171885550703559102_);}
	.st14{fill:url(#SVGID_00000099660159921981445890000009062119541311367856_);}
	.st15{fill:url(#SVGID_00000134214002730225723840000005787556168568812193_);}
	.st16{fill:url(#SVGID_00000044895924350497576580000002504797947549759139_);}
	.st17{fill:url(#SVGID_00000001661624041267099090000002522870181304156809_);}
</style>
<metadata>
	<sfw  xmlns="&ns_sfw;">
		<slices></slices>
		<sliceSourceBounds  bottomLeftOrigin="true" height="160.7" width="160.7" x="11.2" y="11.2"></sliceSourceBounds>
	</sfw>
</metadata>
<circle class="st0" cx="91.5" cy="91.5" r="79.3"/>
<g>
	
		<linearGradient id="SVGID_1_" gradientUnits="userSpaceOnUse" x1="91.5" y1="170.8255" x2="91.5" y2="14.1748" gradientTransform="matrix(1 0 0 -1 0 184)">
		<stop  offset="0" style="stop-color:#4C3928"/>
		<stop  offset="1" style="stop-color:#C19A6F"/>
	</linearGradient>
	<circle class="st1" cx="91.5" cy="91.5" r="79.3"/>
	
		<linearGradient id="SVGID_00000145056508222529751460000009351410825148082058_" gradientUnits="userSpaceOnUse" x1="53.7712" y1="89.7311" x2="152.1077" y2="89.7311" gradientTransform="matrix(1 0 0 -1 0 184)">
		<stop  offset="9.000000e-02" style="stop-color:#C49D70"/>
		<stop  offset="0.61" style="stop-color:#6F4C33"/>
		<stop  offset="1" style="stop-color:#4A2E1E"/>
	</linearGradient>
	<path style="fill:url(#SVGID_00000145056508222529751460000009351410825148082058_);" d="M151.8,92.6c-0.2-1.6-0.5-3.3-0.9-5
		c-0.4-1.7-1-3.5-1.8-5.5c-0.7-1.9-1.7-4-2.8-6.2c-1.3-2.5-2.8-5.1-4.5-7.8c-1.7-2.7-3.5-5.4-5.3-8.2c-1.8-2.8-3.7-5.6-5.5-8.5
		c-1.8-2.8-3.5-5.6-5-8.5c-0.1-0.2-0.1-0.4-0.2-0.5c-0.2-0.4-0.3-0.6-0.5-0.6c-0.1,0-0.3,0.2-0.5,0.5c0,0.1-0.2,0.5-0.4,1.1
		c-0.2,0.6-0.4,1.2-0.7,1.9c-0.2,0.7-0.5,1.3-0.7,1.9c-0.2,0.6-0.3,0.9-0.3,1.1c0.2,0.4,0.4,0.7,0.5,1c0.1,0.3,0.2,0.6,0.3,1.1
		c0.1,0.4,0.2,0.9,0.2,1.5c0.1,0.6,0.1,1.3,0.1,2.2c0,1.2,0.1,3.1,0.2,5.8c0.1,2.6,0.3,5.7,0.6,9c0.3,3.4,0.5,6.9,0.8,10.6
		c0.3,3.7,0.5,7.2,0.8,10.5c0.2,3.3,0.4,6.2,0.6,8.8c0.1,2.6,0.2,4.4,0.2,5.4c0,1.1,0,2,0,2.7c0,0.7-0.1,1.3-0.1,1.7
		c-0.1,0.4-0.2,0.7-0.3,0.9c-0.1,0.2-0.3,0.4-0.5,0.5c-1,0.8-2,1.4-3.1,1.9c-1.1,0.5-2.3,0.8-3.7,0.8c0,0,0,0,0,0
		c-0.8,0-1.5-0.1-2.1-0.1c-0.6-0.1-1.2-0.3-1.8-0.5c-0.6-0.2-1.1-0.6-1.6-1c-0.5-0.4-1.1-0.9-1.7-1.5c0.6-0.7,1.2-1.4,1.7-2.2
		c0.5-0.8,1-1.7,1.3-2.7c0.4-1,0.7-2.1,0.9-3.2c0.2-1.1,0.3-2.4,0.3-3.7c0-0.8-0.2-1.8-0.5-3c-0.3-1.2-0.8-2.3-1.4-3.4
		c-0.6-1.1-1.2-2-2-2.8c-0.8-0.8-1.6-1.1-2.4-1.1c-0.9,0-1.7,0.3-2.4,0.9c-0.7,0.6-1.4,1.4-1.9,2.5c-0.5,1.1-0.9,2.3-1.2,3.8
		c-0.3,1.5-0.4,3.1-0.4,5c0,1.3,0.1,2.6,0.4,3.8c0.2,1.2,0.5,2.3,0.9,3.3l-5.9,2.5c0,0,0,0,0,0l-0.1,0c-0.3,0.1-0.4,0.1-0.5,0.1
		h-0.2c-0.5-1.2-1.1-2.3-1.9-3.4c-0.7-1.1-1.5-2.1-2.3-3c-0.8-0.8-1.6-1.5-2.4-2c-0.8-0.5-1.6-0.8-2.5-0.8c-0.9,0-1.9,0.3-2.9,0.8
		c-1,0.6-1.9,1.3-2.8,2.3c-0.8,1-1.5,2.2-2.1,3.5c-0.5,1.4-0.8,2.8-0.8,4.5c0,1.3,0.2,2.3,0.7,3c0.5,0.8,1.1,1.4,1.9,1.8
		c0.8,0.4,1.7,0.7,2.7,0.9c1,0.1,2.1,0.2,3.2,0.2c1.8,0,3.3-0.1,4.3-0.3c1-0.2,1.7-0.3,1.9-0.4c0.1,0.2,0.2,0.6,0.3,1.1
		c0.1,0.5,0.1,0.9,0.1,1.4c0,0.5-0.5,1.3-1.4,2.5c-0.9,1.2-2.2,2.5-3.7,4c-1.6,1.5-3.4,3.1-5.4,4.7c-2,1.6-4.2,3.1-6.4,4.4
		c-2.2,1.3-4.5,2.4-6.7,3.3c-2.3,0.9-4.4,1.3-6.3,1.3c-2.3,0-4.2-0.4-5.7-1.1c-1.4-0.8-2.5-1.7-3.3-2.7c-0.8-1.1-1.3-2.1-1.5-3.3
		c-0.3-1.2-0.4-2.2-0.4-3.1c0-0.8,0.1-1.7,0.3-2.9c0.2-1.1,0.4-2.3,0.6-3.5c0.2-1.2,0.5-2.3,0.8-3.3c0.3-1,0.5-1.8,0.6-2.3
		c0.3-1.2,0.4-1.9,0.2-2c-0.2-0.1-0.6,0.5-1.1,1.7c-0.1,0.4-0.4,1.1-0.8,2s-0.7,2.1-1.1,3.5c-0.4,1.4-0.7,2.9-0.9,4.6
		c-0.3,1.7-0.4,3.5-0.4,5.4c0,1.8,0.2,3.6,0.7,5.2c0.5,1.7,1.2,3.2,2.2,4.6c1,1.3,2.2,2.4,3.8,3.2c1.5,0.8,3.4,1.2,5.5,1.2
		c1.8,0,3.7-0.3,5.6-1c1.9-0.7,3.8-1.5,5.6-2.6c1.9-1.1,3.7-2.3,5.4-3.7c1.8-1.4,3.4-2.7,4.9-4.1c1.5-1.4,2.9-2.7,4-3.9
		c1.2-1.3,2.2-2.3,3-3.2c0.9-1,1.6-2.1,2.2-3.4c0.6-1.2,1.1-2.4,1.4-3.5c0.4-1.1,0.6-2.1,0.8-3.1c0.2-0.9,0.3-1.7,0.3-2.1l0.1-0.1
		c0.1,0,0.1,0,0.2-0.1c1.3-0.6,2.7-1.1,4-1.7c1.3-0.6,2.7-1.1,4-1.7c0.6,1,1.1,1.8,1.8,2.4c0.6,0.6,1.2,1.2,1.8,1.7
		c1.6,1.3,3.1,2.3,4.5,2.8c1.4,0.5,2.6,0.8,3.8,0.8c0,0,0,0,0,0c1.3,0,2.6-0.4,3.9-1.2c1.3-0.8,2.6-2.1,3.7-3.9c1.1-1.8,2-4,2.7-6.8
		c0.7-2.8,1.1-6,1.1-9.8c0-1-0.1-2.7-0.2-5.1c-0.1-2.4-0.3-5.1-0.5-8.1c-0.2-3-0.4-6.2-0.7-9.4c-0.2-3.3-0.5-6.3-0.7-9
		c-0.2-2.7-0.4-5.1-0.5-7c-0.1-0.9-0.1-1.6-0.2-2.2c1.2,2,2.5,3.9,3.8,5.8c1.6,2.3,3.2,4.6,4.9,6.9c1.7,2.3,3.3,4.9,4.9,7.6
		c1.3,2.1,2.4,4.2,3.3,6c0.9,1.9,1.7,3.6,2.3,5.3c0.6,1.7,1.1,3.3,1.4,4.8c0.3,1.5,0.5,3,0.5,4.3c0,1.9-0.3,3.8-1,5.6
		c-0.7,1.9-1.6,3.7-2.7,5.4c-1.1,1.7-2.3,3.4-3.7,4.9c-1.4,1.5-2.7,3-4,4.2s-2.6,2.4-3.7,3.4c-1.1,1-2,1.8-2.7,2.4
		c-1.8,1.6-2.5,2.5-2.2,2.6c0.3,0.2,1.4-0.4,3.3-1.7c1.2-0.8,2.5-1.8,3.9-2.8c1.4-1.1,2.9-2.3,4.3-3.6c1.5-1.3,2.9-2.8,4.2-4.4
		c1.4-1.6,2.6-3.3,3.7-5.1c1.1-1.8,1.9-3.7,2.6-5.7c0.6-2,1-4.1,1-6.3C152.1,95.8,152,94.2,151.8,92.6L151.8,92.6z M86.9,110.4
		c-1.4-0.4-2.1-1.1-2.1-1.8c0-0.4,0.3-0.8,0.8-1.2c0.6-0.3,1.3-0.5,2.4-0.5c0.8,0,1.7,0.3,2.5,1.1c0.8,0.7,1.6,1.5,2.3,2.3
		C90.2,110.8,88.3,110.9,86.9,110.4z M110.1,104.6c-0.7,0.4-1.2,0.7-1.5,0.8c-0.1-0.2-0.4-0.6-0.7-1.2c-0.3-0.6-0.6-1.2-0.9-1.9
		c-0.3-0.7-0.6-1.4-0.8-2.1c-0.2-0.7-0.4-1.2-0.4-1.6c0-0.4,0.1-0.8,0.3-1.3c0.2-0.5,0.5-0.9,0.8-1.3c0.3-0.4,0.7-0.7,1.1-1
		c0.4-0.3,0.8-0.4,1.2-0.4c0.5,0,1.1,0.3,1.7,0.8c0.6,0.5,1.2,1.2,1.8,1.9c0.5,0.7,1,1.4,1.3,2.2c0.4,0.7,0.5,1.2,0.5,1.5
		c0,0.3-0.2,0.6-0.7,1c-0.5,0.4-1,0.8-1.7,1.3C111.4,103.8,110.8,104.2,110.1,104.6L110.1,104.6z"/>
	
		<linearGradient id="SVGID_00000000181297029804804990000000293292908222191537_" gradientUnits="userSpaceOnUse" x1="99.6081" y1="103.2734" x2="108.9257" y2="103.2734" gradientTransform="matrix(1 0 0 -1 0 184)">
		<stop  offset="9.000000e-02" style="stop-color:#C49D70"/>
		<stop  offset="0.61" style="stop-color:#6F4C33"/>
		<stop  offset="1" style="stop-color:#4A2E1E"/>
	</linearGradient>
	<path style="fill:url(#SVGID_00000000181297029804804990000000293292908222191537_);" d="M107.6,78.6c-0.4-0.3-0.8-0.7-1.2-1
		c-0.4-0.4-0.9-0.7-1.3-1c-0.4-0.3-0.8-0.6-1.1-0.8c-0.3-0.2-0.5-0.3-0.6-0.3c-0.2,0-0.3,0.1-0.5,0.4l-3.3,5.3
		c-0.1,0.2-0.1,0.3,0,0.4c0.2,0.1,0.5,0.4,1,0.8c0.5,0.4,1,0.9,1.6,1.3c0.6,0.5,1.1,0.9,1.6,1.3c0.5,0.4,0.8,0.7,1,0.8
		c0.2,0.2,0.4,0.1,0.6-0.2c0.2-0.3,0.5-0.7,0.8-1.2c0.3-0.5,0.6-1,0.9-1.5c0.3-0.5,1.1-1.7,1.3-2.2c0.2-0.4,0.3-0.7,0.3-0.8
		c0-0.1-0.1-0.2-0.3-0.5C108.3,79.3,108,79,107.6,78.6z"/>
	
		<linearGradient id="SVGID_00000162339811720358934510000013688517375887088819_" gradientUnits="userSpaceOnUse" x1="108.6461" y1="104.5649" x2="117.9681" y2="104.5649" gradientTransform="matrix(1 0 0 -1 0 184)">
		<stop  offset="9.000000e-02" style="stop-color:#C49D70"/>
		<stop  offset="0.61" style="stop-color:#6F4C33"/>
		<stop  offset="1" style="stop-color:#4A2E1E"/>
	</linearGradient>
	<path style="fill:url(#SVGID_00000162339811720358934510000013688517375887088819_);" d="M117.6,78.2c-0.3-0.2-0.6-0.5-0.9-0.9
		c-0.4-0.3-0.8-0.7-1.2-1c-0.4-0.4-0.9-0.7-1.3-1c-0.4-0.3-0.8-0.6-1.1-0.8c-0.3-0.2-0.5-0.3-0.6-0.3c-0.2,0-0.3,0.1-0.5,0.4
		l-3.3,5.3c-0.1,0.2-0.1,0.3,0,0.4c0.2,0.1,0.5,0.4,1,0.8c0.5,0.4,1,0.9,1.6,1.3c0.6,0.5,1.1,0.9,1.6,1.3c0.5,0.4,0.8,0.7,1,0.8
		c0.2,0.2,0.4,0.1,0.6-0.2c0.2-0.3,0.5-0.7,0.8-1.2c0.3-0.5,0.6-1,0.9-1.5c0.3-0.5,1.1-1.7,1.3-2.2c0.2-0.4,0.3-0.7,0.3-0.8
		C118,78.7,117.8,78.5,117.6,78.2L117.6,78.2z"/>
	
		<linearGradient id="SVGID_00000031195489528241131140000016611482956814417078_" gradientUnits="userSpaceOnUse" x1="32.4665" y1="107.7856" x2="114.5277" y2="107.7856" gradientTransform="matrix(1 0 0 -1 0 184)">
		<stop  offset="0" style="stop-color:#6F4C33"/>
		<stop  offset="0.48" style="stop-color:#C0996E"/>
		<stop  offset="0.89" style="stop-color:#C49D70"/>
		<stop  offset="1" style="stop-color:#6F4C33"/>
	</linearGradient>
	<path style="fill:url(#SVGID_00000031195489528241131140000016611482956814417078_);" d="M114,57.5c-0.4-0.8-0.7-1.4-1-1.8
		c-0.4-0.5-0.7-0.7-0.9-0.7c0,0,0,0,0,0c-0.1,0.2-0.1,0.4-0.2,0.6c-0.2,0.6-0.3,1.1-0.4,1.7c-0.2,0.6-0.4,1.2-0.6,1.7
		c-0.2,0.5-0.4,1.1-0.4,1.7c0,0.5,0.4,1,0.7,1.5c0.1,0.2,0.3,0.4,0.4,0.6c0.1,0.2,0.3,0.4,0.3,0.6c0.1,0.3-0.2,0.7-0.4,0.9
		c-0.3,0.3-0.5,0.6-0.8,0.8c-0.1,0.1-0.3,0.2-0.5,0.3c-0.2,0.1-0.5,0.3-0.7,0.3c-0.5,0.1-1,0.2-1.5,0.2c-0.5,0-1.1-0.1-1.6-0.2
		c-0.9-0.3-1.5-1-1.7-1.3c0,0-0.5-0.7-0.8-1.8c-0.1-0.3-0.1-0.7-0.1-0.7c0-0.2,0-0.3,0-0.4c0-0.4,0-0.7,0-1.1c0-0.1,0-0.3,0.1-0.3
		c0.1-0.3,0.1-0.6,0.2-0.9c0-0.1,0.1-0.2,0.1-0.3c0.1-0.5,0-0.8-0.3-1c-0.2-0.1-0.5-0.1-0.8,0.1c0,0,0,0-0.1,0c0,0,0,0-0.1,0.1
		c0,0,0,0,0,0c-0.3,0.4-0.7,0.9-1,1.6c-0.4,0.6-0.8,1.3-1.2,2c-0.4,0.7-0.9,1.4-1.4,2.1c-0.5,0.7-1.1,1.3-1.9,1.9
		c-0.7,0.6-1.5,1-2.4,1.4c-0.9,0.4-2,0.5-3.2,0.5c-1.1,0-2-0.3-2.8-0.7c-0.8-0.5-1.4-1.1-1.9-1.8c-0.5-0.7-1-1.5-1.4-2.4
		c-0.4-0.9-0.8-1.7-1.1-2.4c-0.3-0.7-0.7-1.4-1-1.8c-0.3-0.5-0.8-0.7-1.3-0.7c-0.9,0-1.9,0.4-3,1.2c-1.1,0.8-2.3,1.9-3.4,3.3
		c-1.1,1.4-2.1,3.1-2.9,5.1c-0.8,2-1.4,4.2-1.6,6.6c-0.1,0.5,0,1,0,1.5c0,0.1,0,0.2,0,0.3c0.1,0.4,0.2,0.8,0.2,1.1
		c0,0,0.1,0.6,0.3,1c0,0,0,0,0,0c0,0.1,0,0.1,0.1,0.2c0,0,0,0,0,0c-0.2,0.1-0.3,0.2-0.5,0.2c0,0,0,0,0,0h0c0,0,0,0,0,0c0,0,0,0,0,0
		c0,0,0,0,0,0c0,0,0,0,0,0c0,0,0,0,0,0c-2,1-4.1,2.2-6.5,3.6c-1,0.6-2,1.3-3,2c0-0.4-0.1-0.8-0.1-1.2c-0.1-1.4-0.2-3.4-0.4-6
		c0,0-0.2-4-0.4-6c-0.2-2.2-0.3-4.3-0.5-6.3c-0.2-2-0.3-3.7-0.4-5.2c-0.1-1.5-0.2-2.7-0.3-3.7C60,54.6,60,54.1,60,53.9
		c0-0.3,0-0.5,0-0.6c0-0.1,0-0.2,0.2-0.2c0.5,0.2,0.9,0.4,1.3,0.6c0.4,0.2,0.8,0.4,1.2,0.7c0.3,0.2,0.6,0.4,0.8,0.6
		c0-0.3-0.1-0.7-0.2-1.1c-0.1-0.3-0.3-0.9-0.6-1.7c-0.3-0.8-0.6-1.7-1-2.7c-0.4-1-0.8-2.1-1.2-3.2c-0.4-1.1-0.8-2.1-1.2-3.1
		c-0.4-1-0.7-1.9-1-2.6c-0.3-0.7-0.5-1.2-0.6-1.5c-0.1-0.2-0.1-0.3-0.2-0.4c-0.1,0.2-0.3,0.4-0.4,0.6c-0.6,1-0.9,2.2-1.3,3.3
		c-0.3,0.8-0.5,1.5-0.8,2.3c-0.1,0.3-0.2,0.7-0.3,1.1c0,0,0,0,0,0c0.1,0.2,0.1,0.3,0.2,0.5c0.1,0.3,0.3,0.7,0.4,1.1
		c0.1,0.4,0.2,0.9,0.2,1.6c0.1,0.6,0.1,1.4,0.1,2.4c0,0.7,0,1.7,0.1,3.1c0.1,1.5,0.1,1.8,0.3,5c0.1,2.2,0.1,2.2,0.3,4.7
		c0.1,2,0.2,3.7,0.3,4.9c0.1,1.3,0.2,2.5,0.3,3.8c0.2,2.7,0.4,5.4,0.6,7.9c0.2,2.1,0.3,4.1,0.4,6.1c-0.5,0.4-1.1,0.9-1.6,1.3
		c-2,1.7-3.7,3.2-5.1,4.5c-1.4,1.3-2.7,2.4-3.9,3.3c-1.2,0.9-2.4,1.5-3.6,2c-1.2,0.5-2.6,0.7-4.2,0.7c-0.9,0-1.6-0.2-2.3-0.5
		c-0.7-0.3-1.2-0.8-1.7-1.3c-0.5-0.6-0.8-1.3-1-2c-0.2-0.8-0.3-1.6-0.3-2.6c0-1.4,0.2-2.9,0.6-4.5c0.4-1.6,0.8-3.2,1.3-4.7
		c0.5-1.5,1-3,1.5-4.3c0.5-1.3,0.9-2.4,1.2-3.2c0.3-0.9,0.3-1.3,0.1-1.3c-0.2,0-0.5,0.3-0.9,1.1c-0.4,0.7-0.9,1.7-1.5,2.9
		c-0.6,1.3-1.2,2.7-1.8,4.2c-0.6,1.6-1.1,3.2-1.6,5c-0.4,1.8-0.7,3.6-0.7,5.4c0,1.7,0.3,3.2,0.8,4.6c0.5,1.4,1.2,2.6,2.1,3.6
		c0.9,1,1.8,1.8,2.9,2.4c1.1,0.6,2.2,0.9,3.4,0.9c1.3,0,2.6-0.3,3.8-0.8c1.2-0.5,2.4-1.3,3.8-2.3c1.4-1,3-2.3,4.7-3.9
		c1.3-1.1,2.8-2.4,4.5-3.7c0,0.4,0.1,0.8,0.1,1.2c0.1,2,0.2,3.7,0.3,5.1c0.1,1.5,0.1,2.5,0.1,3.3c0,1.7,0,3.1-0.1,4.3
		c-0.1,1.2-0.2,2.1-0.2,2.9c-0.5,4,0,4.3,1.5,0.7c0.1-0.3,0.3-0.8,0.7-1.5c0.3-0.7,0.6-1.6,0.9-2.9c0.3-1.2,0.6-2.8,0.8-4.6
		c0.4-3,0.4-5.5,0.3-6.8c0-0.6,0-1.3-0.1-2.6c0-0.8-0.1-1.6-0.1-2.3c1.9-1.5,3.8-2.7,5.4-3.7c2.2-1.3,4.3-2.4,6.1-3.1
		c0.3,0.7,0.7,1.5,1.3,2.5c0.6,1,1.4,2,2.3,2.9c0.9,0.9,1.9,1.7,3,2.4c1.1,0.7,2.3,1,3.7,1c0.9,0,1.6-0.2,2.3-0.6
		c0.7-0.4,1.3-1,1.8-1.7c0.5-0.7,0.9-1.6,1.1-2.6c0.3-1,0.4-2.1,0.4-3.2c0-1.4-0.2-2.7-0.5-3.9c-0.3-1.1-0.7-2.1-1.3-3
		c-0.6-0.8-1.3-1.5-2.1-2c-0.8-0.5-1.8-0.7-2.8-0.7c-0.9,0-1.9,0.1-3.1,0.3c-1.2,0.2-2.6,0.6-4.3,1.2l-0.4,0.2
		c-0.1-0.2-0.3-0.4-0.4-0.6c-0.2-0.3-0.4-0.7-0.6-1c-0.2-0.4-0.3-0.7-0.4-1.1c-0.1-0.3-0.2-0.6-0.2-0.8c0-0.5,0.1-1.1,0.4-1.7
		c0.3-0.6,0.6-1.2,1.1-1.8c0.4-0.6,0.9-1.2,1.4-1.7c0.5-0.5,1-1,1.6-1.5c0.5-0.4,1-0.8,1.5-1c0.5-0.3,0.8-0.4,1.1-0.4
		c0.3,0,0.7,0.2,0.9,0.7c0.3,0.5,0.6,1.1,1,1.8c0.3,0.7,0.7,1.5,1.1,2.4c0.4,0.9,0.9,1.7,1.5,2.4c0.6,0.7,1.3,1.3,2.1,1.8
		c0.8,0.5,1.8,0.7,2.9,0.7c1.5,0,2.9-0.2,4-0.7c1.1-0.5,2.1-1.1,2.9-1.8c0.8-0.7,1.5-1.5,2-2.3c0.5-0.8,1-1.6,1.4-2.2
		c0.3,0.6,0.7,1.1,1.1,1.7c0.4,0.5,0.8,1,1.3,1.4c0.5,0.4,0.9,0.7,1.4,0.9c0.5,0.2,1,0.3,1.6,0.3c1.5,0,2.8-0.4,3.9-1.1
		c1.1-0.7,1.9-1.6,2.6-2.8c0.7-1.1,1.2-2.4,1.5-3.8c0.3-1.4,0.5-2.7,0.5-4C114.5,59.4,114.3,58.3,114,57.5L114,57.5z M80.4,82.2
		c0.4-0.1,0.9-0.1,1.3-0.1c0.4,0,0.9,0,1.3,0.1c0.4,0.1,0.8,0.1,1.1,0.3c0.5,0.2,0.9,0.5,1.3,0.8c0.3,0.3,0.6,0.6,0.7,0.9
		c0.1,0.3,0,0.5-0.2,0.7c-0.2,0.2-0.6,0.3-1.2,0.3c-1.1,0-2.1-0.3-3.1-0.7c-1-0.5-1.8-1.2-2.3-2C79.6,82.3,80,82.3,80.4,82.2z"/>
	
		<linearGradient id="SVGID_00000170263736821345215640000015234868392045576334_" gradientUnits="userSpaceOnUse" x1="42.7956" y1="121.6155" x2="50.2398" y2="121.6155" gradientTransform="matrix(1 0 0 -1 0 184)">
		<stop  offset="9.000000e-02" style="stop-color:#C49D70"/>
		<stop  offset="0.61" style="stop-color:#6F4C33"/>
		<stop  offset="1" style="stop-color:#4A2E1E"/>
	</linearGradient>
	<path style="fill:url(#SVGID_00000170263736821345215640000015234868392045576334_);" d="M44.8,62.4c0-0.1,0.1-0.1,0.2-0.1
		c0.2,0,0.6,0.4,1.2,1.3c0.6,0.9,0.7,1.8,0.7,2.1c0,0.2,0.1,0.3,0.2,0.3c0,0,0.1,0,0.1-0.1c0-0.1,0.1-0.3,0.1-0.4
		c0.1-0.2,0.1-0.3,0.2-0.5c0-0.1,0-0.2,0-0.2c0,0,0-0.1,0-0.1c0-0.1,0-0.3,0.1-0.4c0,0,0-0.1,0-0.1v0c0-0.2,0.1-0.3,0.1-0.5
		c0-0.2,0-0.4,0.1-0.6c0-0.2,0.1-0.4,0.1-0.6v0c0,0,0,0,0,0c0,0,0,0,0,0c0,0,0,0,0-0.1c0.2-1.6,0.6-2,0.7-2c0.2,0,0.7-0.1,0.9,0.1
		c0.2,0.2,0.4,0.3,0.4,0.3c0.1,0,0.2-0.2,0.3-0.5c0-0.2,0-0.4,0-0.6c0-0.2-0.2-0.4-0.5-0.6c-0.3-0.3-0.8-0.2-1.1-0.2
		c-0.5,0.1-0.9,1.3-0.9,1.5c0,0.2-0.5,2.6-0.4,3.3c0,0.1,0,0.2-0.1,0.2c0,0,0,0,0,0c0,0,0-0.1-0.1-0.2c-0.4-1.1-0.9-1.9-1.5-2.6
		c-0.8-0.7-2-1.1-2.1-1s-0.3,0.5-0.5,1c-0.2,0.5-0.3,0.7-0.3,0.8c0,0,0,0,0,0c0.4,0.2,0.8,0.3,1.1,0.5c0.2,0.1,0.4,0.2,0.6,0.3
		C44.7,62.5,44.7,62.5,44.8,62.4L44.8,62.4z"/>
	
		<linearGradient id="SVGID_00000168086391556605754110000001374080271878763950_" gradientUnits="userSpaceOnUse" x1="44.7192" y1="107.7669" x2="51.556" y2="107.7669" gradientTransform="matrix(1 0 0 -1 0 184)">
		<stop  offset="9.000000e-02" style="stop-color:#C49D70"/>
		<stop  offset="0.61" style="stop-color:#6F4C33"/>
		<stop  offset="1" style="stop-color:#4A2E1E"/>
	</linearGradient>
	<path style="fill:url(#SVGID_00000168086391556605754110000001374080271878763950_);" d="M51.6,69.6c-0.1-0.4-0.9-1.4-1.7-2.1
		c-0.7-0.6-1.3-0.9-1.8-1.1c0,0,0,0,0,0c0,0,0,0,0,0c-0.1,0-0.1,0-0.2,0c-0.2,0-0.4,0-0.6,0c0,0,0,0,0,0c-0.8,0.2-1.6,1-1.9,2.5
		c-0.1,0.3,0,0.6,0.1,0.6c0.1,0,0.4-0.4,0.7-0.7c0.4-0.3,0.7-0.5,0.9-0.5c0.4,0,1.1,0.5,1.5,0.9c-1.1,0.2-2.1,0.3-2.5,0.5
		c-0.8,0.5-1.3,1.2-1.4,2.3c0.3,0.7,1,2.3,1.7,4c0.5,1.1,0.9,2.1,1.1,2.8c0.8,2.3,0.9,4.1,1.1,5.7c0.1,1,0.1,1.5,0.2,1.4
		c0.1,0,0.1-0.2,0.1-0.5c0.1-0.9,0.1-1.7,0-2.6c-0.3-2.8-0.8-4.6-1.5-6.5c0,0,0,0,0,0c0,0,0,0,0,0c0,0,0-0.1,0-0.1v0c0,0,0,0,0,0
		c0,0,0-0.1,0-0.1c0,0,0-0.1,0-0.1c0,0,0,0,0-0.1c0-0.1-0.1-0.1-0.1-0.2c0,0,0,0,0,0c0,0,0-0.1-0.1-0.1c0,0,0,0,0,0
		c-0.5-1.1-1.1-2.3-1.7-3.7c0.5-0.3,1.2-0.7,2.2-0.8c0.8-0.1,1.8-0.1,2.8,0c0.1,0,0.3-0.3,0.6-0.7C51.5,70,51.6,69.7,51.6,69.6
		L51.6,69.6z"/>
	
		<linearGradient id="SVGID_00000149367443026165804240000018058285780263786664_" gradientUnits="userSpaceOnUse" x1="44.0866" y1="59.1391" x2="48.8382" y2="59.1391" gradientTransform="matrix(1 0 0 -1 0 184)">
		<stop  offset="9.000000e-02" style="stop-color:#C49D70"/>
		<stop  offset="0.61" style="stop-color:#6F4C33"/>
		<stop  offset="1" style="stop-color:#4A2E1E"/>
	</linearGradient>
	<path style="fill:url(#SVGID_00000149367443026165804240000018058285780263786664_);" d="M45.4,125.8c0-0.1,0-0.2,0-0.3
		c0-0.1,0-0.2,0-0.2c0.1-1,0.5-2,0.8-2.9c0.3-0.9,0.6-1.8,0.9-2.4c0.1-0.2,0.2-0.4,0.2-0.5c0,0,0-0.1,0-0.1s0,0,0,0c0,0,0,0,0,0
		c0,0-0.1,0-0.2,0.2c-0.2,0.3-0.1,0.2-0.3,0.4c-0.2,0.3-0.3,0.6-0.6,1.1c-0.2,0.5-0.5,1.2-0.8,1.9c-0.4,0.9-0.7,1.5-0.9,2.1
		c-0.3,1-0.6,1.7-0.6,2.3c0,0.2,0,0.2,0,0.4c0.1,1.2,0.3,1.4,0.8,2c0.4,0.4,1,0.6,1.5,0.6h0.1c0.3,0,0.5-0.1,0.7-0.3
		c0.4-0.3,0.4-0.3,0.8-0.8c0.2-0.3,0.5-1.1,0.6-1.5c0-0.1,0.1-0.4,0.1-0.7c0.1-0.3,0.1-0.6,0.1-0.8c0-0.1,0-0.1,0-0.2
		c0,0,0-0.1,0-0.1c-0.1,0-0.1,0.1-0.2,0.2c0,0,0,0.1-0.1,0.1c-0.1,0.2-0.1,0.3-0.2,0.5c0,0,0,0,0,0.1c0,0,0,0.1,0,0.1c0,0,0,0,0,0.1
		c-0.1,0.2-0.2,0.4-0.3,0.5c-0.2,0.2-0.4,0.3-0.6,0.4c-0.2,0.1-0.4,0.1-0.6,0.1c-0.3,0-0.6-0.2-0.8-0.4c-0.2-0.2-0.3-0.5-0.4-0.7
		c-0.1-0.2-0.1-0.5-0.1-0.8C45.4,126,45.4,125.9,45.4,125.8L45.4,125.8z"/>
	
		<linearGradient id="SVGID_00000124859723512060242280000004108320545396647350_" gradientUnits="userSpaceOnUse" x1="94.4559" y1="42.6948" x2="102.0597" y2="42.6948" gradientTransform="matrix(1 0 0 -1 0 184)">
		<stop  offset="9.000000e-02" style="stop-color:#C49D70"/>
		<stop  offset="0.61" style="stop-color:#6F4C33"/>
		<stop  offset="1" style="stop-color:#4A2E1E"/>
	</linearGradient>
	<path style="fill:url(#SVGID_00000124859723512060242280000004108320545396647350_);" d="M94.5,147.7
		C94.5,147.7,94.5,147.7,94.5,147.7c0.1,0.1,0.6-0.2,1.3-0.6c1.7-1.2,3.2-2.7,4.4-4.5c1.2-1.7,1.8-3.3,1.9-4.7
		c0.2-1.9-0.4-2.9-1.8-3c-1.6-0.1-2.7,0.9-3.3,3.2c-0.1,0.5,0.1-0.2-0.2,0.9c-0.3,1.1-0.3,1.1-0.3,1.1c0.1,0,0.7-1.1,1-1.3
		c0.4-0.3,0.9-0.4,1.3-0.3c0.9,0.1,1.3,0.6,1.2,1.7c-0.1,1.1-1.6,3.3-4.6,6.4C94.8,147.2,94.5,147.6,94.5,147.7L94.5,147.7z"/>
	
		<linearGradient id="SVGID_00000122716499740742574880000015179779219989278655_" gradientUnits="userSpaceOnUse" x1="97.6845" y1="145.3444" x2="105.2877" y2="145.3444" gradientTransform="matrix(1 0 0 -1 0 184)">
		<stop  offset="9.000000e-02" style="stop-color:#C49D70"/>
		<stop  offset="0.61" style="stop-color:#6F4C33"/>
		<stop  offset="1" style="stop-color:#4A2E1E"/>
	</linearGradient>
	<path style="fill:url(#SVGID_00000122716499740742574880000015179779219989278655_);" d="M97.7,45C97.7,45.1,97.7,45.1,97.7,45
		c0.1,0.1,0.6-0.2,1.3-0.6c1.7-1.2,3.2-2.7,4.4-4.5c1.2-1.7,1.8-3.3,1.9-4.7c0.2-1.9-0.4-2.9-1.8-3c-1.6-0.1-2.7,0.9-3.3,3.2
		c-0.1,0.5,0.1-0.2-0.2,0.9c-0.3,1.1-0.3,1.1-0.3,1.1c0.1,0,0.7-1.1,1-1.3c0.4-0.3,0.9-0.4,1.3-0.3c0.9,0.1,1.3,0.6,1.2,1.7
		c-0.1,1.1-1.6,3.3-4.6,6.4C98,44.6,97.7,44.9,97.7,45L97.7,45z"/>
	
		<linearGradient id="SVGID_00000087393633095672794240000004408576785573242264_" gradientUnits="userSpaceOnUse" x1="109.2918" y1="50.5261" x2="122.0943" y2="50.5261" gradientTransform="matrix(1 0 0 -1 0 184)">
		<stop  offset="9.000000e-02" style="stop-color:#C49D70"/>
		<stop  offset="0.61" style="stop-color:#6F4C33"/>
		<stop  offset="1" style="stop-color:#4A2E1E"/>
	</linearGradient>
	<path style="fill:url(#SVGID_00000087393633095672794240000004408576785573242264_);" d="M110.3,133.5c0.4,0.2,1.3,0.6,1.9,0.3
		c0.1,0,0.2-0.1,0.4-0.3c0,0,0.4-0.2,0.5-0.3c0.4-0.1,1.1,0.9,2,2.3c1,1.6,1.2,3.1,1.3,3.7c0.1,0.4,0.2,0.6,0.3,0.5
		c0.2,0,0.3-0.3,0.5-0.7c0.2-0.7,0.8-2.2,0.8-3.7c0.1-3,0.2-5.1,1.2-5.5c0.3-0.1,0.9-0.3,1.4,0c0.4,0.2,0.6,0.6,0.8,0.6
		c0.3-0.1,0.4-0.6,0.5-0.9c0.1-0.4,0.1-0.7,0-1c-0.1-0.3-0.3-0.7-0.8-1.1c-0.5-0.5-1.5-0.4-1.9-0.3c-0.9,0.1-1.6,2.2-1.6,2.6
		c0,0.4-0.8,4.5-0.7,5.7c0,0.2-0.1,0.3-0.1,0.4c0,0.1,0,0.1-0.1,0c0,0,0-0.1-0.1-0.3c-0.7-1.9-1.6-3.3-2.6-4.4
		c-0.8-0.8-2.7-2.3-3.6-1.8c-0.1,0-0.1,0.1-0.9,1.7c-0.3,0.5-0.5,0.9-0.4,1.3c0.1,0.3,0.2,0.6,0.3,0.6
		C109.7,133.1,109.8,133.3,110.3,133.5L110.3,133.5z"/>
	
		<linearGradient id="SVGID_00000016056626348784088190000007985753288217786790_" gradientUnits="userSpaceOnUse" x1="69.9108" y1="144.1405" x2="82.7595" y2="144.1405" gradientTransform="matrix(1 0 0 -1 0 184)">
		<stop  offset="9.000000e-02" style="stop-color:#C49D70"/>
		<stop  offset="0.61" style="stop-color:#6F4C33"/>
		<stop  offset="1" style="stop-color:#4A2E1E"/>
	</linearGradient>
	<path style="fill:url(#SVGID_00000016056626348784088190000007985753288217786790_);" d="M71,39.7c0.3,0.2,1.4,0.8,1.9,0.5
		c0.1-0.1,0.2-0.2,0.5-0.4c0.1-0.1,0.3-0.1,0.3-0.2c0.4-0.1,1.1,0.9,2,2.3c1,1.6,1.2,3.1,1.3,3.7c0.1,0.4,0.2,0.6,0.3,0.5
		c0.2,0,0.3-0.3,0.5-0.7c0.2-0.7,0.8-2.2,0.8-3.7c0.1-4.3,1.1-5.5,1.2-5.5c0.3-0.1,1.1-0.2,1.5,0.1c0.4,0.3,0.6,0.5,0.7,0.5
		c0.2,0,0.4-0.3,0.5-0.9c0.1-0.4,0.1-0.7,0-1c-0.1-0.3-0.3-0.7-0.8-1.1c-0.5-0.5-1.5-0.4-1.9-0.3c-0.9,0.1-1.6,2.2-1.6,2.6
		c0,0.4-0.8,4.5-0.7,5.7c0,0.2-0.1,0.3-0.1,0.4c0,0.1,0,0.1-0.1,0c0,0,0-0.1-0.1-0.3c-0.7-1.9-1.6-3.3-2.6-4.4
		c-0.1-0.1-2.5-2.4-3.6-1.8c-0.1,0.1-0.1,0.1-0.9,1.6c-0.3,0.5-0.5,1-0.4,1.4c0,0.1,0.1,0.2,0.2,0.3C70.5,39.4,70.8,39.6,71,39.7z"
		/>
	
		<linearGradient id="SVGID_00000026846629582768040340000010960599619590160051_" gradientUnits="userSpaceOnUse" x1="35.694" y1="72.0263" x2="56.6699" y2="72.0263" gradientTransform="matrix(1 0 0 -1 0 184)">
		<stop  offset="9.000000e-02" style="stop-color:#C49D70"/>
		<stop  offset="0.61" style="stop-color:#6F4C33"/>
		<stop  offset="1" style="stop-color:#4A2E1E"/>
	</linearGradient>
	<path style="fill:url(#SVGID_00000026846629582768040340000010960599619590160051_);" d="M36.2,115.3c-0.5,0.7-0.6,1.7-0.4,2.8
		c2.8-1.5,6.4-3.3,10.9-5.4c4.7-2.2,7.9-3.7,9.8-4.6c0.1-1.3,0.2-2.1,0.2-2.3c-1.3,0.2-5.5,2-12.7,5.4
		C40.2,113,37.6,114.4,36.2,115.3z"/>
	
		<linearGradient id="SVGID_00000050630101113622545580000014763716267524260237_" gradientUnits="userSpaceOnUse" x1="69.2653" y1="68.6331" x2="75.9381" y2="68.6331" gradientTransform="matrix(1 0 0 -1 0 184)">
		<stop  offset="9.000000e-02" style="stop-color:#C49D70"/>
		<stop  offset="0.61" style="stop-color:#6F4C33"/>
		<stop  offset="1" style="stop-color:#4A2E1E"/>
	</linearGradient>
	<path style="fill:url(#SVGID_00000050630101113622545580000014763716267524260237_);" d="M75.4,107.3c-0.3-0.6-0.8-1-1.4-1.3
		c-0.2-0.2-0.4-0.2-0.6-0.3c-0.1,0-0.2-0.1-0.4-0.2c-0.7-0.3-1.4-0.4-2.1-0.3c-1,0.4-1.9,1.7-1.6,3.8c0,0.1,0,0.2,0.1,0.3
		c0,0.2,0.1,0.3,0.2,0.3c0.1,0,0.2-0.3,0.4-0.8c0.2-0.5,1.2-0.8,1.4-0.9c0.4-0.1,0.9,0,1.4,0.3c-1,0.6-1.7,1.1-2,1.5
		c-0.6,0.9-0.8,2-0.4,3.5c0.1,0.4,0,0.3,1.3,3c1.3,2.7,1.9,5.4,2.4,7.5c0.3,1.2,0.5,1.8,0.6,1.8c0.1,0,0.1-0.2,0.1-0.6
		c0-1.1-0.4-4.3-0.7-5.3c-0.9-3.6-0.9-3.5-3.1-6.9c0.2-0.5,0.7-1,1.4-1.5c0.1-0.1,0.1-0.2,0.2-0.2c0.1,0,0.1-0.1,0.2-0.1
		c0.1-0.1,0.2-0.2,0.4-0.2c0.7-0.2,1.4-0.4,2.2-0.5c0.1-0.1,0.2-0.5,0.3-1c0.1-0.5,0.1-0.8,0.1-1C75.8,107.9,75.6,107.6,75.4,107.3
		L75.4,107.3z"/>
	
		<linearGradient id="SVGID_00000112592764979569120950000009441777321035151511_" gradientUnits="userSpaceOnUse" x1="86.0505" y1="135.299" x2="120.4111" y2="135.299" gradientTransform="matrix(1 0 0 -1 0 184)">
		<stop  offset="9.000000e-02" style="stop-color:#C49D70"/>
		<stop  offset="0.61" style="stop-color:#6F4C33"/>
		<stop  offset="1" style="stop-color:#4A2E1E"/>
	</linearGradient>
	<path style="fill:url(#SVGID_00000112592764979569120950000009441777321035151511_);" d="M120.4,40c-0.1,0-0.2,0-0.4,0.1
		c-0.1,0-0.4,0.2-1,0.4c-0.6,0.3-1.3,0.6-2.3,1c-1,0.4-2.1,0.9-3.4,1.4c-1.3,0.5-2.6,1.1-4.1,1.7c-1.4,0.6-3,1.3-4.5,1.9
		c-1.5,0.7-3.1,1.3-4.6,2c-1.5,0.6-2.9,1.3-4.3,1.9c-1.4,0.6-2.7,1.2-3.8,1.7c-1.1,0.5-2.1,0.9-3,1.3c-0.8,0.4-1.4,0.7-1.8,0.8
		c-0.1,0.1-0.2,0.2-0.3,0.4c0,0.1-0.1,0.2-0.1,0.3c0,0.1-0.1,0.2-0.1,0.3c-0.1,0.3-0.2,0.6-0.3,0.9c-0.1,0.3-0.3,0.8-0.4,1.2
		c0.2-0.2,0.8-0.4,1.5-0.8c0.8-0.4,1.7-0.8,2.8-1.3c1.1-0.5,2.4-1.1,3.8-1.7c1.4-0.7,2.9-1.3,4.5-2c1.5-0.7,3.1-1.4,4.7-2.1
		c1.6-0.7,3.1-1.4,4.7-2c1.5-0.7,2.9-1.3,4.3-1.9c1.3-0.6,2.5-1.1,3.5-1.5c1-0.4,1.8-0.8,2.4-1.1c0.6-0.3,0.9-0.4,1-0.5
		c0.1-0.1,0.2-0.3,0.4-0.6c0,0,0,0,0-0.1c0.1-0.1,0.1-0.2,0.2-0.4c0.1-0.2,0.3-0.6,0.5-1C120.4,40.2,120.4,40.1,120.4,40L120.4,40z"
		/>
	
		<linearGradient id="SVGID_00000001663839078445570390000013942388248994838697_" gradientUnits="userSpaceOnUse" x1="136.4007" y1="82.3447" x2="140.9587" y2="82.3447" gradientTransform="matrix(1 0 0 -1 0 184)">
		<stop  offset="9.000000e-02" style="stop-color:#C49D70"/>
		<stop  offset="0.61" style="stop-color:#6F4C33"/>
		<stop  offset="1" style="stop-color:#4A2E1E"/>
	</linearGradient>
	<path style="fill:url(#SVGID_00000001663839078445570390000013942388248994838697_);" d="M140.9,102.9c-0.1,0-0.1,0.1-0.2,0.2
		c0,0,0,0.1-0.1,0.1c-0.1,0.2-0.1,0.3-0.2,0.5c0,0,0,0,0,0.1c0,0,0,0.1,0,0.1c0,0,0,0,0,0.1c-0.1,0.2-0.2,0.4-0.3,0.6
		c-0.2,0.2-0.4,0.4-0.6,0.4c-0.2,0.1-0.4,0.1-0.6,0.1c-0.3,0-0.6-0.2-0.7-0.4c-0.2-0.2-0.3-0.5-0.4-0.8c-0.1-0.3-0.1-0.6-0.1-0.9
		c0-0.1,0-0.2,0.1-0.3c0-0.1,0-0.2,0-0.3c0-0.1,0-0.2,0-0.3c0.1-1.2,0.5-2.3,0.8-3.3c0.3-1.1,0.6-2,0.9-2.7c0.1-0.3,0.2-0.4,0.2-0.5
		c0,0,0,0,0-0.1c0,0,0,0,0,0c0,0,0,0,0,0c0,0-0.1,0-0.2,0.2c-0.2,0.4-0.1,0.2-0.2,0.5c-0.2,0.3-0.3,0.6-0.5,1.3
		c-0.2,0.6-0.5,1.4-0.8,2.1c-0.4,1-0.7,1.7-0.9,2.4c-0.3,1.1-0.6,2-0.6,2.6c0,0.2,0,0.2,0,0.4c0.1,1.3,0.3,1.6,0.8,2.3
		c0.4,0.5,0.9,0.7,1.4,0.7h0.1c0.2,0,0.5-0.1,0.7-0.4c0.3-0.3,0.4-0.3,0.8-1c0.2-0.4,0.4-1.3,0.6-1.7c0-0.2,0.1-0.4,0.1-0.7
		c0.1-0.3,0.1-0.7,0.1-0.8C140.9,103.1,141,103,140.9,102.9C141,102.9,140.9,102.9,140.9,102.9L140.9,102.9z"/>
	
		<linearGradient id="SVGID_00000134219257014964576960000010932007528286849712_" gradientUnits="userSpaceOnUse" x1="135.7547" y1="96.6752" x2="141.0894" y2="96.6752" gradientTransform="matrix(1 0 0 -1 0 184)">
		<stop  offset="9.000000e-02" style="stop-color:#C49D70"/>
		<stop  offset="0.61" style="stop-color:#6F4C33"/>
		<stop  offset="1" style="stop-color:#4A2E1E"/>
	</linearGradient>
	<path style="fill:url(#SVGID_00000134219257014964576960000010932007528286849712_);" d="M140.9,86.4c-0.2-1.2-0.6-2.2-1-3.1
		c-0.4-0.8-0.9-1.5-1.5-2c-0.6-0.5-1-0.9-1.4-1.2c-0.1-0.1-0.2-0.1-0.2-0.1c-0.1,0-0.1,0-0.2,0.1l-0.8,1.4c-0.1,0.2-0.1,0.3-0.1,0.3
		c0,0.1,0.1,0.1,0.2,0.3c0.3,0.2,0.6,0.6,1.2,1.1c0.5,0.5,1,1.1,1.5,1.9c0.5,0.8,0.9,1.8,1.2,2.9c0.3,1.1,0.4,2.4,0.2,3.9
		c0,0.4-0.1,0.7-0.2,1c-0.1,0.3-0.2,0.5-0.2,0.8c-0.1,0.2-0.1,0.4-0.1,0.6c0,0.2,0,0.3,0.1,0.3c0.1,0.1,0.1,0,0.2-0.1
		c0.1-0.1,0.2-0.3,0.4-0.7c0.5-1,0.7-2,0.8-3C141.2,89.1,141.1,87.6,140.9,86.4L140.9,86.4z"/>
</g>
</svg>
