<svg width="76" height="28" viewBox="0 0 76 28" fill="none" xmlns="http://www.w3.org/2000/svg">
<g clip-path="url(#clip0_100_1658)">
<path d="M58.0377 8.48828C59.0498 8.48828 59.8555 9.27983 59.8588 10.2701C59.8588 11.2173 59.0897 12.0552 58.0377 12.0552C57.0255 12.0552 56.2265 11.2604 56.2231 10.2734C56.2231 9.27983 57.0255 8.48828 58.0377 8.48828Z" fill="#D9B27A"/>
<path d="M63.3382 13.7578C63.3382 14.7646 62.5425 15.5694 61.547 15.5661C60.5548 15.5661 59.7524 14.7679 59.7524 13.7644C59.7524 12.6748 60.648 11.9329 61.5736 11.9495C62.5491 11.9661 63.3382 12.7609 63.3382 13.7578Z" fill="#D9B27A"/>
<path d="M58.0381 19.027C56.976 19.0237 56.1969 18.1593 56.2202 17.1823C56.2435 16.2483 57.0659 15.4501 58.0447 15.4601C59.1068 15.4667 59.8792 16.3377 59.8559 17.3015C59.8326 18.2421 59.0169 19.0303 58.0347 19.027H58.0381Z" fill="#D9B27A"/>
<path d="M54.5387 15.5626C53.5365 15.5626 52.7441 14.7645 52.7441 13.7576C52.7441 12.7442 53.5432 11.9493 54.5653 11.9526C55.5308 11.9526 56.3332 12.774 56.3299 13.761C56.3299 14.7578 55.5275 15.5626 54.5387 15.5626Z" fill="#D9B27A"/>
<path d="M66.5412 17.0564C66.5345 17.9009 65.9685 18.6428 65.1795 18.8382C64.2772 19.0634 63.4182 18.5302 63.2251 17.6227C63.022 16.6755 63.6313 15.7018 64.5702 15.4666C65.4691 15.2414 66.3714 15.8376 66.5112 16.7517C66.5279 16.8543 66.5312 16.957 66.5412 17.0597V17.0564Z" fill="#D9B27A"/>
<path d="M65.0227 12.1015C64.1537 12.1015 63.4313 11.5021 63.2415 10.684C63.065 9.93222 63.3846 9.17379 64.0239 8.81942C64.5832 8.5081 65.3057 8.58427 65.8451 9.01151C66.5775 9.5911 66.764 10.6807 66.2512 11.4259C65.9416 11.8763 65.5021 12.085 65.026 12.1015H65.0227Z" fill="#D9B27A"/>
<path d="M61.5339 8.45858C60.8081 8.45858 60.1422 7.97504 59.9424 7.2961C59.7094 6.51448 60.1522 5.72956 60.9446 5.51759C61.707 5.31225 62.5527 5.69644 62.8789 6.39525C63.3451 7.39877 62.6592 8.45858 61.5372 8.45858H61.5339Z" fill="#D9B27A"/>
<path d="M61.3638 22.0507C60.6314 22.0507 60.0288 21.5838 59.9056 20.8949C59.8024 20.3186 60.0021 19.8351 60.4449 19.4641C60.971 19.0236 61.5736 18.921 62.2062 19.2025C63.0119 19.5635 63.2682 20.5339 62.7788 21.289C62.4692 21.7659 61.9332 22.054 61.3638 22.054V22.0507Z" fill="#D9B27A"/>
<path d="M69.0649 7.48132C69.0649 8.11721 68.8086 8.52457 68.3791 8.68354C68.0228 8.81602 67.6732 8.77297 67.3503 8.59081C66.7443 8.24306 66.4114 7.72309 66.4181 7.01433C66.4214 6.45131 66.7776 6.01744 67.3003 5.92802C67.5833 5.87834 67.853 5.92802 68.1061 6.06381C68.7253 6.39169 69.025 6.9216 69.0616 7.48463L69.0649 7.48132Z" fill="#D9B27A"/>
<path d="M67.9661 18.7651C68.5587 18.7751 68.9782 19.1626 69.0515 19.7852C69.1447 20.5668 68.5421 21.4147 67.773 21.5836C67.0938 21.7326 66.5112 21.3253 66.4213 20.6397C66.3181 19.8448 66.8874 19.0069 67.6698 18.8115C67.7663 18.7883 67.8662 18.7817 67.9661 18.7651Z" fill="#D9B27A"/>
<path d="M63.2349 3.88823C63.2349 3.35501 63.5944 2.97745 64.1737 2.93439C64.8796 2.87809 65.6287 3.39144 65.7619 4.12669C65.8617 4.68309 65.5188 5.16001 64.9562 5.25274C64.1904 5.37859 63.388 4.81888 63.2515 4.06707C63.2415 4.00746 63.2415 3.94784 63.2349 3.88823Z" fill="#D9B27A"/>
<path d="M65.7784 23.2925C65.7651 23.6303 65.572 23.9648 65.2524 24.2265C64.9261 24.4914 64.5532 24.6239 64.1304 24.5775C63.5078 24.5113 63.1349 23.9979 63.2614 23.3919C63.4179 22.6467 64.3035 22.0936 65.0426 22.2824C65.4887 22.395 65.7784 22.7593 65.7751 23.2958L65.7784 23.2925Z" fill="#D9B27A"/>
<path d="M70.8994 5.2395C70.906 5.70317 70.7063 5.95488 70.38 5.97806C70.2734 5.98468 70.1569 5.96813 70.057 5.93832C69.4644 5.75947 68.9484 5.03747 68.9617 4.42477C68.9717 4.02071 69.228 3.77232 69.6042 3.81537C69.7141 3.82862 69.8306 3.85843 69.9272 3.90811C70.5132 4.20618 70.8295 4.68972 70.8994 5.2395Z" fill="#D9B27A"/>
<path d="M70.2864 21.5404C70.6727 21.5404 70.9057 21.7988 70.8924 22.1862C70.8724 22.7923 70.3963 23.4514 69.8303 23.6534C69.7371 23.6865 69.6339 23.7097 69.5373 23.713C69.1977 23.7263 68.958 23.468 68.9514 23.0937C68.9447 22.7029 69.1045 22.3684 69.3509 22.077C69.5673 21.8219 69.8203 21.6232 70.1566 21.5537C70.2065 21.5437 70.2565 21.5404 70.2864 21.5371V21.5404Z" fill="#D9B27A"/>
<path d="M66.5612 26.4322C66.1883 26.4322 65.9753 26.2136 66.0052 25.8592C66.0119 25.7698 66.0419 25.6804 66.0785 25.5976C66.2816 25.1173 66.8675 24.7365 67.3769 24.7398C67.7631 24.7431 67.9862 25.018 67.8963 25.3889C67.7964 25.8062 67.5134 26.0745 67.1472 26.2732C66.9441 26.3825 66.7543 26.4289 66.5612 26.4289V26.4322Z" fill="#D9B27A"/>
<path d="M66.5709 1.08301C67.1136 1.08301 67.7362 1.54999 67.886 2.06665C68.0025 2.4707 67.7528 2.77871 67.3167 2.76878C66.8006 2.75553 66.2013 2.31836 66.0482 1.8315C66.0149 1.72552 66.0016 1.60629 66.0149 1.50031C66.0482 1.23536 66.2612 1.08632 66.5775 1.08632L66.5709 1.08301Z" fill="#D9B27A"/>
<path d="M70.8026 2.47694C70.8492 2.49682 70.9424 2.52331 71.019 2.57299C71.4185 2.83463 71.6982 3.19232 71.8713 3.63281C71.8913 3.6858 71.9013 3.7421 71.9112 3.79509C71.9379 3.97062 71.828 4.07329 71.6582 4.0203C71.5517 3.98718 71.4485 3.93419 71.3586 3.86795C71.0523 3.63943 70.8125 3.35129 70.6661 2.99361C70.6194 2.881 70.6028 2.75183 70.5961 2.62929C70.5895 2.52662 70.6594 2.47363 70.8026 2.47363V2.47694Z" fill="#D9B27A"/>
<path d="M71.6752 23.4946C71.855 23.4946 71.9282 23.5675 71.9049 23.6933C71.8849 23.8093 71.8516 23.9252 71.8017 24.0312C71.6286 24.3988 71.3822 24.7068 71.0393 24.9287C70.9594 24.9817 70.8662 25.0181 70.7729 25.038C70.673 25.0612 70.5998 25.0082 70.5931 24.9088C70.5865 24.8095 70.5931 24.7002 70.6264 24.6074C70.7829 24.1835 71.0593 23.849 71.4355 23.6006C71.522 23.5443 71.6286 23.5178 71.6752 23.4946Z" fill="#D9B27A"/>
<path d="M69.1045 26.2899C69.3009 26.2899 69.3741 26.386 69.3076 26.5516C69.221 26.7768 69.0545 26.9457 68.8747 27.098C68.6716 27.2703 68.4519 27.416 68.1922 27.4888C68.0957 27.5153 67.9891 27.5452 67.9092 27.4557C67.8326 27.3663 67.8693 27.2603 67.9192 27.1742C68.1656 26.747 68.5252 26.4555 68.9979 26.3032C69.0379 26.2899 69.0778 26.2899 69.1011 26.2866L69.1045 26.2899Z" fill="#D9B27A"/>
<path d="M69.0912 1.22526C69.0512 1.21532 68.9713 1.20539 68.8981 1.17558C68.5152 1.02654 68.2089 0.778147 67.9792 0.44033C67.9359 0.377404 67.9059 0.301229 67.8859 0.228367C67.846 0.0760183 67.9359 -0.0167156 68.0924 0.00315593C68.1689 0.0130917 68.2455 0.0362752 68.3187 0.0660825C68.6683 0.215119 68.9646 0.44033 69.1877 0.748339C69.2377 0.81789 69.2809 0.897376 69.3109 0.980174C69.3675 1.13915 69.2976 1.22857 69.0912 1.22526Z" fill="#D9B27A"/>
<path d="M66.4909 13.8006C66.4809 13.2707 66.6474 12.8401 66.9903 12.4891C67.5097 11.9492 68.2854 11.8962 68.8648 12.35C69.221 12.6282 69.4108 13.0057 69.4807 13.4429C69.5706 13.996 69.4574 14.5027 69.1045 14.9399C68.8481 15.2545 68.5118 15.44 68.099 15.4731C67.3332 15.5294 66.8005 14.9697 66.6041 14.4332C66.5275 14.2179 66.4776 13.9993 66.4909 13.8039V13.8006Z" fill="#6F4C33"/>
<path d="M71.878 10.8598C71.858 11.2307 71.7781 11.5751 71.5417 11.8732C71.2587 12.2243 70.7893 12.3501 70.3698 12.168C69.907 11.9693 69.624 11.5983 69.4575 11.1413C69.2678 10.6246 69.2644 10.1046 69.5374 9.61117C69.877 8.99846 70.5363 8.85274 71.1089 9.25679C71.4885 9.52506 71.7015 9.90924 71.8047 10.3497C71.8447 10.5153 71.858 10.6875 71.8813 10.8565L71.878 10.8598Z" fill="#6F4C33"/>
<path d="M69.3242 17.076C69.3409 16.4732 69.5506 15.9565 70.0201 15.5657C70.4462 15.208 71.0022 15.155 71.4417 15.5525C71.6548 15.7446 71.768 15.9996 71.8212 16.2745C71.9344 16.8673 71.8146 17.4171 71.4583 17.9073C71.2586 18.1821 70.9989 18.3809 70.6593 18.457C70.2365 18.5498 69.9035 18.4007 69.6438 18.0762C69.4108 17.7847 69.3242 17.4436 69.3242 17.0727V17.076Z" fill="#6F4C33"/>
<path d="M73.8525 13.7379C73.8358 14.185 73.7726 14.5891 73.5096 14.9369C73.3431 15.1588 73.1367 15.3144 72.8404 15.3012C72.6273 15.2912 72.4608 15.1886 72.321 15.0362C72.0746 14.7646 71.9481 14.4401 71.8981 14.0791C71.8449 13.6717 71.8815 13.2743 72.0513 12.8967C72.1445 12.6947 72.2677 12.5158 72.4442 12.38C72.7937 12.1151 73.2066 12.2145 73.4729 12.539C73.6993 12.8172 73.7926 13.1451 73.8259 13.4929C73.8358 13.5823 73.8425 13.6717 73.8492 13.7346L73.8525 13.7379Z" fill="#6F4C33"/>
<path d="M73.343 18.954C73.2964 19.5767 73.1232 20.09 72.7071 20.5007C72.5672 20.6365 72.4074 20.7425 72.2077 20.7756C71.9979 20.8087 71.8448 20.7292 71.7316 20.5636C71.6284 20.4113 71.5851 20.239 71.5751 20.0536C71.5484 19.4872 71.7515 19.0037 72.1178 18.5798C72.2643 18.4142 72.4374 18.285 72.6605 18.2287C72.9102 18.1658 73.1732 18.3082 73.2564 18.5566C73.303 18.699 73.323 18.8514 73.343 18.9507V18.954Z" fill="#6F4C33"/>
<path d="M73.3599 8.5249C73.3266 8.66732 73.3132 8.81966 73.26 8.95545C73.1401 9.26677 72.8505 9.38269 72.5408 9.25353C72.2645 9.13761 72.0781 8.92565 71.9216 8.68387C71.6785 8.30632 71.552 7.89564 71.582 7.44853C71.5953 7.25312 71.6519 7.07097 71.7784 6.91531C71.9316 6.72653 72.1879 6.69672 72.4509 6.83251C72.654 6.93849 72.8138 7.09415 72.937 7.27962C73.1867 7.65387 73.3266 8.06786 73.3599 8.5249Z" fill="#6F4C33"/>
<path d="M75.0044 11.5087C74.9711 11.7074 74.9512 11.9094 74.9012 12.1015C74.8613 12.2539 74.778 12.393 74.6082 12.4394C74.4051 12.4923 74.262 12.3764 74.1488 12.234C73.9224 11.9558 73.7825 11.6346 73.7226 11.2835C73.6827 11.0483 73.666 10.8066 73.666 10.5681C73.666 10.3197 73.7293 10.078 73.8658 9.86268C74.0123 9.62753 74.2387 9.60766 74.4418 9.79644C74.6415 9.98522 74.7547 10.2237 74.8313 10.4787C74.9312 10.8132 74.9944 11.1543 74.9878 11.5054C74.9944 11.5054 75.0044 11.5054 75.0111 11.5087H75.0044Z" fill="#6F4C33"/>
<path d="M73.6558 16.8044C73.6558 16.2711 73.7923 15.7777 74.1086 15.3438C74.1718 15.2577 74.2584 15.1815 74.3483 15.1252C74.5048 15.0292 74.6446 15.0656 74.7678 15.2014C74.8876 15.3339 74.9376 15.4995 74.9575 15.6684C75.0241 16.2281 74.9409 16.7712 74.7312 17.2945C74.6579 17.4734 74.5547 17.639 74.3916 17.7582C74.1785 17.9172 73.9787 17.8774 73.8422 17.6456C73.7157 17.4336 73.6691 17.2018 73.6558 16.9633C73.6558 16.9103 73.6558 16.8573 73.6558 16.8044Z" fill="#6F4C33"/>
<path d="M75.6771 13.7609C75.6538 14.0623 75.6371 14.3637 75.6005 14.665C75.5872 14.771 75.5372 14.877 75.4873 14.9764C75.4374 15.0724 75.3475 15.079 75.3009 14.9863C75.2309 14.8472 75.1777 14.6982 75.1344 14.5491C75.0378 14.1948 75.0445 13.8304 75.0611 13.4694C75.0745 13.1813 75.1244 12.8965 75.2476 12.6315C75.2742 12.5719 75.3341 12.499 75.3874 12.4891C75.4706 12.4759 75.5139 12.5653 75.5306 12.6381C75.5739 12.8104 75.6205 12.9793 75.6371 13.1548C75.6538 13.3568 75.6404 13.5589 75.6404 13.7642C75.6538 13.7642 75.6638 13.7642 75.6771 13.7642V13.7609Z" fill="#6F4C33"/>
<path d="M72.9733 5.13672C73.0565 5.18971 73.1364 5.2162 73.183 5.27251C73.3162 5.42817 73.4527 5.58714 73.5592 5.75936C73.7424 6.05743 73.8789 6.37538 73.9488 6.71982C73.9654 6.79599 73.9688 6.87879 73.9588 6.95828C73.9421 7.08413 73.8556 7.13381 73.7457 7.06757C73.6425 7.00796 73.5393 6.93178 73.4627 6.83905C73.1797 6.49792 72.9666 6.11705 72.8701 5.67987C72.8401 5.5474 72.8567 5.40167 72.8667 5.26588C72.8667 5.22614 72.93 5.18971 72.9733 5.14003V5.13672Z" fill="#6F4C33"/>
<path d="M73.9821 20.6731C73.9255 20.8652 73.8789 21.0606 73.8056 21.246C73.6658 21.607 73.4927 21.9515 73.2063 22.2264C73.1631 22.2661 73.1164 22.3059 73.0632 22.3324C72.9566 22.392 72.8967 22.3655 72.8567 22.2496C72.8068 22.1038 72.8334 21.9581 72.8667 21.819C72.9799 21.3719 73.1997 20.9778 73.506 20.6333C73.5659 20.5671 73.6425 20.5141 73.7224 20.471C73.8522 20.4048 73.9521 20.471 73.9588 20.6168C73.9588 20.6333 73.9588 20.6466 73.9588 20.6631C73.9654 20.6631 73.9754 20.6665 73.9821 20.6698V20.6731Z" fill="#6F4C33"/>
<path d="M75.2442 9.91228C75.2242 9.96196 75.2042 10.0083 75.1843 10.058C75.1376 10.0249 75.0744 9.99839 75.0477 9.95202C74.8713 9.66719 74.7581 9.34925 74.6615 9.0313C74.5783 8.7531 74.5184 8.46828 74.5117 8.17352C74.5117 8.10397 74.5217 8.0311 74.5317 7.96155C74.5317 7.94499 74.5517 7.9185 74.565 7.91519C74.5816 7.91187 74.6083 7.92181 74.6216 7.93837C74.6582 7.98474 74.6915 8.03441 74.7181 8.08741C74.8946 8.42522 74.9778 8.79285 75.0777 9.15716C75.1343 9.36912 75.1809 9.5844 75.2275 9.79636C75.2342 9.83279 75.2275 9.87253 75.2275 9.90897L75.2475 9.91559L75.2442 9.91228Z" fill="#6F4C33"/>
<path d="M74.5414 19.6496C74.5281 19.5734 74.5114 19.5204 74.5081 19.4674C74.4915 18.9474 74.6413 18.4639 74.8377 17.9903C74.8976 17.8479 74.9676 17.7088 75.0441 17.573C75.0674 17.5299 75.1274 17.5068 75.1673 17.4736C75.1873 17.5266 75.2272 17.5796 75.2206 17.6293C75.194 17.8214 75.1607 18.0135 75.1074 18.2023C75.0008 18.5798 74.8843 18.9541 74.7645 19.325C74.7278 19.4409 74.6746 19.5568 74.5381 19.6496H74.5414Z" fill="#6F4C33"/>
<path d="M3.31273 9.88003H2.25066C1.0088 9.88003 0.233056 9.1216 0.233056 7.85976V3.24956L0 1.51411L1.59477 1.14648V7.54844C1.59477 8.29362 1.92105 8.66125 2.57694 8.66125H3.31273V9.88335V9.88003Z" fill="#FFF5AB"/>
<path d="M7.95047 9.87933H2.93311V8.65723H7.95047V9.87933Z" fill="#FFF5AB"/>
<path d="M14.5496 4.19609L14.4264 5.60697V7.49145C14.4264 9.07787 13.4043 9.87935 11.3733 9.87935H7.56787V8.65725H9.63874C9.36573 8.19689 9.22923 7.70673 9.22923 7.20663C9.22923 6.20311 9.52887 5.40163 10.1282 4.79223C10.7274 4.18284 11.5465 3.88477 12.5952 3.88477C13.2511 3.88477 13.9037 3.99406 14.5462 4.19609H14.5496ZM13.1179 5.6997L13.0081 4.91146C12.805 4.84191 12.5586 4.81542 12.2989 4.81542C11.1536 4.81542 10.581 5.52086 10.581 6.94499C10.581 8.08429 10.9772 8.65394 11.7529 8.65394C12.7217 8.65394 13.2112 8.04455 13.2112 6.83569C13.2112 6.52437 13.1845 6.1435 13.1146 5.69639L13.1179 5.6997Z" fill="#FFF5AB"/>
<path d="M19.9364 9.87944H18.8444C18.598 9.87944 18.3683 9.85294 18.1618 9.78339C17.9987 11.3566 17.0299 12.3866 15.2453 12.8767L14.959 12.3468C16.2142 11.9527 16.8401 11.085 16.8401 9.7304L16.8268 6.32574L16.5538 4.5075L18.1752 4.13987V7.53128C18.1752 8.27647 18.5014 8.65734 19.1706 8.65734H19.9331V9.87944H19.9364ZM18.0686 1.97056C18.0686 2.41767 17.7157 2.78529 17.2363 2.78529C16.7868 2.78529 16.4173 2.44748 16.4173 1.97056C16.4173 1.49364 16.7868 1.14258 17.2363 1.14258C17.6857 1.14258 18.0686 1.49695 18.0686 1.97056Z" fill="#FFF5AB"/>
<path d="M24.574 9.87933H19.5566V8.65723H24.574V9.87933Z" fill="#FFF5AB"/>
<path d="M25.7459 12.0622C25.7459 12.4828 25.3763 12.8769 24.9002 12.8769C24.4641 12.8769 24.0679 12.5391 24.0679 12.049C24.0679 11.6018 24.4641 11.2342 24.9002 11.2342C25.3364 11.2342 25.7459 11.5853 25.7459 12.0622ZM28.2962 7.91236C28.2962 9.1179 27.5204 9.87964 26.2786 9.87964H24.1911V8.65754H25.949C26.6182 8.65754 26.9445 8.30316 26.9445 7.58448V6.24315L26.7114 4.5077L28.2928 4.15332V7.90904L28.2962 7.91236ZM27.9133 12.0622C27.9133 12.4828 27.5571 12.8769 27.081 12.8769C26.6315 12.8769 26.2353 12.5391 26.2353 12.049C26.2353 11.6018 26.6315 11.2342 27.081 11.2342C27.5304 11.2342 27.9133 11.5853 27.9133 12.0622Z" fill="#FFF5AB"/>
<path d="M32.072 9.30957C32.072 11.1411 31.0899 12.3334 29.1389 12.8765L28.8525 12.3466C30.1077 11.9525 30.7336 11.0848 30.7336 9.73018L30.7203 6.32552L30.4473 4.50727L32.0687 4.13965V9.30625L32.072 9.30957Z" fill="#FFF5AB"/>
<path d="M36.8996 9.87955H35.8376C34.5957 9.87955 33.82 9.12112 33.82 7.85927V3.24907L33.5869 1.51362L35.1817 1.146V7.54795C35.1817 8.29314 35.508 8.66076 36.1639 8.66076H36.8996V9.88286V9.87955Z" fill="#FFF5AB"/>
<path d="M41.5374 9.87933H36.52V8.65723H41.5374V9.87933Z" fill="#FFF5AB"/>
<path d="M50.3068 9.87944H41.1577V8.65734H48.9584V6.67681C48.9584 5.63355 48.196 5.11689 46.6545 5.11689H41.8536C43.5049 3.53048 44.7568 2.19908 45.6291 1.14258H47.5668L45.6291 2.72899L44.4172 3.95109H46.9542C49.0816 3.95109 50.3102 4.88837 50.3102 6.44828V9.87944H50.3068Z" fill="#FFF5AB"/>
<path d="M3.24623 21.5807H2.54373C2.38725 21.5807 2.23743 21.5641 2.10425 21.5211C1.99771 22.5213 1.37512 23.1737 0.223155 23.485L0.0400391 23.1505C0.849077 22.9021 1.25193 22.349 1.25193 21.4879L1.24194 19.3253L1.06549 18.1727L2.11091 17.9409V20.0936C2.11091 20.5672 2.32066 20.809 2.75348 20.809H3.24623V21.584V21.5807ZM2.04099 16.5598C2.04099 16.8446 1.81127 17.0765 1.50496 17.0765C1.21531 17.0765 0.978923 16.8612 0.978923 16.5598C0.978923 16.2584 1.21531 16.0332 1.50496 16.0332C1.79462 16.0332 2.04099 16.2584 2.04099 16.5598Z" fill="#6F4C33"/>
<path d="M6.40586 21.5807H5.74665C5.39373 21.5807 5.10408 21.4946 4.88434 21.3223C4.65461 21.4946 4.37494 21.5807 4.04201 21.5807H2.99658V20.8057H3.81228C4.24177 20.8057 4.45485 20.5805 4.45485 20.1267V19.2921L4.27839 18.1727L5.32381 17.9409V20.1267C5.32381 20.5838 5.53357 20.8057 5.96638 20.8057H6.40586V21.5807ZM5.26389 16.5598C5.26389 16.8446 5.03416 17.0765 4.72786 17.0765C4.4382 17.0765 4.18184 16.8612 4.18184 16.5499C4.18184 16.265 4.43487 16.0332 4.72786 16.0332C5.02084 16.0332 5.26389 16.2584 5.26389 16.5598Z" fill="#6F4C33"/>
<path d="M13.0045 20.3321C13.0045 21.0905 12.5051 21.5807 11.7293 21.5807C11.2632 21.5807 10.867 21.4184 10.5441 21.0905C10.3077 21.4184 9.95476 21.5807 9.48198 21.5807C9.00921 21.5807 8.62966 21.4085 8.28674 21.064C8.24346 21.1336 8.1802 21.1932 8.12027 21.2528C7.88388 21.4681 7.57425 21.5807 7.18139 21.5807H6.1626V20.8057H6.97164C7.39447 20.8057 7.60422 20.5805 7.60422 20.1268L7.62086 18.4642L8.48317 18.2754V20.5143C8.70291 20.713 8.95594 20.8156 9.26557 20.8156C9.67842 20.8156 9.88817 20.5904 9.88817 20.1367V18.4675L10.7505 18.2787V20.501C10.9702 20.7163 11.2232 20.819 11.5062 20.819C11.9191 20.819 12.1288 20.5937 12.1288 20.14V19.2955L11.9724 18.176L13.0078 17.9442V20.3387L13.0045 20.3321ZM10.0546 16.5598C10.0546 16.8446 9.82491 17.0765 9.51861 17.0765C9.22895 17.0765 8.97259 16.8612 8.97259 16.5499C8.97259 16.2651 9.22562 16.0332 9.51861 16.0332C9.81159 16.0332 10.0546 16.2584 10.0546 16.5598ZM10.7471 15.2251C10.7471 15.5 10.5174 15.7418 10.2111 15.7418C9.92146 15.7418 9.68508 15.5099 9.68508 15.2251C9.68508 14.9403 9.92146 14.6919 10.2111 14.6919C10.5174 14.6919 10.7471 14.9237 10.7471 15.2251ZM11.4596 16.5598C11.4596 16.8446 11.2232 17.0765 10.9136 17.0765C10.6339 17.0765 10.3776 16.8612 10.3776 16.5499C10.3776 16.2651 10.6339 16.0332 10.9136 16.0332C11.1933 16.0332 11.4596 16.2584 11.4596 16.5598Z" fill="#6F4C33"/>
<path d="M18.2849 21.5804H17.2495C17.0997 22.5706 16.4771 23.2065 15.395 23.4847L15.2119 23.1502C15.9677 22.8654 16.3639 22.3421 16.4071 21.5837H15.5715C15.0987 21.5837 14.7092 21.4446 14.4195 21.1631C14.0932 20.8617 13.9268 20.4576 13.9268 19.941C13.9268 19.3117 14.1099 18.8116 14.4894 18.4241C14.869 18.0366 15.3684 17.8379 15.9843 17.8379H17.2661V20.8087H18.2849V21.5837V21.5804ZM16.3805 20.8054V18.3347H15.931C15.2385 18.3347 14.8257 18.8845 14.8257 19.782C14.8257 20.4609 15.0987 20.8054 15.6414 20.8054H16.3805Z" fill="#6F4C33"/>
<path d="M19.0874 22.9649C19.0874 23.2332 18.851 23.4816 18.5414 23.4816C18.2617 23.4816 18.0054 23.2663 18.0054 22.955C18.0054 22.6702 18.2584 22.4383 18.5414 22.4383C18.8244 22.4383 19.0874 22.6635 19.0874 22.9649ZM21.4579 21.5805H20.7987C20.4458 21.5805 20.1561 21.4944 19.9364 21.3222C19.7067 21.4944 19.427 21.5805 19.0941 21.5805H18.0487V20.8055H18.8643C19.2938 20.8055 19.5069 20.5803 19.5069 20.1266V19.239L19.3305 18.1295L20.3759 17.9043V20.1266C20.3759 20.5836 20.5856 20.8055 21.0185 20.8055H21.4579V21.5805ZM20.4824 22.9649C20.4824 23.2332 20.2527 23.4816 19.9464 23.4816C19.6567 23.4816 19.4204 23.2663 19.4204 22.955C19.4204 22.6702 19.6567 22.4383 19.9464 22.4383C20.2361 22.4383 20.4824 22.6635 20.4824 22.9649Z" fill="#6F4C33"/>
<path d="M24.5774 21.5803H23.9881C23.6352 21.5803 23.3456 21.4942 23.1192 21.312C22.8994 21.4942 22.6198 21.5803 22.2835 21.5803H21.2114V20.8053H22.0538C22.4766 20.8053 22.6863 20.5735 22.6863 20.0999V17.4205L22.5199 16.268L23.5653 16.0361V20.0999C23.5653 20.5735 23.775 20.8053 24.1979 20.8053H24.5741V21.5803H24.5774Z" fill="#6F4C33"/>
<path d="M31.1729 20.3317C31.1729 21.0902 30.6735 21.5803 29.8978 21.5803C29.4317 21.5803 29.0355 21.4181 28.7125 21.0902C28.4761 21.4181 28.1232 21.5803 27.6504 21.5803C27.1777 21.5803 26.7981 21.4081 26.4552 21.0637C26.4119 21.1332 26.3487 21.1928 26.2887 21.2525C26.0523 21.4677 25.7427 21.5803 25.3498 21.5803H24.3311V20.8054H25.1401C25.5629 20.8054 25.7727 20.5801 25.7727 20.1264L25.7893 18.4638L26.6516 18.275V20.5139C26.8714 20.7126 27.1244 20.8153 27.434 20.8153C27.8469 20.8153 28.0566 20.5901 28.0566 20.1363V18.4671L28.9189 18.2784V20.5007C29.1387 20.7159 29.3917 20.8186 29.6747 20.8186C30.0875 20.8186 30.2973 20.5934 30.2973 20.1397V19.2951L30.1408 18.1757L31.1762 17.9438V20.3384L31.1729 20.3317Z" fill="#6F4C33"/>
<path d="M35.7776 21.5803H35.0917C34.2927 21.5803 33.79 21.0968 33.79 20.2986V17.3708L33.6401 16.268L34.6689 16.0361V20.0999C34.6689 20.5735 34.8787 20.8053 35.3015 20.8053H35.7743V21.5803H35.7776Z" fill="#6F4C33"/>
<path d="M36.5366 22.9648C36.5366 23.2331 36.3003 23.4815 35.9906 23.4815C35.711 23.4815 35.4546 23.2662 35.4546 22.9549C35.4546 22.6701 35.7076 22.4382 35.9906 22.4382C36.2736 22.4382 36.5366 22.6634 36.5366 22.9648ZM38.178 20.3319C38.178 21.0969 37.6786 21.5805 36.8796 21.5805H35.5345V20.8055H36.6665C37.096 20.8055 37.3091 20.5802 37.3091 20.1265V19.2753L37.1592 18.1725L38.178 17.9473V20.3319ZM37.9316 22.9648C37.9316 23.2331 37.7019 23.4815 37.3956 23.4815C37.106 23.4815 36.8496 23.2662 36.8496 22.9549C36.8496 22.6701 37.106 22.4382 37.3956 22.4382C37.6853 22.4382 37.9316 22.6634 37.9316 22.9648Z" fill="#6F4C33"/>
<path d="M43.0454 21.5805H39.1201L39.3498 20.8055H41.5705L41.5972 20.6234V19.7192C41.5972 19.2986 41.5106 18.9707 41.3441 18.719C41.1877 18.5037 40.9846 18.3911 40.7282 18.3911C40.6483 18.3911 40.5517 18.4077 40.4552 18.4507C40.4552 18.3646 40.4385 18.2023 40.4119 17.9672C40.4385 17.9672 40.5351 17.9573 40.6849 17.9341C41.221 17.9341 41.6504 18.1162 41.9767 18.4839C42.303 18.8449 42.4695 19.3019 42.4761 19.8616V20.7989H43.0454V21.5739V21.5805Z" fill="#6F4C33"/>
<path d="M43.8814 22.9649C43.8814 23.2332 43.645 23.4816 43.3353 23.4816C43.0557 23.4816 42.7993 23.2663 42.7993 22.955C42.7993 22.6702 43.0523 22.4383 43.3353 22.4383C43.6183 22.4383 43.8814 22.6635 43.8814 22.9649ZM46.2519 21.5805H45.5927C45.2397 21.5805 44.9501 21.4944 44.7304 21.3222C44.5006 21.4944 44.221 21.5805 43.888 21.5805H42.8426V20.8055H43.6583C44.0878 20.8055 44.3009 20.5803 44.3009 20.1266V19.239L44.1244 18.1295L45.1698 17.9043V20.1266C45.1698 20.5836 45.3796 20.8055 45.8124 20.8055H46.2519V21.5805ZM45.2764 22.9649C45.2764 23.2332 45.0466 23.4816 44.7403 23.4816C44.4507 23.4816 44.2143 23.2663 44.2143 22.955C44.2143 22.6702 44.4507 22.4383 44.7403 22.4383C45.03 22.4383 45.2764 22.6635 45.2764 22.9649Z" fill="#6F4C33"/>
<path d="M50.5034 17.9707L50.4235 18.8649V20.0605C50.4235 21.0673 49.7642 21.5774 48.4558 21.5774H46.0054V20.8024H47.3405C47.164 20.5109 47.0774 20.1996 47.0774 19.8817C47.0774 19.2458 47.2705 18.7357 47.6567 18.3482C48.043 17.9608 48.569 17.772 49.2482 17.772C49.671 17.772 50.0905 17.8415 50.5034 17.9707ZM49.5811 18.9278L49.5112 18.4277C49.378 18.3847 49.2215 18.3681 49.0551 18.3681C48.316 18.3681 47.9497 18.8152 47.9497 19.7194C47.9497 20.4414 48.2061 20.8057 48.7055 20.8057C49.3281 20.8057 49.6444 20.4182 49.6444 19.6531C49.6444 19.4544 49.6277 19.2127 49.5844 18.9311L49.5811 18.9278Z" fill="#6F4C33"/>
</g>
<defs>
<clipPath id="clip0_100_1658">
<rect width="75.6767" height="27.5188" fill="white"/>
</clipPath>
</defs>
</svg>
