<svg width="76" height="28" viewBox="0 0 76 28" fill="none" xmlns="http://www.w3.org/2000/svg">
<g clip-path="url(#clip0_100_764)">
<path d="M58.0377 8.4884C59.0498 8.4884 59.8555 9.27995 59.8588 10.2702C59.8588 11.2174 59.0897 12.0553 58.0377 12.0553C57.0255 12.0553 56.2265 11.2605 56.2231 10.2735C56.2231 9.27995 57.0255 8.4884 58.0377 8.4884Z" fill="#D9B27A"/>
<path d="M63.3382 13.7577C63.3382 14.7645 62.5425 15.5693 61.547 15.566C60.5548 15.566 59.7524 14.7678 59.7524 13.7643C59.7524 12.6747 60.648 11.9328 61.5736 11.9494C62.5491 11.9659 63.3382 12.7608 63.3382 13.7577Z" fill="#D9B27A"/>
<path d="M58.0381 19.027C56.976 19.0237 56.1969 18.1593 56.2202 17.1823C56.2435 16.2483 57.0659 15.4501 58.0447 15.4601C59.1068 15.4667 59.8792 16.3377 59.8559 17.3015C59.8326 18.2421 59.0169 19.0303 58.0347 19.027H58.0381Z" fill="#D9B27A"/>
<path d="M54.5387 15.5626C53.5365 15.5626 52.7441 14.7645 52.7441 13.7576C52.7441 12.7442 53.5432 11.9493 54.5653 11.9526C55.5308 11.9526 56.3332 12.774 56.3299 13.761C56.3299 14.7578 55.5275 15.5626 54.5387 15.5626Z" fill="#D9B27A"/>
<path d="M66.5412 17.0564C66.5345 17.9009 65.9685 18.6428 65.1795 18.8382C64.2772 19.0634 63.4182 18.5302 63.2251 17.6227C63.022 16.6755 63.6313 15.7018 64.5702 15.4666C65.4691 15.2414 66.3714 15.8376 66.5112 16.7517C66.5279 16.8543 66.5312 16.957 66.5412 17.0597V17.0564Z" fill="#D9B27A"/>
<path d="M65.0227 12.1018C64.1537 12.1018 63.4313 11.5023 63.2415 10.6843C63.065 9.93247 63.3846 9.17404 64.0239 8.81966C64.5832 8.50834 65.3057 8.58451 65.8451 9.01175C66.5775 9.59134 66.764 10.681 66.2512 11.4261C65.9416 11.8766 65.5021 12.0852 65.026 12.1018H65.0227Z" fill="#D9B27A"/>
<path d="M61.5339 8.45858C60.8081 8.45858 60.1422 7.97504 59.9424 7.2961C59.7094 6.51448 60.1522 5.72956 60.9446 5.51759C61.707 5.31225 62.5527 5.69644 62.8789 6.39525C63.3451 7.39877 62.6592 8.45858 61.5372 8.45858H61.5339Z" fill="#D9B27A"/>
<path d="M61.3638 22.0507C60.6314 22.0507 60.0288 21.5838 59.9056 20.8949C59.8024 20.3186 60.0021 19.8351 60.4449 19.4641C60.971 19.0236 61.5736 18.921 62.2062 19.2025C63.0119 19.5635 63.2682 20.5339 62.7788 21.289C62.4692 21.7659 61.9332 22.054 61.3638 22.054V22.0507Z" fill="#D9B27A"/>
<path d="M69.0649 7.48156C69.0649 8.11745 68.8086 8.52482 68.3791 8.68379C68.0228 8.81627 67.6732 8.77321 67.3503 8.59106C66.7443 8.2433 66.4114 7.72333 66.4181 7.01458C66.4214 6.45155 66.7776 6.01769 67.3003 5.92827C67.5833 5.87859 67.853 5.92827 68.1061 6.06405C68.7253 6.39194 69.025 6.92184 69.0616 7.48487L69.0649 7.48156Z" fill="#D9B27A"/>
<path d="M67.9661 18.7654C68.5587 18.7753 68.9782 19.1628 69.0515 19.7855C69.1447 20.5671 68.5421 21.4149 67.773 21.5838C67.0938 21.7329 66.5112 21.3255 66.4213 20.6399C66.3181 19.8451 66.8874 19.0072 67.6698 18.8117C67.7663 18.7886 67.8662 18.7819 67.9661 18.7654Z" fill="#D9B27A"/>
<path d="M63.2349 3.88823C63.2349 3.35501 63.5944 2.97745 64.1737 2.93439C64.8796 2.87809 65.6287 3.39144 65.7619 4.12669C65.8617 4.68309 65.5188 5.16001 64.9562 5.25274C64.1904 5.37859 63.388 4.81888 63.2515 4.06707C63.2415 4.00746 63.2415 3.94784 63.2349 3.88823Z" fill="#D9B27A"/>
<path d="M65.7784 23.2927C65.7651 23.6306 65.572 23.9651 65.2524 24.2267C64.9261 24.4917 64.5532 24.6241 64.1304 24.5778C63.5078 24.5115 63.1349 23.9982 63.2614 23.3921C63.4179 22.6469 64.3035 22.0938 65.0426 22.2826C65.4887 22.3952 65.7784 22.7595 65.7751 23.2961L65.7784 23.2927Z" fill="#D9B27A"/>
<path d="M70.8994 5.23938C70.906 5.70305 70.7063 5.95476 70.38 5.97794C70.2734 5.98456 70.1569 5.968 70.057 5.9382C69.4644 5.75935 68.9484 5.03735 68.9617 4.42465C68.9717 4.02059 69.228 3.7722 69.6042 3.81525C69.7141 3.8285 69.8306 3.85831 69.9272 3.90799C70.5132 4.20606 70.8295 4.6896 70.8994 5.23938Z" fill="#D9B27A"/>
<path d="M70.2864 21.5408C70.6727 21.5408 70.9057 21.7991 70.8924 22.1866C70.8724 22.7927 70.3963 23.4518 69.8303 23.6538C69.7371 23.6869 69.6339 23.7101 69.5373 23.7134C69.1977 23.7267 68.958 23.4683 68.9514 23.0941C68.9447 22.7033 69.1045 22.3688 69.3509 22.0773C69.5673 21.8223 69.8203 21.6236 70.1566 21.554C70.2065 21.5441 70.2565 21.5408 70.2864 21.5375V21.5408Z" fill="#D9B27A"/>
<path d="M66.5612 26.4324C66.1883 26.4324 65.9753 26.2138 66.0052 25.8594C66.0119 25.77 66.0419 25.6806 66.0785 25.5978C66.2816 25.1176 66.8675 24.7367 67.3769 24.74C67.7631 24.7433 67.9862 25.0182 67.8963 25.3892C67.7964 25.8065 67.5134 26.0747 67.1472 26.2734C66.9441 26.3827 66.7543 26.4291 66.5612 26.4291V26.4324Z" fill="#D9B27A"/>
<path d="M66.5709 1.08301C67.1136 1.08301 67.7362 1.54999 67.886 2.06665C68.0025 2.4707 67.7528 2.77871 67.3167 2.76878C66.8006 2.75553 66.2013 2.31836 66.0482 1.8315C66.0149 1.72552 66.0016 1.60629 66.0149 1.50031C66.0482 1.23536 66.2612 1.08632 66.5775 1.08632L66.5709 1.08301Z" fill="#D9B27A"/>
<path d="M70.8026 2.47731C70.8492 2.49718 70.9424 2.52368 71.019 2.57336C71.4185 2.835 71.6982 3.19269 71.8713 3.63317C71.8913 3.68616 71.9013 3.74247 71.9112 3.79546C71.9379 3.97099 71.828 4.07366 71.6582 4.02067C71.5517 3.98755 71.4485 3.93456 71.3586 3.86832C71.0523 3.6398 70.8125 3.35166 70.6661 2.99397C70.6194 2.88137 70.6028 2.7522 70.5961 2.62966C70.5895 2.52699 70.6594 2.474 70.8026 2.474V2.47731Z" fill="#D9B27A"/>
<path d="M71.6752 23.4948C71.855 23.4948 71.9282 23.5676 71.9049 23.6935C71.8849 23.8094 71.8516 23.9253 71.8017 24.0313C71.6286 24.3989 71.3822 24.7069 71.0393 24.9288C70.9594 24.9818 70.8662 25.0182 70.7729 25.0381C70.673 25.0613 70.5998 25.0083 70.5931 24.9089C70.5865 24.8096 70.5931 24.7003 70.6264 24.6076C70.7829 24.1836 71.0593 23.8491 71.4355 23.6007C71.522 23.5444 71.6286 23.5179 71.6752 23.4948Z" fill="#D9B27A"/>
<path d="M69.1045 26.2901C69.3009 26.2901 69.3741 26.3861 69.3076 26.5517C69.221 26.7769 69.0545 26.9458 68.8747 27.0982C68.6716 27.2704 68.4519 27.4161 68.1922 27.489C68.0957 27.5155 67.9891 27.5453 67.9092 27.4559C67.8326 27.3664 67.8693 27.2604 67.9192 27.1743C68.1656 26.7471 68.5252 26.4556 68.9979 26.3033C69.0379 26.2901 69.0778 26.2901 69.1011 26.2867L69.1045 26.2901Z" fill="#D9B27A"/>
<path d="M69.0912 1.22538C69.0512 1.21544 68.9713 1.20551 68.8981 1.1757C68.5152 1.02666 68.2089 0.778269 67.9792 0.440452C67.9359 0.377526 67.9059 0.301351 67.8859 0.228489C67.846 0.0761404 67.9359 -0.0165936 68.0924 0.003278C68.1689 0.0132138 68.2455 0.0363973 68.3187 0.0662046C68.6683 0.215241 68.9646 0.440452 69.1877 0.748462C69.2377 0.818012 69.2809 0.897498 69.3109 0.980296C69.3675 1.13927 69.2976 1.22869 69.0912 1.22538Z" fill="#D9B27A"/>
<path d="M66.4909 13.8007C66.4809 13.2708 66.6474 12.8403 66.9903 12.4892C67.5097 11.9494 68.2854 11.8964 68.8648 12.3501C69.221 12.6283 69.4108 13.0059 69.4807 13.443C69.5706 13.9961 69.4574 14.5029 69.1045 14.94C68.8481 15.2547 68.5118 15.4401 68.099 15.4732C67.3332 15.5295 66.8005 14.9698 66.6041 14.4333C66.5275 14.218 66.4776 13.9994 66.4909 13.804V13.8007Z" fill="white"/>
<path d="M71.878 10.8598C71.858 11.2307 71.7781 11.5751 71.5417 11.8732C71.2587 12.2243 70.7893 12.3501 70.3698 12.168C69.907 11.9693 69.624 11.5983 69.4575 11.1413C69.2678 10.6246 69.2644 10.1046 69.5374 9.61117C69.877 8.99846 70.5363 8.85274 71.1089 9.25679C71.4885 9.52506 71.7015 9.90924 71.8047 10.3497C71.8447 10.5153 71.858 10.6875 71.8813 10.8565L71.878 10.8598Z" fill="white"/>
<path d="M69.3242 17.0762C69.3409 16.4734 69.5506 15.9568 70.0201 15.566C70.4462 15.2083 71.0022 15.1553 71.4417 15.5527C71.6548 15.7448 71.768 15.9998 71.8212 16.2747C71.9344 16.8676 71.8146 17.4173 71.4583 17.9075C71.2586 18.1824 70.9989 18.3811 70.6593 18.4573C70.2365 18.55 69.9035 18.401 69.6438 18.0764C69.4108 17.785 69.3242 17.4438 69.3242 17.0729V17.0762Z" fill="white"/>
<path d="M73.8525 13.7378C73.8358 14.1849 73.7726 14.589 73.5096 14.9367C73.3431 15.1586 73.1367 15.3143 72.8404 15.301C72.6273 15.2911 72.4608 15.1884 72.321 15.0361C72.0746 14.7645 71.9481 14.4399 71.8981 14.0789C71.8449 13.6716 71.8815 13.2741 72.0513 12.8966C72.1445 12.6946 72.2677 12.5157 72.4442 12.3799C72.7937 12.115 73.2066 12.2143 73.4729 12.5389C73.6993 12.8171 73.7926 13.145 73.8259 13.4927C73.8358 13.5822 73.8425 13.6716 73.8492 13.7345L73.8525 13.7378Z" fill="white"/>
<path d="M73.343 18.9541C73.2964 19.5768 73.1232 20.0901 72.7071 20.5008C72.5672 20.6366 72.4074 20.7426 72.2077 20.7757C71.9979 20.8088 71.8448 20.7293 71.7316 20.5637C71.6284 20.4114 71.5851 20.2392 71.5751 20.0537C71.5484 19.4874 71.7515 19.0038 72.1178 18.5799C72.2643 18.4143 72.4374 18.2851 72.6605 18.2288C72.9102 18.1659 73.1732 18.3083 73.2564 18.5567C73.303 18.6991 73.323 18.8515 73.343 18.9508V18.9541Z" fill="white"/>
<path d="M73.3599 8.5249C73.3266 8.66732 73.3132 8.81966 73.26 8.95545C73.1401 9.26677 72.8505 9.38269 72.5408 9.25353C72.2645 9.13761 72.0781 8.92565 71.9216 8.68387C71.6785 8.30632 71.552 7.89564 71.582 7.44853C71.5953 7.25312 71.6519 7.07097 71.7784 6.91531C71.9316 6.72653 72.1879 6.69672 72.4509 6.83251C72.654 6.93849 72.8138 7.09415 72.937 7.27962C73.1867 7.65387 73.3266 8.06786 73.3599 8.5249Z" fill="white"/>
<path d="M75.0044 11.5089C74.9711 11.7077 74.9512 11.9097 74.9012 12.1018C74.8613 12.2541 74.778 12.3932 74.6082 12.4396C74.4051 12.4926 74.262 12.3767 74.1488 12.2343C73.9224 11.9561 73.7825 11.6348 73.7226 11.2837C73.6827 11.0486 73.666 10.8068 73.666 10.5684C73.666 10.32 73.7293 10.0782 73.8658 9.86292C74.0123 9.62778 74.2387 9.6079 74.4418 9.79668C74.6415 9.98546 74.7547 10.2239 74.8313 10.4789C74.9312 10.8134 74.9944 11.1546 74.9878 11.5056C74.9944 11.5056 75.0044 11.5056 75.0111 11.5089H75.0044Z" fill="white"/>
<path d="M73.6558 16.8047C73.6558 16.2715 73.7923 15.778 74.1086 15.3442C74.1718 15.2581 74.2584 15.1819 74.3483 15.1256C74.5048 15.0295 74.6446 15.066 74.7678 15.2018C74.8876 15.3342 74.9376 15.4998 74.9575 15.6687C75.0241 16.2284 74.9409 16.7716 74.7312 17.2949C74.6579 17.4737 74.5547 17.6393 74.3916 17.7586C74.1785 17.9175 73.9787 17.8778 73.8422 17.646C73.7157 17.434 73.6691 17.2022 73.6558 16.9637C73.6558 16.9107 73.6558 16.8577 73.6558 16.8047Z" fill="white"/>
<path d="M75.6771 13.761C75.6538 14.0624 75.6371 14.3638 75.6005 14.6652C75.5872 14.7711 75.5372 14.8771 75.4873 14.9765C75.4374 15.0725 75.3475 15.0792 75.3009 14.9864C75.2309 14.8473 75.1777 14.6983 75.1344 14.5492C75.0378 14.1949 75.0445 13.8306 75.0611 13.4696C75.0745 13.1814 75.1244 12.8966 75.2476 12.6316C75.2742 12.572 75.3341 12.4992 75.3874 12.4892C75.4706 12.476 75.5139 12.5654 75.5306 12.6383C75.5739 12.8105 75.6205 12.9794 75.6371 13.1549C75.6538 13.357 75.6404 13.559 75.6404 13.7643C75.6538 13.7643 75.6638 13.7643 75.6771 13.7643V13.761Z" fill="white"/>
<path d="M72.9733 5.13672C73.0565 5.18971 73.1364 5.2162 73.183 5.27251C73.3162 5.42817 73.4527 5.58714 73.5592 5.75936C73.7424 6.05743 73.8789 6.37538 73.9488 6.71982C73.9654 6.79599 73.9688 6.87879 73.9588 6.95828C73.9421 7.08413 73.8556 7.13381 73.7457 7.06757C73.6425 7.00796 73.5393 6.93178 73.4627 6.83905C73.1797 6.49792 72.9666 6.11705 72.8701 5.67987C72.8401 5.5474 72.8567 5.40167 72.8667 5.26588C72.8667 5.22614 72.93 5.18971 72.9733 5.14003V5.13672Z" fill="white"/>
<path d="M73.9821 20.673C73.9255 20.865 73.8789 21.0605 73.8056 21.2459C73.6658 21.6069 73.4927 21.9514 73.2063 22.2262C73.1631 22.266 73.1164 22.3057 73.0632 22.3322C72.9566 22.3918 72.8967 22.3653 72.8567 22.2494C72.8068 22.1037 72.8334 21.958 72.8667 21.8189C72.9799 21.3718 73.1997 20.9777 73.506 20.6332C73.5659 20.567 73.6425 20.514 73.7224 20.4709C73.8522 20.4047 73.9521 20.4709 73.9588 20.6167C73.9588 20.6332 73.9588 20.6465 73.9588 20.663C73.9654 20.663 73.9754 20.6663 73.9821 20.6696V20.673Z" fill="white"/>
<path d="M75.2442 9.91252C75.2242 9.9622 75.2042 10.0086 75.1843 10.0582C75.1376 10.0251 75.0744 9.99863 75.0477 9.95226C74.8713 9.66744 74.7581 9.34949 74.6615 9.03155C74.5783 8.75335 74.5184 8.46852 74.5117 8.17376C74.5117 8.10421 74.5217 8.03135 74.5317 7.9618C74.5317 7.94524 74.5517 7.91874 74.565 7.91543C74.5816 7.91212 74.6083 7.92205 74.6216 7.93861C74.6582 7.98498 74.6915 8.03466 74.7181 8.08765C74.8946 8.42547 74.9778 8.79309 75.0777 9.1574C75.1343 9.36937 75.1809 9.58464 75.2275 9.7966C75.2342 9.83304 75.2275 9.87278 75.2275 9.90921L75.2475 9.91583L75.2442 9.91252Z" fill="white"/>
<path d="M74.5414 19.6496C74.5281 19.5734 74.5114 19.5204 74.5081 19.4674C74.4915 18.9474 74.6413 18.4639 74.8377 17.9903C74.8976 17.8479 74.9676 17.7088 75.0441 17.573C75.0674 17.5299 75.1274 17.5068 75.1673 17.4736C75.1873 17.5266 75.2272 17.5796 75.2206 17.6293C75.194 17.8214 75.1607 18.0135 75.1074 18.2023C75.0008 18.5798 74.8843 18.9541 74.7645 19.325C74.7278 19.4409 74.6746 19.5568 74.5381 19.6496H74.5414Z" fill="white"/>
<path d="M3.31273 9.87979H2.25066C1.0088 9.87979 0.233056 9.12136 0.233056 7.85952V3.24931L0 1.51386L1.59477 1.14624V7.5482C1.59477 8.29338 1.92105 8.661 2.57694 8.661H3.31273V9.8831V9.87979Z" fill="#D9B27A"/>
<path d="M7.95047 9.87945H2.93311V8.65735H7.95047V9.87945Z" fill="#D9B27A"/>
<path d="M14.5496 4.19621L14.4264 5.60709V7.49158C14.4264 9.07799 13.4043 9.87948 11.3733 9.87948H7.56787V8.65737H9.63874C9.36573 8.19702 9.22923 7.70685 9.22923 7.20675C9.22923 6.20324 9.52887 5.40175 10.1282 4.79236C10.7274 4.18296 11.5465 3.88489 12.5952 3.88489C13.2511 3.88489 13.9037 3.99418 14.5462 4.19621H14.5496ZM13.1179 5.69982L13.0081 4.91159C12.805 4.84203 12.5586 4.81554 12.2989 4.81554C11.1536 4.81554 10.581 5.52098 10.581 6.94511C10.581 8.08441 10.9772 8.65406 11.7529 8.65406C12.7217 8.65406 13.2112 8.04467 13.2112 6.83581C13.2112 6.52449 13.1845 6.14362 13.1146 5.69651L13.1179 5.69982Z" fill="#D9B27A"/>
<path d="M19.9364 9.87944H18.8444C18.598 9.87944 18.3683 9.85294 18.1618 9.78339C17.9987 11.3566 17.0299 12.3866 15.2453 12.8767L14.959 12.3468C16.2142 11.9527 16.8401 11.085 16.8401 9.7304L16.8268 6.32574L16.5538 4.5075L18.1752 4.13987V7.53128C18.1752 8.27647 18.5014 8.65734 19.1706 8.65734H19.9331V9.87944H19.9364ZM18.0686 1.97056C18.0686 2.41767 17.7157 2.78529 17.2363 2.78529C16.7868 2.78529 16.4173 2.44748 16.4173 1.97056C16.4173 1.49364 16.7868 1.14258 17.2363 1.14258C17.6857 1.14258 18.0686 1.49695 18.0686 1.97056Z" fill="#D9B27A"/>
<path d="M24.574 9.87945H19.5566V8.65735H24.574V9.87945Z" fill="#D9B27A"/>
<path d="M25.7459 12.062C25.7459 12.4826 25.3763 12.8767 24.9002 12.8767C24.4641 12.8767 24.0679 12.5389 24.0679 12.0487C24.0679 11.6016 24.4641 11.234 24.9002 11.234C25.3364 11.234 25.7459 11.585 25.7459 12.062ZM28.2962 7.91211C28.2962 9.11765 27.5204 9.8794 26.2786 9.8794H24.1911V8.6573H25.949C26.6182 8.6573 26.9445 8.30292 26.9445 7.58423V6.2429L26.7114 4.50745L28.2928 4.15308V7.9088L28.2962 7.91211ZM27.9133 12.062C27.9133 12.4826 27.5571 12.8767 27.081 12.8767C26.6315 12.8767 26.2353 12.5389 26.2353 12.0487C26.2353 11.6016 26.6315 11.234 27.081 11.234C27.5304 11.234 27.9133 11.585 27.9133 12.062Z" fill="#D9B27A"/>
<path d="M32.072 9.30981C32.072 11.1413 31.0899 12.3336 29.1389 12.8768L28.8525 12.3468C30.1077 11.9527 30.7336 11.085 30.7336 9.73042L30.7203 6.32576L30.4473 4.50752L32.0687 4.13989V9.3065L32.072 9.30981Z" fill="#D9B27A"/>
<path d="M36.8996 9.87943H35.8376C34.5957 9.87943 33.82 9.12099 33.82 7.85915V3.24895L33.5869 1.5135L35.1817 1.14587V7.54783C35.1817 8.29301 35.508 8.66064 36.1639 8.66064H36.8996V9.88274V9.87943Z" fill="#D9B27A"/>
<path d="M41.5374 9.87945H36.52V8.65735H41.5374V9.87945Z" fill="#D9B27A"/>
<path d="M50.3068 9.87944H41.1577V8.65734H48.9584V6.67681C48.9584 5.63355 48.196 5.11689 46.6545 5.11689H41.8536C43.5049 3.53048 44.7568 2.19908 45.6291 1.14258H47.5668L45.6291 2.72899L44.4172 3.95109H46.9542C49.0816 3.95109 50.3102 4.88837 50.3102 6.44828V9.87944H50.3068Z" fill="#D9B27A"/>
<path d="M3.24623 21.5804H2.54373C2.38725 21.5804 2.23743 21.5639 2.10425 21.5208C1.99771 22.521 1.37512 23.1735 0.223155 23.4848L0.0400391 23.1503C0.849077 22.9019 1.25193 22.3488 1.25193 21.4877L1.24194 19.325L1.06549 18.1725L2.11091 17.9406V20.0934C2.11091 20.567 2.32066 20.8088 2.75348 20.8088H3.24623V21.5837V21.5804ZM2.04099 16.5596C2.04099 16.8444 1.81127 17.0762 1.50496 17.0762C1.21531 17.0762 0.978923 16.8609 0.978923 16.5596C0.978923 16.2582 1.21531 16.033 1.50496 16.033C1.79462 16.033 2.04099 16.2582 2.04099 16.5596Z" fill="white"/>
<path d="M6.40586 21.5804H5.74665C5.39373 21.5804 5.10408 21.4943 4.88434 21.3221C4.65461 21.4943 4.37494 21.5804 4.04201 21.5804H2.99658V20.8054H3.81228C4.24177 20.8054 4.45485 20.5802 4.45485 20.1265V19.2919L4.27839 18.1725L5.32381 17.9406V20.1265C5.32381 20.5835 5.53357 20.8054 5.96638 20.8054H6.40586V21.5804ZM5.26389 16.5596C5.26389 16.8444 5.03416 17.0762 4.72786 17.0762C4.4382 17.0762 4.18184 16.8609 4.18184 16.5496C4.18184 16.2648 4.43487 16.033 4.72786 16.033C5.02084 16.033 5.26389 16.2582 5.26389 16.5596Z" fill="white"/>
<path d="M13.0045 20.3319C13.0045 21.0903 12.5051 21.5805 11.7293 21.5805C11.2632 21.5805 10.867 21.4182 10.5441 21.0903C10.3077 21.4182 9.95476 21.5805 9.48198 21.5805C9.00921 21.5805 8.62966 21.4082 8.28674 21.0638C8.24346 21.1333 8.1802 21.193 8.12027 21.2526C7.88388 21.4679 7.57425 21.5805 7.18139 21.5805H6.1626V20.8055H6.97164C7.39447 20.8055 7.60422 20.5803 7.60422 20.1265L7.62086 18.4639L8.48317 18.2752V20.514C8.70291 20.7127 8.95594 20.8154 9.26557 20.8154C9.67842 20.8154 9.88817 20.5902 9.88817 20.1365V18.4672L10.7505 18.2785V20.5008C10.9702 20.716 11.2232 20.8187 11.5062 20.8187C11.9191 20.8187 12.1288 20.5935 12.1288 20.1398V19.2952L11.9724 18.1758L13.0078 17.944V20.3385L13.0045 20.3319ZM10.0546 16.5596C10.0546 16.8444 9.82491 17.0762 9.51861 17.0762C9.22895 17.0762 8.97259 16.861 8.97259 16.5496C8.97259 16.2648 9.22562 16.033 9.51861 16.033C9.81159 16.033 10.0546 16.2582 10.0546 16.5596ZM10.7471 15.2249C10.7471 15.4998 10.5174 15.7415 10.2111 15.7415C9.92146 15.7415 9.68508 15.5097 9.68508 15.2249C9.68508 14.94 9.92146 14.6917 10.2111 14.6917C10.5174 14.6917 10.7471 14.9235 10.7471 15.2249ZM11.4596 16.5596C11.4596 16.8444 11.2232 17.0762 10.9136 17.0762C10.6339 17.0762 10.3776 16.861 10.3776 16.5496C10.3776 16.2648 10.6339 16.033 10.9136 16.033C11.1933 16.033 11.4596 16.2582 11.4596 16.5596Z" fill="white"/>
<path d="M18.2849 21.5805H17.2495C17.0997 22.5708 16.4771 23.2066 15.395 23.4848L15.2119 23.1503C15.9677 22.8655 16.3639 22.3422 16.4071 21.5838H15.5715C15.0987 21.5838 14.7092 21.4447 14.4195 21.1632C14.0932 20.8618 13.9268 20.4577 13.9268 19.9411C13.9268 19.3118 14.1099 18.8117 14.4894 18.4242C14.869 18.0367 15.3684 17.838 15.9843 17.838H17.2661V20.8088H18.2849V21.5838V21.5805ZM16.3805 20.8055V18.3348H15.931C15.2385 18.3348 14.8257 18.8846 14.8257 19.7821C14.8257 20.4611 15.0987 20.8055 15.6414 20.8055H16.3805Z" fill="white"/>
<path d="M19.0874 22.9649C19.0874 23.2332 18.851 23.4816 18.5414 23.4816C18.2617 23.4816 18.0054 23.2663 18.0054 22.955C18.0054 22.6702 18.2584 22.4383 18.5414 22.4383C18.8244 22.4383 19.0874 22.6635 19.0874 22.9649ZM21.4579 21.5805H20.7987C20.4458 21.5805 20.1561 21.4944 19.9364 21.3222C19.7067 21.4944 19.427 21.5805 19.0941 21.5805H18.0487V20.8055H18.8643C19.2938 20.8055 19.5069 20.5803 19.5069 20.1266V19.239L19.3305 18.1295L20.3759 17.9043V20.1266C20.3759 20.5836 20.5856 20.8055 21.0185 20.8055H21.4579V21.5805ZM20.4824 22.9649C20.4824 23.2332 20.2527 23.4816 19.9464 23.4816C19.6567 23.4816 19.4204 23.2663 19.4204 22.955C19.4204 22.6702 19.6567 22.4383 19.9464 22.4383C20.2361 22.4383 20.4824 22.6635 20.4824 22.9649Z" fill="white"/>
<path d="M24.5774 21.5804H23.9881C23.6352 21.5804 23.3456 21.4943 23.1192 21.3122C22.8994 21.4943 22.6198 21.5804 22.2835 21.5804H21.2114V20.8054H22.0538C22.4766 20.8054 22.6863 20.5736 22.6863 20.1V17.4206L22.5199 16.2681L23.5653 16.0363V20.1C23.5653 20.5736 23.775 20.8054 24.1979 20.8054H24.5741V21.5804H24.5774Z" fill="white"/>
<path d="M31.1729 20.3319C31.1729 21.0903 30.6735 21.5805 29.8978 21.5805C29.4317 21.5805 29.0355 21.4182 28.7125 21.0903C28.4761 21.4182 28.1232 21.5805 27.6504 21.5805C27.1777 21.5805 26.7981 21.4082 26.4552 21.0638C26.4119 21.1334 26.3487 21.193 26.2887 21.2526C26.0523 21.4679 25.7427 21.5805 25.3498 21.5805H24.3311V20.8055H25.1401C25.5629 20.8055 25.7727 20.5803 25.7727 20.1265L25.7893 18.4639L26.6516 18.2752V20.514C26.8714 20.7127 27.1244 20.8154 27.434 20.8154C27.8469 20.8154 28.0566 20.5902 28.0566 20.1365V18.4673L28.9189 18.2785V20.5008C29.1387 20.7161 29.3917 20.8187 29.6747 20.8187C30.0875 20.8187 30.2973 20.5935 30.2973 20.1398V19.2952L30.1408 18.1758L31.1762 17.944V20.3385L31.1729 20.3319Z" fill="white"/>
<path d="M35.7776 21.5804H35.0917C34.2927 21.5804 33.79 21.0969 33.79 20.2987V17.371L33.6401 16.2681L34.6689 16.0363V20.1C34.6689 20.5736 34.8787 20.8054 35.3015 20.8054H35.7743V21.5804H35.7776Z" fill="white"/>
<path d="M36.5366 22.9648C36.5366 23.2331 36.3003 23.4815 35.9906 23.4815C35.711 23.4815 35.4546 23.2662 35.4546 22.9549C35.4546 22.6701 35.7076 22.4382 35.9906 22.4382C36.2736 22.4382 36.5366 22.6634 36.5366 22.9648ZM38.178 20.3319C38.178 21.0969 37.6786 21.5805 36.8796 21.5805H35.5345V20.8055H36.6665C37.096 20.8055 37.3091 20.5802 37.3091 20.1265V19.2753L37.1592 18.1725L38.178 17.9473V20.3319ZM37.9316 22.9648C37.9316 23.2331 37.7019 23.4815 37.3956 23.4815C37.106 23.4815 36.8496 23.2662 36.8496 22.9549C36.8496 22.6701 37.106 22.4382 37.3956 22.4382C37.6853 22.4382 37.9316 22.6634 37.9316 22.9648Z" fill="white"/>
<path d="M43.0454 21.5805H39.1201L39.3498 20.8055H41.5705L41.5972 20.6234V19.7192C41.5972 19.2986 41.5106 18.9707 41.3441 18.719C41.1877 18.5037 40.9846 18.3911 40.7282 18.3911C40.6483 18.3911 40.5517 18.4077 40.4552 18.4507C40.4552 18.3646 40.4385 18.2023 40.4119 17.9672C40.4385 17.9672 40.5351 17.9573 40.6849 17.9341C41.221 17.9341 41.6504 18.1162 41.9767 18.4839C42.303 18.8449 42.4695 19.3019 42.4761 19.8616V20.7989H43.0454V21.5739V21.5805Z" fill="white"/>
<path d="M43.8814 22.9649C43.8814 23.2332 43.645 23.4816 43.3353 23.4816C43.0557 23.4816 42.7993 23.2663 42.7993 22.955C42.7993 22.6702 43.0523 22.4383 43.3353 22.4383C43.6183 22.4383 43.8814 22.6635 43.8814 22.9649ZM46.2519 21.5805H45.5927C45.2397 21.5805 44.9501 21.4944 44.7304 21.3222C44.5006 21.4944 44.221 21.5805 43.888 21.5805H42.8426V20.8055H43.6583C44.0878 20.8055 44.3009 20.5803 44.3009 20.1266V19.239L44.1244 18.1295L45.1698 17.9043V20.1266C45.1698 20.5836 45.3796 20.8055 45.8124 20.8055H46.2519V21.5805ZM45.2764 22.9649C45.2764 23.2332 45.0466 23.4816 44.7403 23.4816C44.4507 23.4816 44.2143 23.2663 44.2143 22.955C44.2143 22.6702 44.4507 22.4383 44.7403 22.4383C45.03 22.4383 45.2764 22.6635 45.2764 22.9649Z" fill="white"/>
<path d="M50.5034 17.9704L50.4235 18.8647V20.0603C50.4235 21.0671 49.7642 21.5771 48.4558 21.5771H46.0054V20.8021H47.3405C47.164 20.5107 47.0774 20.1994 47.0774 19.8814C47.0774 19.2455 47.2705 18.7355 47.6567 18.348C48.043 17.9605 48.569 17.7717 49.2482 17.7717C49.671 17.7717 50.0905 17.8413 50.5034 17.9704ZM49.5811 18.9276L49.5112 18.4275C49.378 18.3844 49.2215 18.3679 49.0551 18.3679C48.316 18.3679 47.9497 18.815 47.9497 19.7191C47.9497 20.4411 48.2061 20.8055 48.7055 20.8055C49.3281 20.8055 49.6444 20.418 49.6444 19.6529C49.6444 19.4542 49.6277 19.2124 49.5844 18.9309L49.5811 18.9276Z" fill="white"/>
</g>
<defs>
<clipPath id="clip0_100_764">
<rect width="75.6767" height="27.5188" fill="white"/>
</clipPath>
</defs>
</svg>
