<svg width="183" height="183" viewBox="0 0 183 183" fill="none" xmlns="http://www.w3.org/2000/svg">
<circle cx="90.1263" cy="86.4468" r="79.3255" stroke="url(#paint0_linear_100_1744)" stroke-width="2"/>
<path d="M150.431 87.5538C150.25 85.9527 149.94 84.2871 149.495 82.5569C149.056 80.8267 148.475 79.0126 147.726 77.1016C146.983 75.1907 146.06 73.1312 144.937 70.9168C143.672 68.3861 142.187 65.7779 140.469 63.0987C138.752 60.4066 136.97 57.6692 135.13 54.8867C133.284 52.1042 131.438 49.2765 129.604 46.423C127.796 43.6082 126.137 40.7805 124.626 37.9593C124.549 37.7591 124.484 37.6042 124.446 37.488C124.252 37.0942 124.097 36.8876 123.974 36.8618C123.852 36.8424 123.69 37.0232 123.497 37.4105C123.452 37.5525 123.316 37.9205 123.09 38.508C122.877 39.0891 122.645 39.7346 122.399 40.4383C122.16 41.142 121.941 41.7876 121.747 42.3751C121.553 42.9497 121.45 43.3241 121.45 43.4662C121.644 43.86 121.805 44.2022 121.928 44.4862C122.051 44.7832 122.154 45.1318 122.257 45.5514C122.348 45.9582 122.425 46.4488 122.47 47.0105C122.522 47.5657 122.548 48.3081 122.548 49.2378C122.548 50.445 122.625 52.3818 122.767 55.0352C122.909 57.6822 123.103 60.6906 123.348 64.0477C123.6 67.4048 123.852 70.9297 124.116 74.629C124.388 78.3218 124.639 81.808 124.885 85.0941C125.124 88.3737 125.324 91.2918 125.472 93.8483C125.621 96.4049 125.692 98.2125 125.692 99.2778C125.692 100.343 125.679 101.311 125.653 102.015C125.627 102.719 125.582 103.28 125.504 103.694C125.44 104.1 125.337 104.404 125.214 104.604C125.091 104.798 124.93 104.965 124.743 105.114C123.768 105.895 122.735 106.541 121.644 107.051C120.546 107.561 119.32 107.819 117.958 107.819C117.958 107.819 117.958 107.819 117.951 107.819C117.17 107.819 116.466 107.767 115.834 107.67C115.201 107.567 114.607 107.399 114.045 107.16C113.484 106.922 112.948 106.599 112.425 106.192C111.902 105.792 111.347 105.295 110.766 104.714C111.379 104.062 111.934 103.319 112.444 102.506C112.954 101.692 113.4 100.788 113.774 99.8071C114.149 98.8194 114.445 97.7477 114.665 96.5921C114.878 95.4429 114.994 94.1905 114.994 92.8541C114.994 92.0536 114.82 91.0658 114.484 89.8844C114.142 88.7094 113.684 87.5796 113.116 86.495C112.541 85.4104 111.876 84.4872 111.114 83.719C110.346 82.9571 109.539 82.5762 108.687 82.5762C107.789 82.5762 106.969 82.8668 106.246 83.4478C105.51 84.0353 104.891 84.8552 104.381 85.9075C103.871 86.9598 103.483 88.2317 103.199 89.7165C102.915 91.2014 102.786 92.8476 102.786 94.6811C102.786 95.9917 102.909 97.2506 103.148 98.4514C103.386 99.6522 103.696 100.769 104.058 101.789L98.112 104.313C98.112 104.313 98.099 104.313 98.0926 104.32L98.0022 104.352C97.7052 104.501 97.6084 104.501 97.5116 104.501H97.2921C96.7627 103.332 96.1429 102.189 95.4327 101.073C94.729 99.9492 93.9737 98.9679 93.1732 98.1157C92.3662 97.27 91.5527 96.5921 90.7264 96.0821C89.9 95.5721 89.0801 95.3138 88.2537 95.3138C87.3241 95.3138 86.3621 95.5914 85.3679 96.1466C84.3737 96.7147 83.4505 97.483 82.5983 98.4901C81.7526 99.4843 81.0489 100.659 80.5195 102.028C79.9837 103.384 79.719 104.875 79.719 106.483C79.719 107.748 79.9579 108.755 80.4485 109.51C80.9327 110.266 81.5783 110.866 82.3788 111.299C83.1858 111.738 84.0961 112.028 85.1162 112.17C86.1362 112.319 87.2079 112.39 88.3248 112.383C90.1712 112.383 91.6044 112.286 92.6309 112.093C93.6509 111.899 94.2836 111.757 94.5289 111.654C94.6322 111.893 94.7226 112.254 94.8259 112.706C94.9227 113.171 94.9679 113.623 94.9679 114.062C94.9679 114.546 94.5095 115.372 93.5799 116.541C92.6567 117.709 91.4172 119.052 89.8613 120.557C88.3054 122.061 86.5042 123.623 84.4706 125.224C82.424 126.832 80.3 128.304 78.0921 129.64C75.8777 130.976 73.6375 132.08 71.3844 132.958C69.1313 133.836 67.0202 134.275 65.0769 134.275C62.7463 134.275 60.8547 133.894 59.4215 133.139C57.9883 132.384 56.8908 131.486 56.1419 130.441C55.3866 129.388 54.8765 128.291 54.6054 127.116C54.3342 125.954 54.2116 124.934 54.2116 124.049C54.2116 123.274 54.2891 122.313 54.4634 121.17C54.6377 120.027 54.8443 118.872 55.0896 117.709C55.3349 116.541 55.5867 115.443 55.8578 114.423C56.1225 113.403 56.3291 112.629 56.4776 112.093C56.8133 110.873 56.8908 110.208 56.6971 110.091C56.5034 109.969 56.1354 110.543 55.6061 111.809C55.4576 112.203 55.2058 112.868 54.8378 113.817C54.4698 114.766 54.1083 115.934 53.7403 117.316C53.3788 118.704 53.0624 120.247 52.7913 121.951C52.5201 123.655 52.3975 125.457 52.3975 127.348C52.3975 129.143 52.6363 130.899 53.127 132.597C53.6112 134.295 54.3472 135.818 55.3155 137.155C56.2904 138.491 57.5428 139.563 59.0729 140.37C60.6094 141.17 62.4429 141.571 64.5798 141.571C66.4198 141.571 68.2984 141.241 70.1965 140.583C72.0945 139.924 73.9732 139.059 75.8454 137.994C77.7176 136.922 79.5318 135.709 81.2749 134.34C83.0309 132.984 84.6578 131.616 86.162 130.26C87.6663 128.898 89.022 127.581 90.2099 126.322C91.3978 125.056 92.3855 123.991 93.1603 123.107C94.0318 122.093 94.7678 120.97 95.3488 119.75C95.9299 118.542 96.4076 117.367 96.7691 116.25C97.1307 115.127 97.4018 114.101 97.5697 113.145C97.744 112.196 97.8279 111.486 97.8279 110.995L97.957 110.937C98.0151 110.924 98.0732 110.911 98.1378 110.886C99.4742 110.33 100.817 109.762 102.153 109.194C103.49 108.619 104.833 108.058 106.169 107.503C106.724 108.471 107.312 109.278 107.938 109.911C108.558 110.543 109.139 111.099 109.707 111.583C111.308 112.919 112.799 113.849 114.168 114.359C115.537 114.869 116.808 115.127 117.983 115.127C117.983 115.127 117.983 115.127 117.99 115.127C119.255 115.127 120.553 114.707 121.889 113.881C123.226 113.055 124.459 111.757 125.576 109.982C126.692 108.206 127.603 105.94 128.306 103.197C129.01 100.446 129.372 97.1731 129.372 93.377C129.372 92.357 129.294 90.6526 129.146 88.2704C128.997 85.8817 128.829 83.1896 128.636 80.1682C128.442 77.1533 128.222 74.0157 127.984 70.7619C127.738 67.5016 127.519 64.4932 127.325 61.7429C127.131 58.9992 126.964 56.675 126.815 54.777C126.744 53.8667 126.692 53.1501 126.66 52.6207C127.88 54.6027 129.152 56.5524 130.488 58.4698C132.083 60.7423 133.716 63.0406 135.389 65.3841C137.067 67.7147 138.707 70.2454 140.308 72.9698C141.573 75.1067 142.677 77.121 143.607 78.9867C144.543 80.859 145.318 82.6344 145.918 84.3129C146.531 85.9914 146.99 87.5861 147.287 89.0967C147.59 90.601 147.745 92.0536 147.745 93.4416C147.745 95.3396 147.397 97.2119 146.706 99.0776C146.015 100.937 145.111 102.732 144.007 104.455C142.897 106.186 141.664 107.819 140.302 109.362C138.946 110.911 137.596 112.319 136.273 113.61C134.95 114.901 133.71 116.037 132.574 117.019C131.431 118.006 130.527 118.801 129.869 119.407C128.119 121.015 127.396 121.893 127.706 122.054C128.009 122.209 129.107 121.641 130.999 120.363C132.193 119.556 133.503 118.613 134.937 117.535C136.37 116.451 137.822 115.237 139.275 113.888C140.734 112.538 142.154 111.066 143.523 109.472C144.892 107.877 146.118 106.179 147.19 104.365C148.262 102.551 149.12 100.64 149.766 98.6386C150.412 96.6308 150.734 94.5326 150.734 92.3441C150.734 90.7624 150.644 89.1678 150.457 87.5667L150.431 87.5538ZM85.4777 105.379C84.0638 104.933 83.3601 104.326 83.3601 103.552C83.3601 103.113 83.6442 102.725 84.1994 102.39C84.7546 102.047 85.5422 101.88 86.5687 101.88C87.3951 101.88 88.2215 102.228 89.0478 102.932C89.8742 103.636 90.6295 104.404 91.3074 105.23C88.8283 105.76 86.8851 105.818 85.4777 105.379ZM108.758 99.536C108.099 99.9298 107.596 100.207 107.221 100.375C107.079 100.182 106.847 99.7878 106.53 99.2132C106.214 98.6257 105.904 97.9801 105.601 97.2764C105.297 96.5727 105.02 95.8755 104.781 95.1976C104.542 94.5133 104.419 93.9774 104.419 93.5901C104.419 93.2027 104.51 92.7702 104.71 92.2924C104.904 91.8211 105.162 91.3821 105.478 90.9819C105.795 90.5816 106.15 90.2524 106.556 89.9812C106.957 89.7101 107.35 89.5809 107.738 89.5809C108.274 89.5809 108.855 89.8585 109.487 90.4008C110.12 90.9496 110.707 91.5823 111.263 92.2989C111.805 93.0155 112.257 93.7386 112.606 94.4552C112.961 95.1653 113.135 95.6883 113.135 96.0046C113.135 96.2757 112.903 96.6179 112.418 97.0246C111.947 97.4314 111.379 97.8639 110.727 98.3029C110.068 98.7419 109.416 99.1486 108.758 99.5425V99.536Z" fill="url(#paint1_linear_100_1744)"/>
<path d="M106.261 73.596C105.906 73.2667 105.493 72.9246 105.028 72.5501C104.589 72.1757 104.15 71.8335 103.762 71.5236C103.343 71.2331 102.981 70.9555 102.697 70.7618C102.387 70.5423 102.2 70.439 102.116 70.4326C101.948 70.4196 101.767 70.5423 101.606 70.8328L98.3393 76.088C98.2102 76.301 98.2038 76.4366 98.3006 76.527C98.4814 76.6496 98.8171 76.9337 99.3335 77.3404C99.8242 77.7665 100.366 78.2055 100.935 78.6703C101.496 79.161 102.045 79.5935 102.536 80.0003C103.02 80.4264 103.356 80.7104 103.517 80.8331C103.724 80.988 103.924 80.9235 104.137 80.6394C104.356 80.3489 104.608 79.9615 104.931 79.4386C105.247 78.935 105.57 78.4444 105.86 77.9731C106.151 77.4695 106.997 76.2364 107.203 75.8104C107.429 75.4165 107.539 75.1196 107.552 74.984C107.552 74.9324 107.436 74.7516 107.21 74.4869C106.952 74.2416 106.642 73.9381 106.261 73.596Z" fill="url(#paint2_linear_100_1744)"/>
<path d="M116.248 73.1954C115.983 72.9501 115.68 72.6466 115.299 72.3045C114.944 71.9752 114.531 71.633 114.066 71.2586C113.633 70.8842 113.188 70.542 112.8 70.2321C112.381 69.9416 112.019 69.664 111.735 69.4703C111.425 69.2508 111.238 69.1475 111.154 69.1411C110.986 69.1281 110.806 69.2508 110.644 69.5413L107.377 74.7965C107.248 75.0095 107.242 75.1451 107.339 75.2355C107.519 75.3581 107.855 75.6422 108.372 76.0489C108.862 76.475 109.405 76.914 109.973 77.3788C110.534 77.8695 111.083 78.302 111.574 78.7088C112.058 79.1348 112.394 79.4189 112.549 79.5416C112.755 79.6965 112.955 79.632 113.168 79.3479C113.388 79.0574 113.64 78.67 113.962 78.1471C114.279 77.6435 114.602 77.1529 114.892 76.6816C115.183 76.178 116.028 74.9449 116.235 74.5188C116.461 74.125 116.571 73.8281 116.584 73.6925C116.584 73.6408 116.467 73.4601 116.241 73.1954H116.248Z" fill="url(#paint3_linear_100_1744)"/>
<path d="M112.605 52.4516C112.237 51.6834 111.908 51.0894 111.618 50.6827C111.25 50.1727 110.966 49.9467 110.759 50.0177C110.746 50.0242 110.74 50.0307 110.727 50.0307C110.649 50.2437 110.585 50.4567 110.52 50.6698C110.365 51.225 110.249 51.7931 110.101 52.3483C109.939 52.9358 109.726 53.5104 109.532 54.085C109.352 54.6208 109.113 55.1889 109.152 55.7571C109.184 56.2994 109.532 56.7836 109.81 57.229C109.952 57.4485 110.094 57.6551 110.249 57.8617C110.385 58.0425 110.533 58.2426 110.585 58.4686C110.649 58.8043 110.41 59.1206 110.197 59.3466C109.946 59.6242 109.681 59.9018 109.365 60.1019C109.216 60.1988 109.055 60.2827 108.9 60.3731C108.674 60.5022 108.428 60.6313 108.17 60.7088C107.667 60.8573 107.176 60.9476 106.66 60.9154C106.124 60.8831 105.581 60.7992 105.065 60.67C104.116 60.4183 103.612 59.6823 103.399 59.3982C103.399 59.3982 102.876 58.701 102.637 57.597C102.566 57.2678 102.528 56.9062 102.528 56.9062C102.515 56.7513 102.508 56.6415 102.502 56.493C102.476 56.054 102.463 55.7506 102.515 55.3826C102.534 55.2341 102.56 55.1179 102.579 55.0405C102.644 54.7435 102.715 54.4465 102.779 54.1495C102.799 54.0333 102.844 53.9171 102.876 53.8009C102.928 53.3232 102.844 53.0004 102.618 52.839C102.418 52.6905 102.16 52.7421 101.837 52.9875C101.818 53.0004 101.805 53.0133 101.785 53.0262C101.772 53.0456 101.753 53.0585 101.734 53.0779C101.727 53.0908 101.714 53.1101 101.701 53.123C101.353 53.5491 101.004 54.0656 100.662 54.6789C100.3 55.3245 99.9001 55.9959 99.4741 56.7125C99.048 57.4162 98.5702 58.1135 98.0279 58.8043C97.4985 59.5015 96.8788 60.1277 96.1751 60.6894C95.4649 61.2511 94.6515 61.7094 93.7412 62.0581C92.8244 62.4131 91.7657 62.5939 90.5455 62.5939C89.448 62.5939 88.5248 62.3421 87.7694 61.8579C87.0141 61.3737 86.362 60.754 85.8197 60.018C85.271 59.2756 84.7997 58.4686 84.4124 57.6035C84.0185 56.7384 83.657 55.9378 83.3148 55.1889C82.9727 54.4465 82.6305 53.8332 82.2754 53.349C81.9268 52.8648 81.5007 52.613 81.0165 52.613C80.1644 52.613 79.1637 53.0068 78.021 53.788C76.8783 54.5627 75.7549 55.6731 74.6639 57.0934C73.5599 58.5202 72.598 60.2246 71.7587 62.2259C70.9194 64.2273 70.3901 66.4416 70.1706 68.8755C70.1189 69.3662 70.1254 69.8568 70.1835 70.3539C70.1964 70.4443 70.2093 70.5283 70.2222 70.6186C70.3126 71.0512 70.3965 71.4256 70.4611 71.7613C70.4611 71.7613 70.5708 72.3295 70.7258 72.7297C70.7258 72.7297 70.7279 72.7319 70.7322 72.7362C70.7516 72.7878 70.7774 72.8459 70.7839 72.9105C70.7903 72.9234 70.7968 72.9363 70.7968 72.9557C70.6289 73.0332 70.4675 73.1106 70.2997 73.1816C70.2868 73.1946 70.2739 73.201 70.2609 73.2075H70.2545C70.2416 73.2139 70.2287 73.2204 70.2093 73.2268C70.2028 73.2268 70.1964 73.2333 70.1899 73.2397C70.1899 73.2397 70.177 73.2397 70.1706 73.2527C70.1641 73.2527 70.1576 73.2527 70.1576 73.2591C70.1447 73.2591 70.1383 73.2656 70.1254 73.2656C68.1563 74.2275 66 75.4283 63.6565 76.8809C62.6817 77.4813 61.681 78.1398 60.6545 78.8629C60.6222 78.4303 60.5899 78.0301 60.5641 77.6556C60.4673 76.2676 60.3253 74.2081 60.1509 71.6645C60.1703 71.6645 59.925 67.6231 59.7959 65.6798C59.6409 63.459 59.486 61.3737 59.331 59.4111C59.1761 57.4421 59.0534 55.7054 58.9437 54.1947C58.8468 52.6776 58.7565 51.4574 58.6919 50.5213C58.6338 49.5852 58.6015 49.0364 58.6015 48.8815C58.6015 48.5974 58.6144 48.3973 58.6467 48.2875C58.608 48.1843 58.6854 48.0551 58.8081 48.1003C59.26 48.2875 59.7119 48.4877 60.1509 48.7072C60.5577 48.9138 60.9708 49.1204 61.3517 49.3786C61.6294 49.5658 61.907 49.7789 62.191 49.979C62.1458 49.6691 62.0619 49.2947 61.9457 48.8492C61.8424 48.5135 61.6552 47.9454 61.3711 47.1513C61.0871 46.3572 60.7578 45.4534 60.3898 44.4398C60.0154 43.4327 59.6216 42.3675 59.2148 41.2635C58.8017 40.1595 58.4014 39.1201 58.0205 38.1324C57.6396 37.1381 57.2974 36.273 57.0069 35.5306C56.7099 34.7946 56.4969 34.2911 56.3678 34.0328C56.2903 33.8714 56.2257 33.7359 56.1612 33.6326C56.0256 33.8327 55.9094 34.0393 55.8061 34.233C55.238 35.2724 54.8764 36.4151 54.5149 37.5384C54.2631 38.3067 54.0307 39.0814 53.7531 39.8496C53.6305 40.1918 53.5272 40.5404 53.482 40.9084C53.482 40.9213 53.482 40.9342 53.4755 40.9471C53.553 41.115 53.624 41.2699 53.695 41.4249C53.837 41.7283 53.9597 42.0963 54.063 42.5159C54.1663 42.942 54.2373 43.4585 54.289 44.0783C54.3406 44.6916 54.3664 45.4857 54.3664 46.4605C54.3664 47.1255 54.4052 48.1584 54.4697 49.5594C54.5407 51.0571 54.5666 51.3993 54.7538 54.5563C54.8829 56.7836 54.87 56.7255 55.0185 59.2433C55.1347 61.2575 55.238 62.9232 55.3154 64.1046C55.4058 65.37 55.4898 66.6482 55.5737 67.9394C55.7545 70.6445 55.9352 73.2914 56.1289 75.8867C56.2903 77.972 56.4323 79.9991 56.5614 81.9617C56.0256 82.3814 55.4833 82.8333 54.9345 83.2916C52.9461 84.9766 51.2547 86.468 49.8537 87.7656C48.4528 89.0633 47.1616 90.1543 45.9673 91.0259C44.7794 91.9039 43.5786 92.5753 42.3778 93.0401C41.1705 93.492 39.7825 93.7309 38.2008 93.7309C37.3292 93.7309 36.561 93.563 35.9089 93.2338C35.2504 92.911 34.7016 92.4591 34.2497 91.891C33.7978 91.3164 33.4556 90.6321 33.2232 89.8444C32.9973 89.0503 32.8811 88.1982 32.8811 87.2685C32.8811 85.8611 33.0683 84.344 33.4492 82.73C33.8236 81.1095 34.2626 79.5343 34.7597 78.0042C35.2569 76.4677 35.7604 75.0474 36.2704 73.7175C36.7805 72.394 37.1807 71.3288 37.4777 70.5283C37.7618 69.6761 37.8069 69.2371 37.581 69.1919C37.3679 69.1596 37.0516 69.5276 36.632 70.3088C36.2704 71.0125 35.7798 71.9938 35.1536 73.2397C34.5338 74.4987 33.9269 75.9061 33.3201 77.4813C32.7068 79.0436 32.1838 80.7286 31.7448 82.5105C31.3058 84.2988 31.0928 86.0935 31.0928 87.8947C31.0928 89.5668 31.351 91.1162 31.861 92.5301C32.371 93.931 33.0554 95.1512 33.9205 96.1712C34.7791 97.1913 35.7604 97.9854 36.8579 98.5599C37.9425 99.1281 39.0723 99.4186 40.2473 99.4186C41.5837 99.4186 42.8361 99.1539 44.0047 98.631C45.1667 98.108 46.4385 97.3333 47.8072 96.3004C49.1823 95.261 50.764 93.9762 52.5394 92.4333C53.8177 91.3164 55.3025 90.0768 56.994 88.7146C57.0198 89.1278 57.0456 89.5345 57.0715 89.9283C57.2006 91.9039 57.2974 93.6211 57.362 95.0673C57.4265 96.5199 57.4653 97.598 57.4653 98.3211C57.4653 100.013 57.4201 101.446 57.3426 102.627C57.2651 103.809 57.1877 104.758 57.1167 105.481C56.6454 109.529 57.136 109.748 58.5757 106.133C58.7048 105.797 58.9179 105.293 59.2277 104.616C59.5312 103.931 59.8411 102.982 60.1509 101.762C60.4544 100.542 60.7255 99.0054 60.9579 97.1461C61.3388 94.0989 61.3324 91.6585 61.3066 90.3544C61.2936 89.7088 61.2678 89.0697 61.2097 87.7979C61.171 86.9586 61.1322 86.2162 61.0871 85.4867C63.0303 84.0212 64.838 82.7816 66.5036 81.781C68.7309 80.4381 70.7774 79.3923 72.6238 78.6627C72.9143 79.3471 73.3662 80.1863 73.9731 81.1805C74.5864 82.1812 75.3353 83.1432 76.2327 84.0599C77.1301 84.9896 78.1501 85.7772 79.2799 86.4357C80.4097 87.0942 81.6298 87.4235 82.9404 87.4235C83.7926 87.4235 84.5673 87.2169 85.2645 86.7972C85.9553 86.3905 86.5364 85.8159 87.027 85.0864C87.5112 84.3569 87.8857 83.4982 88.1374 82.5169C88.3957 81.5292 88.5248 80.451 88.5248 79.289C88.5248 77.8751 88.3698 76.5904 88.0664 75.4348C87.763 74.2856 87.3175 73.2849 86.7365 72.4457C86.1555 71.6064 85.4518 70.9543 84.6254 70.4895C83.7926 70.0376 82.8629 69.7987 81.8106 69.7987C80.9391 69.7987 79.9126 69.9085 78.7311 70.1086C77.5561 70.3152 76.1229 70.7155 74.4508 71.2965L74.0893 71.4644C73.9602 71.2965 73.8311 71.1093 73.6955 70.8962C73.4889 70.567 73.3017 70.2184 73.1274 69.8504C72.9531 69.4888 72.811 69.1402 72.7077 68.7981C72.598 68.4494 72.5463 68.1718 72.5463 67.9523C72.5463 67.4488 72.6755 66.8936 72.9402 66.2932C73.2113 65.6928 73.5599 65.0988 74.0054 64.5049C74.4379 63.9045 74.9221 63.3363 75.4451 62.7876C75.968 62.2388 76.4909 61.7482 77.0139 61.3285C77.5368 60.9025 78.0274 60.5538 78.4729 60.302C78.9313 60.0438 79.2863 59.9211 79.551 59.9211C79.8932 59.9211 80.2095 60.1665 80.5001 60.67C80.797 61.1671 81.1134 61.7805 81.4555 62.51C81.7912 63.246 82.1786 64.0465 82.6047 64.9245C83.0243 65.7961 83.5408 66.603 84.1348 67.3326C84.7352 68.0621 85.4389 68.6819 86.2523 69.179C87.0658 69.6761 88.0406 69.9279 89.1575 69.9279C90.694 69.9279 92.0175 69.689 93.1408 69.2112C94.2577 68.74 95.2196 68.1396 96.0201 67.423C96.8271 66.7063 97.505 65.9381 98.0538 65.1246C98.5961 64.3047 99.0544 63.5558 99.4224 62.878C99.7387 63.459 100.087 64.0142 100.475 64.5371C100.869 65.0665 101.288 65.5249 101.74 65.9252C102.192 66.3319 102.67 66.6418 103.18 66.8742C103.69 67.1066 104.226 67.2228 104.787 67.2228C106.298 67.2228 107.583 66.8613 108.641 66.1447C109.7 65.4281 110.565 64.4984 111.237 63.3686C111.902 62.2388 112.392 60.9799 112.696 59.6048C112.999 58.2297 113.154 56.8998 113.154 55.6021C113.154 54.3045 112.967 53.2134 112.605 52.4452V52.4516ZM79.041 77.1779C79.48 77.1262 79.9126 77.0939 80.3516 77.0875C80.7906 77.0746 81.2038 77.0939 81.6105 77.1391C82.0107 77.1908 82.3723 77.2747 82.6886 77.3974C83.1986 77.6104 83.6247 77.8751 83.9863 78.1785C84.3349 78.4884 84.5544 78.7789 84.6577 79.0695C84.7481 79.3664 84.6964 79.6182 84.4898 79.8183C84.2897 80.0249 83.8765 80.1347 83.2696 80.1347C82.2044 80.1347 81.165 79.8829 80.1708 79.3987C79.1766 78.921 78.3954 78.2302 77.8402 77.3586C78.2017 77.2812 78.602 77.2231 79.041 77.1779Z" fill="url(#paint4_linear_100_1744)"/>
<path d="M43.3857 57.355C43.4115 57.2775 43.4825 57.2258 43.6052 57.2065C43.786 57.1742 44.1733 57.6197 44.7802 58.5558C45.3806 59.4854 45.458 60.357 45.5161 60.7056C45.5549 60.9251 45.6194 61.0284 45.7098 61.0155C45.7486 61.0155 45.7873 60.9832 45.8196 60.9445C45.8454 60.8024 45.8971 60.6669 45.9422 60.5248C45.9939 60.357 46.0326 60.1956 46.1036 60.0406C46.1036 59.9567 46.1101 59.8792 46.1424 59.7953C46.1424 59.763 46.1488 59.7308 46.1553 59.6985C46.1747 59.55 46.194 59.4015 46.2198 59.253C46.2198 59.2207 46.2263 59.1884 46.2328 59.1562V59.1174C46.265 58.956 46.2844 58.8011 46.3038 58.6397C46.3296 58.446 46.3425 58.2459 46.3812 58.0522C46.4071 57.8392 46.4716 57.6326 46.4975 57.4131V57.3743C46.4975 57.3743 46.4975 57.3421 46.5039 57.3291C46.5039 57.3162 46.5039 57.3033 46.5039 57.2904C46.5039 57.271 46.5039 57.2517 46.5168 57.2388C46.6911 55.6635 47.156 55.2245 47.227 55.2116C47.4336 55.1793 47.8919 55.0889 48.1243 55.2826C48.3503 55.4827 48.4988 55.5731 48.5504 55.5602C48.686 55.5408 48.7764 55.373 48.828 55.0567C48.8732 54.8242 48.8732 54.637 48.8539 54.5014C48.8216 54.3271 48.6731 54.1141 48.3955 53.8688C48.0792 53.5847 47.5498 53.6363 47.2915 53.6815C46.788 53.7719 46.3748 54.9598 46.3683 55.1858C46.3619 55.4053 45.9164 57.8133 45.9358 58.5041C45.91 58.6268 45.8906 58.7043 45.8841 58.7236C45.8841 58.7559 45.8648 58.7624 45.8389 58.7301C45.8389 58.7107 45.8131 58.6462 45.7679 58.5299C45.3741 57.4389 44.8576 56.5867 44.2379 55.9734C43.4825 55.231 42.2817 54.8694 42.1526 54.9469C42.0235 55.0244 41.8815 55.4569 41.6878 55.9088C41.5006 56.3608 41.4102 56.6254 41.4231 56.69C41.4231 56.7029 41.4231 56.7158 41.4295 56.7223C41.7975 56.9095 42.1978 57.0451 42.5658 57.2388C42.7466 57.3291 42.9467 57.4131 43.1339 57.5099C43.2889 57.4776 43.3728 57.426 43.3922 57.355H43.3857Z" fill="url(#paint5_linear_100_1744)"/>
<path d="M50.1823 64.5624C50.1307 64.1299 49.3301 63.168 48.5038 62.503C47.8001 61.9349 47.2061 61.5798 46.709 61.4313C46.7026 61.4313 46.6961 61.4313 46.6897 61.4313C46.6897 61.4313 46.6897 61.4313 46.6832 61.4313C46.6122 61.4184 46.5476 61.4055 46.4766 61.3926C46.2636 61.3926 46.057 61.3926 45.8504 61.3926C45.8375 61.3926 45.8246 61.3926 45.8181 61.399C45.0305 61.6379 44.2041 62.4449 43.9201 63.8846C43.862 64.1945 43.9459 64.4462 44.0234 64.4527C44.0815 64.4527 44.4107 64.0976 44.7723 63.7619C45.1402 63.4262 45.5211 63.2906 45.7084 63.31C46.0957 63.3487 46.8575 63.8394 47.2578 64.2267C46.2055 64.3817 45.179 64.4914 44.7852 64.7109C43.9588 65.1822 43.4423 65.8924 43.3584 67.0351C43.6231 67.7194 44.3139 69.3076 45.0434 71.0119C45.5147 72.1353 45.9343 73.1553 46.1732 73.8009C47.006 76.054 47.1093 77.881 47.2901 79.5209C47.3998 80.5086 47.4256 80.9799 47.5289 80.967C47.5806 80.9476 47.6258 80.7862 47.6774 80.4828C47.7936 79.5983 47.8065 78.7461 47.7162 77.9133C47.4063 75.1502 46.9221 73.3167 46.1732 71.3799C46.1732 71.3799 46.1667 71.367 46.1603 71.3605C46.1732 71.3928 46.1603 71.3735 46.1538 71.3476C46.1345 71.3154 46.1215 71.2895 46.1086 71.2508V71.2379C46.1086 71.2379 46.1086 71.2314 46.1086 71.225C46.0957 71.1991 46.0764 71.1733 46.0699 71.1475C46.057 71.1217 46.0505 71.0959 46.0376 71.0636C46.0376 71.0442 46.0376 71.0248 46.0312 71.0055C46.0053 70.9474 45.9795 70.8893 45.9601 70.8247C45.9601 70.8247 45.9601 70.8182 45.9601 70.8118C45.9408 70.7795 45.9214 70.7472 45.9085 70.715C45.9085 70.715 45.9085 70.715 45.902 70.715C45.4114 69.6433 44.8433 68.4296 44.1977 66.977C44.6496 66.6606 45.4049 66.312 46.3927 66.1312C47.2384 66.0215 48.1939 66.0731 49.2204 66.1054C49.3237 66.086 49.5174 65.8536 49.8079 65.3953C50.1049 64.9433 50.2404 64.6657 50.2275 64.5495L50.1823 64.5624Z" fill="url(#paint6_linear_100_1744)"/>
<path d="M44.0751 120.769C44.088 120.672 44.1009 120.575 44.1203 120.478C44.1332 120.401 44.1461 120.323 44.1655 120.252C44.3011 119.219 44.7013 118.251 45.0047 117.334C45.3211 116.385 45.6181 115.578 45.915 114.926C46.0248 114.7 46.0829 114.539 46.0958 114.448C46.0958 114.422 46.1087 114.384 46.1087 114.371C46.1087 114.358 46.0958 114.332 46.0829 114.332C46.07 114.332 46.0764 114.338 46.0635 114.338C46.0248 114.351 45.9861 114.338 45.8698 114.506C45.6374 114.855 45.7665 114.681 45.6116 114.907C45.4373 115.158 45.3017 115.475 45.0435 116.03C44.7982 116.572 44.5076 117.244 44.23 117.896C43.8298 118.806 43.507 119.432 43.3262 119.994C43.0163 120.962 42.7258 121.737 42.7129 122.279C42.7129 122.434 42.7129 122.46 42.7323 122.667C42.8226 123.861 42.997 124.061 43.5392 124.681C43.9266 125.12 44.5141 125.307 45.0112 125.281H45.0951C45.3469 125.262 45.5922 125.152 45.8247 124.952C46.1797 124.668 46.1991 124.655 46.6187 124.106C46.8576 123.79 47.0836 122.97 47.2127 122.557C47.2579 122.408 47.3031 122.17 47.3547 121.905C47.4128 121.601 47.4515 121.317 47.4645 121.149C47.4645 121.085 47.4774 121.007 47.4774 120.982C47.4774 120.949 47.458 120.917 47.4322 120.917C47.3676 120.917 47.2837 120.982 47.1869 121.124C47.1675 121.149 47.1481 121.195 47.1223 121.246C47.0642 121.401 46.9996 121.556 46.9415 121.711C46.9415 121.731 46.9351 121.75 46.9286 121.769C46.9222 121.808 46.9092 121.853 46.8963 121.892C46.8963 121.911 46.8899 121.931 46.877 121.95C46.793 122.144 46.6833 122.331 46.5348 122.499C46.367 122.686 46.141 122.815 45.8957 122.893C45.6955 122.97 45.476 123.015 45.2759 123.002C44.9531 122.989 44.6884 122.828 44.5012 122.621C44.301 122.408 44.1784 122.137 44.1009 121.879C44.0299 121.634 43.9589 121.343 44.0234 121.085C44.0234 120.982 44.0493 120.885 44.088 120.782L44.0751 120.769Z" fill="url(#paint7_linear_100_1744)"/>
<path d="M93.0822 142.626C93.0822 142.658 93.0952 142.677 93.1145 142.677C93.2307 142.69 93.6439 142.451 94.3347 141.987C96.0843 140.786 97.5562 139.307 98.757 137.513C99.9126 135.802 100.545 134.24 100.649 132.839C100.804 130.941 100.21 129.94 98.8668 129.837C97.2592 129.707 96.1617 130.779 95.529 133.065C95.4258 133.529 95.5936 132.839 95.3225 133.917C95.0578 134.988 94.9932 135.001 95.0384 135.059C95.1159 135.04 95.755 133.936 96.0649 133.736C96.4781 133.465 96.9235 133.362 97.4142 133.394C98.2857 133.465 98.6731 134.02 98.5892 135.105C98.4988 136.234 96.9687 138.371 93.999 141.509C93.3857 142.155 93.0822 142.522 93.0693 142.626H93.0822Z" fill="url(#paint8_linear_100_1744)"/>
<path d="M96.3108 39.9761C96.3108 40.0084 96.3237 40.0278 96.343 40.0278C96.4593 40.0407 96.8724 39.8018 97.5632 39.337C99.3128 38.1362 100.785 36.6578 101.986 34.863C103.141 33.1522 103.774 31.5899 103.877 30.1889C104.032 28.2909 103.438 27.2902 102.095 27.1869C100.488 27.0578 99.3902 28.1295 98.7576 30.4149C98.6543 30.8797 98.8221 30.1889 98.551 31.2671C98.2863 32.3388 98.2217 32.3517 98.2669 32.4098C98.3444 32.3904 98.9835 31.2864 99.2934 31.0799C99.7066 30.8087 100.152 30.7054 100.643 30.7377C101.514 30.8087 101.902 31.3639 101.818 32.4485C101.727 33.5783 100.197 35.7152 97.2275 38.8528C96.6142 39.4984 96.3108 39.8664 96.2979 39.9697L96.3108 39.9761Z" fill="url(#paint9_linear_100_1744)"/>
<path d="M108.917 128.485C109.305 128.666 110.26 129.111 110.815 128.75C110.886 128.704 110.983 128.62 111.203 128.485C111.229 128.466 111.571 128.252 111.68 128.22C112.074 128.085 112.817 129.169 113.695 130.538C114.728 132.139 114.857 133.637 114.96 134.231C115.025 134.612 115.141 134.786 115.296 134.76C115.47 134.728 115.644 134.482 115.825 134.024C116.058 133.34 116.639 131.836 116.664 130.286C116.716 127.291 116.897 125.205 117.91 124.766C118.169 124.656 118.808 124.514 119.344 124.786C119.789 125.018 119.925 125.418 120.183 125.367C120.461 125.315 120.603 124.805 120.654 124.502C120.725 124.108 120.738 123.785 120.699 123.546C120.648 123.243 120.39 122.881 119.912 122.461C119.376 121.977 118.459 122.061 118.02 122.139C117.149 122.287 116.445 124.34 116.426 124.721C116.413 125.102 115.651 129.247 115.677 130.428C115.631 130.641 115.606 130.764 115.593 130.803C115.586 130.861 115.56 130.867 115.509 130.815C115.509 130.79 115.464 130.667 115.386 130.48C114.708 128.601 113.83 127.142 112.759 126.09C111.971 125.315 110.105 123.785 109.182 124.321C109.111 124.36 109.111 124.379 108.31 125.974C108.039 126.522 107.859 126.871 107.936 127.323C107.994 127.671 108.168 127.91 108.214 127.968C108.285 128.059 108.446 128.252 108.93 128.472L108.917 128.485Z" fill="url(#paint10_linear_100_1744)"/>
<path d="M69.5823 34.6605C69.8535 34.8284 70.9381 35.4998 71.4804 35.1318C71.5901 35.0543 71.7063 34.9187 72.0033 34.7573C72.1453 34.6799 72.2938 34.6153 72.3455 34.6024C72.7586 34.4862 73.4817 35.5514 74.3597 36.9201C75.3927 38.5212 75.5218 40.0189 75.6251 40.6129C75.6896 40.9938 75.8058 41.1681 75.9608 41.1423C76.1351 41.11 76.3094 40.8647 76.4902 40.4063C76.7226 39.722 77.3036 38.2177 77.3294 36.6683C77.3875 32.3557 78.4205 31.1743 78.5754 31.1485C78.9241 31.0904 79.7117 30.9354 80.1119 31.2776C80.5058 31.6133 80.7511 31.7747 80.8479 31.7553C81.0803 31.7166 81.2417 31.4325 81.3192 30.8902C81.3902 30.4964 81.4031 30.1736 81.3644 29.9348C81.3128 29.6313 81.0545 29.2698 80.5768 28.8502C80.0409 28.366 79.1242 28.4499 78.6852 28.5274C77.8136 28.6758 77.1099 30.7288 77.0906 31.1097C77.0777 31.4906 76.3159 35.6353 76.3417 36.8168C76.2965 37.0298 76.2707 37.1525 76.2578 37.1912C76.2513 37.2493 76.2255 37.2558 76.1738 37.2041C76.1738 37.1783 76.1286 37.0557 76.0512 36.8684C75.3733 34.9898 74.4953 33.5307 73.4236 32.4784C73.3009 32.3557 70.9639 30.0768 69.847 30.7095C69.7179 30.7805 69.7824 30.7934 68.9561 32.3428C68.672 32.8787 68.4202 33.3241 68.5946 33.7115C68.6333 33.7954 68.6914 33.8664 68.8141 34.0085C69.1369 34.3829 69.4726 34.5959 69.5823 34.6605Z" fill="url(#paint11_linear_100_1744)"/>
<path d="M34.7957 110.265C34.3179 111.001 34.2017 111.93 34.4406 113.067C37.236 111.575 40.8707 109.768 45.3124 107.65C49.98 105.455 53.2532 103.931 55.1254 103.073C55.2739 101.782 55.3255 101.007 55.2804 100.774C53.9698 101.02 49.7412 102.821 42.6073 106.191C38.8629 107.941 36.2547 109.309 34.7957 110.265Z" fill="url(#paint12_linear_100_1744)"/>
<path d="M74.0731 102.267C73.7309 101.673 73.2725 101.285 72.7044 100.956C72.5172 100.795 72.2912 100.775 72.1234 100.633C71.9813 100.62 71.9361 100.549 71.6908 100.459C70.9807 100.201 70.3157 100.052 69.5668 100.169C68.5597 100.601 67.6429 101.86 67.9528 103.99C67.9657 104.1 67.9916 104.197 68.0109 104.268C68.0561 104.462 68.1336 104.559 68.1852 104.546C68.2434 104.533 68.3854 104.255 68.6178 103.706C68.8567 103.158 69.8315 102.886 70.0252 102.835C70.4255 102.732 70.9097 102.835 71.4649 103.171C70.4707 103.771 69.8121 104.281 69.5087 104.688C68.8696 105.579 68.7211 106.734 69.0955 108.174C69.2053 108.6 69.0633 108.426 70.4061 111.182C71.7425 113.926 72.2977 116.618 72.8206 118.678C73.137 119.917 73.35 120.524 73.4533 120.498C73.5049 120.466 73.5243 120.253 73.5179 119.853C73.4727 118.71 73.0788 115.598 72.8142 114.552C71.9039 110.995 71.8716 111.014 69.7347 107.67C69.9735 107.199 70.4513 106.702 71.1421 106.205C71.2066 106.121 71.2906 106.043 71.3874 105.992C71.4649 105.953 71.5359 105.901 71.6069 105.85C71.7102 105.759 71.8458 105.682 72.0136 105.643C72.7173 105.456 73.4533 105.217 74.1893 105.159C74.2732 105.023 74.3636 104.681 74.4604 104.126C74.5314 103.648 74.5702 103.287 74.5637 103.087C74.3894 102.828 74.2345 102.557 74.0731 102.273V102.267Z" fill="url(#paint13_linear_100_1744)"/>
<path d="M119.022 34.941C118.971 34.9088 118.861 34.9152 118.661 35.0121C118.583 35.0314 118.267 35.167 117.673 35.4188C117.098 35.6706 116.33 36.0127 115.362 36.4259C114.393 36.8391 113.27 37.3168 112.005 37.872C110.72 38.4143 109.377 38.9825 107.938 39.6087C106.491 40.222 104.987 40.8934 103.451 41.5584C101.908 42.2169 100.384 42.8883 98.8798 43.521C97.3756 44.1601 95.9359 44.8057 94.5414 45.4319C93.1534 46.0259 91.888 46.6069 90.7453 47.0847C89.5962 47.5882 88.6084 48.0272 87.795 48.4017C86.9622 48.7632 86.3811 49.0537 86.0067 49.2409C85.9421 49.2926 85.7678 49.4282 85.6581 49.68C85.6193 49.7639 85.5806 49.8543 85.5419 49.9511C85.5031 50.0221 85.4579 50.1254 85.3998 50.2545C85.2836 50.5192 85.1674 50.8291 85.0706 51.1519C84.9479 51.4941 84.8188 51.9072 84.6768 52.3721C84.9221 52.1913 85.445 51.9331 86.2197 51.5586C86.9944 51.1777 87.9305 50.7387 89.0668 50.2223C90.1966 49.7187 91.4619 49.1377 92.8693 48.5114C94.2961 47.8594 95.781 47.2202 97.3239 46.5295C98.8734 45.8387 100.455 45.1543 102.05 44.4636C103.657 43.7534 105.2 43.0884 106.704 42.417C108.228 41.7521 109.635 41.1258 110.959 40.5577C112.289 39.9509 113.457 39.4537 114.464 39.0147C115.472 38.5822 116.266 38.2077 116.86 37.956C117.454 37.6784 117.776 37.5105 117.822 37.4589C117.893 37.3749 118.054 37.1619 118.183 36.9037C118.19 36.8843 118.202 36.8714 118.209 36.852C118.273 36.7681 118.344 36.6325 118.454 36.4065C118.577 36.1806 118.738 35.8449 118.906 35.4123C119.022 35.1541 119.055 35.0056 119.029 34.941H119.022Z" fill="url(#paint14_linear_100_1744)"/>
<path d="M139.539 97.8498C139.481 97.8498 139.397 97.9273 139.307 98.0757C139.288 98.1016 139.268 98.1532 139.242 98.2113C139.184 98.3856 139.126 98.5599 139.075 98.7343C139.075 98.7536 139.075 98.7794 139.062 98.7988C139.062 98.844 139.042 98.8956 139.029 98.9408C139.029 98.9602 139.023 98.986 139.01 99.0054C138.926 99.2249 138.823 99.438 138.681 99.6252C138.519 99.8318 138.306 99.9867 138.068 100.064C137.874 100.148 137.661 100.2 137.474 100.187C137.164 100.167 136.912 99.9932 136.731 99.7543C136.544 99.509 136.421 99.212 136.35 98.915C136.286 98.6374 136.215 98.3082 136.273 98.0176C136.273 97.9014 136.299 97.7917 136.331 97.6755C136.344 97.5657 136.357 97.456 136.37 97.3462C136.382 97.2623 136.395 97.1784 136.415 97.088C136.544 95.9259 136.931 94.8349 137.215 93.8084C137.519 92.7367 137.803 91.8329 138.087 91.0969C138.19 90.8451 138.248 90.6579 138.261 90.561C138.261 90.5417 138.274 90.5158 138.281 90.4965C138.281 90.4836 138.281 90.4707 138.268 90.4577C138.261 90.4513 138.248 90.4448 138.235 90.4448C138.203 90.4577 138.164 90.4448 138.055 90.632C137.829 91.0259 137.958 90.8322 137.809 91.084C137.648 91.368 137.506 91.7231 137.267 92.3429C137.028 92.9562 136.757 93.7115 136.486 94.4475C136.105 95.474 135.795 96.1777 135.621 96.8104C135.324 97.9014 135.046 98.773 135.033 99.3798C135.033 99.5477 135.033 99.5864 135.053 99.8124C135.137 101.155 135.304 101.388 135.827 102.085C136.195 102.576 136.763 102.789 137.235 102.756H137.312C137.557 102.737 137.783 102.614 138.009 102.388C138.352 102.066 138.371 102.053 138.765 101.433C138.991 101.078 139.21 100.155 139.333 99.6897C139.372 99.5219 139.423 99.2572 139.468 98.9538C139.527 98.6116 139.565 98.2888 139.572 98.108C139.572 98.037 139.585 97.9466 139.585 97.9208C139.585 97.8821 139.565 97.8433 139.539 97.8433V97.8498Z" fill="url(#paint15_linear_100_1744)"/>
<path d="M139.494 81.3873C139.262 80.1671 138.913 79.16 138.487 78.3142C138.042 77.4685 137.564 76.81 137.035 76.3C136.479 75.7964 136.027 75.3768 135.634 75.0604C135.55 75.0023 135.472 74.9765 135.446 74.9507C135.395 74.9507 135.343 74.9765 135.292 75.0604L134.523 76.4356C134.439 76.5969 134.388 76.7002 134.388 76.7583C134.388 76.81 134.472 76.8875 134.601 77.023C134.865 77.2361 135.233 77.6041 135.769 78.1076C136.273 78.5854 136.776 79.2439 137.254 80.038C137.758 80.8579 138.152 81.8133 138.442 82.9238C138.758 84.06 138.842 85.3383 138.674 86.8232C138.655 87.2234 138.571 87.5656 138.494 87.8496C138.39 88.1143 138.313 88.3855 138.261 88.6179C138.21 88.8503 138.177 89.0634 138.177 89.2248C138.177 89.4055 138.177 89.5153 138.229 89.5669C138.281 89.6186 138.339 89.5928 138.442 89.483C138.526 89.3539 138.655 89.1408 138.81 88.7922C139.262 87.8367 139.527 86.8296 139.63 85.7708C139.791 84.0471 139.74 82.5945 139.494 81.3743V81.3873Z" fill="url(#paint16_linear_100_1744)"/>
<defs>
<linearGradient id="paint0_linear_100_1744" x1="90.1263" y1="8.12134" x2="90.1263" y2="164.772" gradientUnits="userSpaceOnUse">
<stop stop-color="#4C3928"/>
<stop offset="1" stop-color="#C19A6F"/>
</linearGradient>
<linearGradient id="paint1_linear_100_1744" x1="52.3716" y1="89.213" x2="150.708" y2="89.213" gradientUnits="userSpaceOnUse">
<stop offset="0.09" stop-color="#C49D70"/>
<stop offset="0.61" stop-color="#6F4C33"/>
<stop offset="1" stop-color="#4A2E1E"/>
</linearGradient>
<linearGradient id="paint2_linear_100_1744" x1="98.2296" y1="75.6812" x2="107.552" y2="75.6812" gradientUnits="userSpaceOnUse">
<stop offset="0.09" stop-color="#C49D70"/>
<stop offset="0.61" stop-color="#6F4C33"/>
<stop offset="1" stop-color="#4A2E1E"/>
</linearGradient>
<linearGradient id="paint3_linear_100_1744" x1="107.268" y1="74.3897" x2="116.59" y2="74.3897" gradientUnits="userSpaceOnUse">
<stop offset="0.09" stop-color="#C49D70"/>
<stop offset="0.61" stop-color="#6F4C33"/>
<stop offset="1" stop-color="#4A2E1E"/>
</linearGradient>
<linearGradient id="paint4_linear_100_1744" x1="31.0928" y1="71.1674" x2="113.154" y2="71.1674" gradientUnits="userSpaceOnUse">
<stop stop-color="#6F4C33"/>
<stop offset="0.48" stop-color="#C0996E"/>
<stop offset="0.89" stop-color="#C49D70"/>
<stop offset="1" stop-color="#6F4C33"/>
</linearGradient>
<linearGradient id="paint5_linear_100_1744" x1="41.4231" y1="57.3291" x2="48.8603" y2="57.3291" gradientUnits="userSpaceOnUse">
<stop offset="0.09" stop-color="#C49D70"/>
<stop offset="0.61" stop-color="#6F4C33"/>
<stop offset="1" stop-color="#4A2E1E"/>
</linearGradient>
<linearGradient id="paint6_linear_100_1744" x1="43.3455" y1="71.1733" x2="50.1823" y2="71.1733" gradientUnits="userSpaceOnUse">
<stop offset="0.09" stop-color="#C49D70"/>
<stop offset="0.61" stop-color="#6F4C33"/>
<stop offset="1" stop-color="#4A2E1E"/>
</linearGradient>
<linearGradient id="paint7_linear_100_1744" x1="42.7129" y1="119.813" x2="47.4645" y2="119.813" gradientUnits="userSpaceOnUse">
<stop offset="0.09" stop-color="#C49D70"/>
<stop offset="0.61" stop-color="#6F4C33"/>
<stop offset="1" stop-color="#4A2E1E"/>
</linearGradient>
<linearGradient id="paint8_linear_100_1744" x1="93.0822" y1="136.247" x2="100.681" y2="136.247" gradientUnits="userSpaceOnUse">
<stop offset="0.09" stop-color="#C49D70"/>
<stop offset="0.61" stop-color="#6F4C33"/>
<stop offset="1" stop-color="#4A2E1E"/>
</linearGradient>
<linearGradient id="paint9_linear_100_1744" x1="96.3108" y1="33.5977" x2="103.909" y2="33.5977" gradientUnits="userSpaceOnUse">
<stop offset="0.09" stop-color="#C49D70"/>
<stop offset="0.61" stop-color="#6F4C33"/>
<stop offset="1" stop-color="#4A2E1E"/>
</linearGradient>
<linearGradient id="paint10_linear_100_1744" x1="107.91" y1="128.42" x2="120.719" y2="128.42" gradientUnits="userSpaceOnUse">
<stop offset="0.09" stop-color="#C49D70"/>
<stop offset="0.61" stop-color="#6F4C33"/>
<stop offset="1" stop-color="#4A2E1E"/>
</linearGradient>
<linearGradient id="paint11_linear_100_1744" x1="68.5365" y1="34.809" x2="81.3902" y2="34.809" gradientUnits="userSpaceOnUse">
<stop offset="0.09" stop-color="#C49D70"/>
<stop offset="0.61" stop-color="#6F4C33"/>
<stop offset="1" stop-color="#4A2E1E"/>
</linearGradient>
<linearGradient id="paint12_linear_100_1744" x1="34.3244" y1="106.92" x2="55.2933" y2="106.92" gradientUnits="userSpaceOnUse">
<stop offset="0.09" stop-color="#C49D70"/>
<stop offset="0.61" stop-color="#6F4C33"/>
<stop offset="1" stop-color="#4A2E1E"/>
</linearGradient>
<linearGradient id="paint13_linear_100_1744" x1="67.8947" y1="110.304" x2="74.5637" y2="110.304" gradientUnits="userSpaceOnUse">
<stop offset="0.09" stop-color="#C49D70"/>
<stop offset="0.61" stop-color="#6F4C33"/>
<stop offset="1" stop-color="#4A2E1E"/>
</linearGradient>
<linearGradient id="paint14_linear_100_1744" x1="84.6703" y1="43.6501" x2="119.029" y2="43.6501" gradientUnits="userSpaceOnUse">
<stop offset="0.09" stop-color="#C49D70"/>
<stop offset="0.61" stop-color="#6F4C33"/>
<stop offset="1" stop-color="#4A2E1E"/>
</linearGradient>
<linearGradient id="paint15_linear_100_1744" x1="135.027" y1="96.6102" x2="139.585" y2="96.6102" gradientUnits="userSpaceOnUse">
<stop offset="0.09" stop-color="#C49D70"/>
<stop offset="0.61" stop-color="#6F4C33"/>
<stop offset="1" stop-color="#4A2E1E"/>
</linearGradient>
<linearGradient id="paint16_linear_100_1744" x1="134.381" y1="82.2717" x2="139.714" y2="82.2717" gradientUnits="userSpaceOnUse">
<stop offset="0.09" stop-color="#C49D70"/>
<stop offset="0.61" stop-color="#6F4C33"/>
<stop offset="1" stop-color="#4A2E1E"/>
</linearGradient>
</defs>
</svg>
